<mxfile host="app.diagrams.net" modified="2023-07-29T00:21:43.934Z" agent="Mozilla/5.0 (Windows NT 10.0; Win64; x64) AppleWebKit/537.36 (KHTML, like Gecko) Chrome/115.0.0.0 Safari/537.36" etag="nATPE8CqMGbe64KzU2p6" version="21.6.5" type="github">
  <diagram name="Page-1" id="3_6Zja62-g2XmUuGGlIl">
    <mxGraphModel dx="1050" dy="534" grid="1" gridSize="10" guides="1" tooltips="1" connect="1" arrows="1" fold="1" page="1" pageScale="1" pageWidth="827" pageHeight="1169" math="0" shadow="0">
      <root>
        <mxCell id="0" />
        <mxCell id="1" parent="0" />
        <mxCell id="kVjLwYkVu-goS-ta3FMh-1" value="" style="shape=image;verticalLabelPosition=bottom;labelBackgroundColor=default;verticalAlign=top;aspect=fixed;imageAspect=0;image=data:image/png,iVBORw0KGgoAAAANSUhEUgAAAScAAAEsCAMAAAC2Q4WwAAADAFBMVEVHcExSWGZSWGZSWGZSWGZSWGZSWGZSWGZSWGZSWGZSWGZSWGZSWGZSWGZSWGZSWGZSWGZSWGZSWGZSWGZSWGZSWGZSWGZSWGZSWGZSWGZSWGZSWGZSWGZSWGZSWGZSWGZSWGZSWGZSWGZSWGZSWGZSWGZSWGZSWGZSWGZSWGZSWGZSWGZSWGZSWGZSWGZSWGZSWGZSWGZSWGZSWGZSWGZSWGZSWGZSWGZSWGZSWGZSWGZSWGZSWGZSWGZSWGZSWGZSWGZSWGZSWGZSWGZSWGZSWGZSWGZSWGZSWGZSWGZSWGZSWGZSWGZSWGZSWGZSWGZSWGZSWGZSWGZSWGZSWGZSWGZSWGZSWGZSWGZSWGZSWGZSWGZSWGZSWGZSWGZSWGZSWGZSWGZSWGZSWGZSWGZSWGZSWGZSWGZSWGZSWGZSWGZSWGZSWGZSWGZSWGZSWGZSWGZSWGZSWGZSWGZSWGZSWGZSWGZSWGZSWGZSWGZSWGZSWGZSWGZSWGZSWGZSWGZSWGZSWGZSWGZSWGZSWGZSWGZSWGZSWGZSWGZSWGZSWGZSWGYAwLQAwLQAwLQAwLQAwLQAwLQAwLQAwLQAwLQAwLQAwLQAwLQAwLQAwLRSWGYAwLQAwLQAwLQAwLQAwLQAwLQAwLQAwLQAwLQAwLQAwLQAwLQAwLQAwLRSWGZSWGYAwLQAwLQAwLQAwLQAwLQAwLQAwLQAwLQAwLQAwLQAwLQAwLQAwLQAwLQAwLQAwLQAwLRSWGYAwLQAwLQAwLQAwLQAwLQAwLQAwLQAwLQAwLQAwLQAwLQAwLQAwLQAwLQAwLQAwLQAwLQAwLQAwLQAwLQAwLQAwLQAwLQAwLQAwLQAwLRSWGYAwLQAwLRSWGYAwLQAwLQAwLQAwLRSWGYAwLQAwLQAwLQAwLQAwLQAwLQAwLQAwLQAwLQAwLQAwLQAwLQAwLQAwLQAwLQAwLQAwLQAwLQAwLQAwLRSWGYAwLQAwLQAwLQAwLQAwLQAwLQAwLRSWGYAwLQAwLRSWGal9OWPAAABAHRSTlMABg0WIi46R1JbZW50en2AgVAEEThtiKC2x9fj7fP4+/7/AQ4kRGeOsczyCiN1ouX2K5C/91PE6vzoNuH6cUCEPj07BS3B71aq5jDR+c9JpAwUYLz0uV0cyhod0/3VbN/b2Nndxqd7JxgqMllqk/W0m/F3CAKY3osJH5JLpgcgrVgpTQNCrw9Bwp8TnQQNGig3SVdmc32HjpKV6wkdNVR3scjb6PP4/f8cY4UIH0Jsmb/d8PwlUbnf9riGJAsW4/pAAdFO1zrPY7buXwItgdQG5QWkqJ+cM6iK5jQS2UW7lv7r4MvEzZd6Kw8LSxCutMY9Im5Nt1tpcTGrwhTOU73J3CpH+QAAHdJJREFUeAHswUOCAwEQAMCObXs6tm3b5v+/sde9xRhUAYNqGCw2h8vjC4QisUQqkyuUCrlMKhGLVAI+j8ths4Du1BquVqjTG4wms8VqszsI/I9w2G1Wi9lkNOh1Qi1Xowb6cbrcHq/PH7AEHXgLR9AS8Pu8HrfLCXQRCgsiUVMsjveLx0zRiCAcAqpjJ0TJlMWOz0hbUj5Rgg1UxQpnfNlcHl8hX8j6MmEWUI6rKPWXyvhK5ZK/UnQBhWiqtawV38GardU1QAnsRs1kw/cJmmpNNpBcqx3pdPHdup1IuwXkxen1C/gZg36PA6SkHipHZfyc8UQxVAPZsKezAn5aISqYA5kslqs1fsN6s10AWewk+zJ+S3mvOwAZHCOnM37T+SQ9wq/bRS4E/jFnDci2xUCw6j/btm3b5rVt2zZW/d8KTpKLoIyDDHq6e0ifWVkn3TXVMPQBiBKuSH3I6cWpf/yxKlTu6fTU5NmEQqkaHx9XaxQ7J8/cT2kVr9O20cnSH1pGpyu5z9SOhKPb1y+/tDS/GxrFooa/YxSJN03m+2+Ltdv2+jR+Zq8kYNOOJQr51J7zGRVvXcoDp/vlfpHlYTIpvRsNhtu27u1jBbJKfPbt0UaYtvxoPEc5GuCfi4IITvFv6K49zLk4RPqOv5NFk0SJPCEA07okenUtiFX0pWC8pSuh3EVo64NvapovHn5G8NY67xq81WVF1NLNe4NGrOdwnIooxZIfsFsAie+lsTb+RzDF3lbCkv6PFwoM4k0nnJI7/Nj/rqnz4RUfOdVwoeL6Gkkj09EHFEoofemGOmwBxcnoBBSx/TgiilLGFReMie1gh+q1nswYOg7WIf7BFTCSC9PdEziZ0vHAoKe+MiDru4BQMk/3hKIUlO+AoftpGYN2nze418BItWMNEvFPnECZ8pzry+NS4HwOkFUdOgX4w9R8DISl7YIHpwrvWwUKm+Ig7jnXdgGKUun+ATcQfOdAkVK0ZbA6KL2AGeOK3pEYxMGIA9B9rh6Mbotoe4YZCFZbSDHg35cn5n+bGcFmdT5ymJnAmIXkdqhslTGXFAeT2XItYbYy3A2kdfl/Ys0pwJEtCMNnbZuzd23btm3bto1Mj4MxkunFaDPr3TEztoK1bTzd14uq091Jd/I9zyTp6nOq/vqr6tNHh5OGW2NjsA81g3e8ZM7bktkzDo5Ozi6ubnKFUqVSKRVyN1cXZydHB8ZeZsZvLH+GqlkGVWxJJOZUZXea6G1US2Bi8vD08vZR+fr5B6g1gey/CdSoA/z9fFWu3l6XPQSmqSvUy9fvisRlr1QXWqFzvyokR14LCg4JDbuuDWe5CNdeDwsNCQ66RvjTeg9NI+yoWkrSuluzO62DOr2bd4xu3JTfun2HFcKd23fv3bzPO1al+kyhBGprDQmbmAf7JlOE5VW++Tsi2O1uZBRrDlGRd92iI/jm8z1bKdOY+g8kU5c9Kc1mh0O8DlMMc1MVq2YtQR2rusnE8LJa566kWNDtpksUpoN2lBaTlwkdERcaH8VaTlR8aFwEL6l3pj8eqIOlJVG6SJh4WxYeCfJYDSsWmkR5Ao8iWKd6U1ya95TgRHVqh1+6RjyEG5OUrGPFRZecwnDb6LUa4ydqXyciMruuTka/resBwkFqWnpGOCs+4Rnpaamcd68h6rpOHnZE5OWBtb1RM6461+nNTAjNYqUiKzQhm2tYfRD98b2riWr+7K6CDp8GcTk6mcE5OlZKdDnRmRyXYQiapJot3U3EYy468J3CkZqyo3O1rNRoc6LpZ6plxVWo7KtEROPQBDM9ihivPB1rDXT5BXRFNbIDunlegYjEwOWY01RIN+bvFwWw1qK46D6hsQE1zVaWiDQZb4Tpjz11CAV9iIG1JvEheup86BhW9hqJMlWf0R7rkPbRCl2q0RTOWpdwkzGV9iANMG1+5qIIwungYmSEWYM2dQpS6ljro1ME0bT5Qzskf/S0eIDWsgqiPbZWozg4mc6JrFAeRakfPzHEPvV79uyZ3/NYQ+RjddQjViiJ3tlmNPLd67W0tNT1Q1ZlulAEWtALtSBjKeu5r+plipPjq6AI/es3bzzevHmtZ4JeJTilvFT5Ps8SZFOpVUE0YwgJVL+pxCJOIPbp1p14mFLfPhfgvZmULtH33+EmuOzd/WgXpUmAp/f8bSoeKKxLXbSOWEAdJIf3XotfOn06z8yk8X/vY+Tp5V4LMvq899fwzFLpeuGux5k6FkzHh/UX3D6mfeBV5rTP5E6eMiIEmedb+Uctr8Ln+4pgtNoO16X+Nc0fLfQZC39kT9SOSL0ZzydIYS8d7Yk52Du+DOMTqvibqegdOQzrqLG1zE5OsHPT4gK6rPPGR8fDYLuX8IaYj33CvcQo7rvn44EuAW77C2SJmSmq9Hj489qj8wImn/MBHud6RxBLifDOfcxpDYdGoA3GavjBCs2yN1sOgZ251ajKf3WLSyL5FxVkEzHILijy5/qyuw4EYSN8USZXIWZQtxvcNW4kCJ84tGVgrOtnIh6ffWIDOQTCJ4JQYQJs8w80QxLMgQXZIYIQd5sepcQvDBEX5gtHpK5/JQgz4bH2N8HioGU1O1Dgb0YEfmpKAL0AuTJEfBhXenkN+J6KKJ6a4OPZ7Wwp9NYNABvGdohwSv1BLXRZ9z4Tafgsz6KWvR+piIw6DJt2Ahc4z8K1c9sMJK3+VLM46pwCIhkxXjm0lkb7RYYM1RvBT9iKCKEe2AY17oGEyZUWpqfe14iUXHN+SntJrkiFHQHWqcGbiQA2rBKiWGW0MD2WM0RqLhfpaIFCTlRbcPdm1QnCm1KXhHRAqV/wMD16Zkwl0pNq/EgJVEgq7EDuARuY7fw3o06CVXMbXDRjkrR4dlAwxDowCjX+K5JiYMccTFEdD/HemD0P7qdOJCDOj3Ex4Cwj1kLmbMDvvjcBaQOakGP4iqgqkLbofYWAGLNQZYm7G5KQ9gFVnZFGeMxdHXpSO57tS2twuaorvLlTgL5FtVxPrIu+SI2e7F8Cmo4VvOZUu/e1gP4XNh0+o/kzKymbWJvspGIW4VkQLKehRq9F/d2Em42QEu89E36D71mEDCOxBcYMFuE3eLpb7rSDVPlGHhs8oCZYAzqYmQrM4/2TRmzDrz+YF1yUCd68WaA24N72GQ6twAyCa50L0jE88g0ituKz7yMkXyYRiHPQ8zYdwbkiWwhVgKoEIjoLKXQ5EcR2ROQgZS8LtKNOgen4MNeeXZsdkKIA5++efsgJD9UTW6LPR7KBnycBOLAIatFOcxwnyBPfASpUj/xHcJhevCa25XUoHKhH+R6gZ9cc8srpB+o0dJwugB3PDw0SJnziZOtAaVzAeck26ECdozbAkHvVbSIB8IqEc1PeO2J73uXBOeoJaIT9zcw5xsm1bFF83RdMbLNrdGPbxjC2bdvJILZtW8/B5MW20dcT6yrOh2herz2dmjrzu93/j8FM965du9Zetc8JraaY4MqInvhC8beV9wRz46ic2hdewR149UIuCo8egKncSzFZnDibIf0lc24EmIilcmb/awrcg3XyHdnOpRFg/CTL7k4IoqOg8O9LlIXAoZWydbkL7sJU2eS8Ng1Mv3Q2odwURHSUF/75605g7sq7bvs0uA+H/iHvvMlgOgr+rS0FINMwkyAxu0Fgyz7xcmM33Ik3ohm873cwnsltimjeGDKJSigiZxwpp7eLp+6sE3AnTiwVV3PFVDBxWwkpsh4itepqptO5rToqzvXcuygeej+fAyMlVN1akPDJqgj/TmBuiYb443VwN+TOasctMN4tFZE1VPTnBFHQLAmYyeKRe+0J3I/9K0XxMhmEp3Tk3ekHJq4Q0VYjwByXtv2+ZxFwPyL+kD7r6uNg/Eoqou0IML5cxW0bPEHsEad5L9zDX01HDdfx3gtR5u0BESKI8hKJQAwSLPWSfmD+2CkdIpH4qymYsTW5aUykdDTvfAamnGABZODLk1JZFJEvlVAbJQd69REXhEkpnUDNXC259+uERBFsgyzXdQ7GHkFglkqd+It7rggTBUp7562ZBaYBz57YktEgT0ZFjPPSTKe9f7omTFqBunxWM6E6CcZmu3DH3cniqVliMLOEdNr5S4SLwqQTqIjZO4WP/AeYDbylclVw/DeKyNwRxJ7Dku+8xwVh0g/UHsk5+GkPtEp0eYdrLGHbpQ8BcURYm3/OcEmY9AM1Y7Wg946D6CtU8ozhiEpFnuTJlhLE5G1rmWX3XBIm/UDde7SWeTtZywjoXQlRScZbs2kcENP/KbRLm10aJgqUZkO6ajqIPKX5xOuAKOSuq4hvWYtPOr+WOX/GRWHSD9QZ6XNfnMSaPJ8i6kaVmlWKs3jyAXFypWDOHXJZmPQD9USw7K5FghjFEqp4wagbsxkbdBNA/GIXluWcC8JEtK7gCSecExLKvhREE/Z/m62PYqnkE7YdiBuCnbPjiUvCRAQPd26w7BDkzAOtjZf+i7kSpzkPPAXpVfEXZ9wiTO0KwikbHwp65haIhNnZJo/zRYzX479lI/PEz8Lveo5YJuSbvn2Hh8Q0TJ3xFf4nrPH8CLY1M7Or+UWS92FVMJGtvHXCKOa2yYg1co8Yuz5Fr5H16xauHzY+XTePjn/TDVNGyibi7kthaHMKDw7kYGWQBB9JNZIdqgYgZrA3uPN3xBKNx6SrW7rH/+ncmu26V48bohGmdxwm5vedrMmXgCjLKVMjFT7QqTU7dJzIJy4K9twmxAbhQf0zZVMC2VsGV4/ztTA1qgINNgmG3aUTPNjKMxmZOuEDFbg81c3NE//CtpsXAet08h3XQ0VLQM4+I5yGKacfdDgxfy1xkzde6pxcoCrhA2k51zYIlZC33arNsEztbq9LKOe0TtrYcpiAzavYhuVTyJNtclu3j381kRcxJYh5wlC25SpeOeU4jhJh82+qouG1HzS5K4y6zwVRhyV3rw8a1ovXKrM3j16xi2P/BRYZcSeXskRgF2gz285Sk0ck/bKw6vhw8HYsKTZ/Dkzbwa3dZVjC0yOnsoZ/F+izmJu8HYt1ClT+D4bl0ACdpuWZnS2ce7DC8MTFrYbpOmLAPTbP7Ft48dKzE/ehN0liI/WUkI+LC7G97bwGFlHWaFoK+sgb7zwrg8QUDltZyGU8C6fzHr5nWfUEFkjdq4SyRvNSiBlPVvG9C9vkoQW4kANA7qpi6+fAIf4dP92wEqaJzayGKQ1iyI3DvNbsno1gU7PwIAAN2XPJUZllv11qI43J3d1qNmWKj5gSwY28nRovKW/aNgZwnZV6Ov4Vl7i3+w3GpEoWYDVMlRBzfuMebysvNivNatcBFCXLpVkdvmhhkbYyEsaM6q2s0boSDIhcyVL5nkYrnD0lgCT8LkN2m3edlX6DKX5tlTXaVIAJwmrv5bfdjuFcLwugO6vxuHyzs5rLk7kiyKGs0aoCzOACtZpNzXisyIcAlflD5wznQWg7jXwcgQH0UhIDbG3KwZCZdo1CLthMYamkG/McqbgJlk9UfeShdqJHq/oTB24YOLF+q+itlhLdYIqgbubxIFRhaWxlRCvOMr4oPMoW3RSYEdJdRUOZ1xtCGw//0NM09tkQGE3a2cL+C0PWsVn36Bx1Lvl4ow9GF26ykrBCO0A///ZGmFGquBJp1q5OHEQlTp2MzeSkSwlDFr6l73GA1fIGaQAzKCt94K583F3jaXXow89kMSWTchMQp0NJJZHBOKH4CYGz/OhSNxtZmh6oQ9ldYKxGZ2SfBTPiyV89ZygkfF4rgXoeMGSWTp1NSYoyoIFwJ5UlHl+1kJDduRva8BwoUXg0ZDpXVQLjQ2DGG/4ifOlSibdYEnzLLysYzLPQksNlRG0xQdp5Izo6tlPiqJ8Bstv4jNeGK+hA5GNbh19CN4d17FMYMVQynVo5syWvCzKimS/MeMpPNf8bDkjOwHjwrF0xrpIXpWPCBM9CUrlJCGc0EKRUWGUYIB7cl9jz8WdJiWL83jD6DJOWseerKwvYfSbyDYcz+gYrovQIQ2HA3u/DE+SscEzGgW982nvST+fL+RcnYIBk4qiS13UUF12cGXHiBY9ILKTLMt5j/hjALiffSR2OLfm0vpkieoXAOakmKiJFrAmon+huql8NrqAoqXHZsuemUP2MEMpTPR98DY8eUmdqxFWeWmGLnNclP3gjlOeHNfjR7aUw4ZsMisiZGl9jAouJwNQw4hf6Jv/gt9NwB5oFvFQd4Mh/2KXbAhMm+CvijsYp2Z8X2BtGPOPGhRXOQJ7FAJt3eTX8UvsRmBCXx9VsiUAQviTic6WBEUfYv+bnz8vzGCb43iMxz0N/R3H6DSYIl/dFQkEQPqROA4bCiOPk1H3Hr4hLxoNY4HarBb/0jdX+DJhQqR7vfD+j+DYbBSNmcAfGD8Ul5QYAiujG+XTgewf+MR0mhHLXUrIjCGI0KShbHRhx/x/fO3CA7436cHXQitOZdYscWQgTfLLFVpzUekNBTt9k3TmtOOnsO3Mon8z2XZdqBvlkDu+7EmIdN8C4PhXxAUF4ZDOoT+YkY+te1AUGGJ93Nl8w7MQanHfmpHjf3l2otZGFfQD/I1sWh6SlQprkTfFssSIBQo3iaRukEghOlyxQNHgJhdR7B70Deg1cxydr3ASPf+5y3pkInEky2d/jOGPPmdcOsy4Qz3AepAkUk2DDBoFYXBrF+il6ReKvg4l/b5HD2E+C/gGEMtDPrcfl2aX/7xvzHlwPOfiIBdXuRRME7TdCHvHyLcYMH1eRpJ74qRuqOp4SHy+QxPZKLPxg4nR/a4M0g14SmC5B3UMTF3/S9KqvZOK+1zogza8mEvXYocZ+QAJnISThK+ru8HkEaYwvSdSQBTVlDSRoS4c8xsfibc7mpTR+QFHbQyh7UEyi9ymQx8M9s9k8pzxs/o4q66Dkh38gkXcR8jANGtbvXN68D/Lw+WD653nw5l8So2YOEl2uEs5LO1eH8Q4SFViJc+PID5G/8AZxqg2Q6Eg4JOYFZHB1PRL1tRDLVDSC/2+kyESc4SeQKUs4lavvuDqx25DIsEIK+rN38L/tZI8S75kb0PQ1uPcHvu5QpssmUuCdel1YkhoEEEwtKTyd9hKvthEy2T6LTwWPch2rLIYNUuYqnj1YOV05mC12kqLlE8i0PiSWF6Si4z2feZSnboLOxfQRUqXdEN8Ygmyd/U+Qqt1C52AtN0CqOqZMjO/buA+pjMt0DpUjkOuJSzg148p9QDLNT1DUTE8gWTYfZOb7yuR6XkVRcq35IdkpnxPi+xTlMhQ4KSrWlRNItj0kLgvSlPte5XJveCkaFWmQbWRTXNfu88mMrl8hm7HaS5F7tgO5+GkzrxX68r3PId2Xzw6K1LUA5Fu08gNW+DkP8hnrzRQRxysP5LOtkEIAZa6Xb0SXbb39G0VgeMsIDXz4Z6Ui7FvX5WcRWba9f6CwzQx2QAuPxJPXaVeaa+QshCbSN25SWFwHfdBGpkPhMQ6MW7VZaTJSCpscFNpolhsaOVWeNPpAPKl37NDIQHa/l9TN5O+AodXjqetX9Tl+WvFcmW0gRc7+n0vA0C4R2/9FZS7kIDRkPPo66SSGo+3VWx80wz+Dqv34T7fFT372Q0v+kcb6phoz/S+uluunmSUGaMrQozjGj1+q3/BBa+65jMWi6oqhT5+Glqu3ruwd3oLmAhPi46lVdQ7yHmLDsG63r3cgRrqdfBRcfa520vGvkODUptoW9w9fkHw8YgrB8jbE3P8MJJ8fXdwoUfV9JOptyXjbCSpSQu9Lkmx2ZoifCfnfHoqD0Mw/ItkMWkKNyPxwnS+eSSop70kwZI98Hy6962sWb7s1/F/3q4gpIksuedbQGyp+mCVB0wckk4F/YG+70AdzaQ/JpNvF31KhK+CfGpA89t+ToLdOTBdf4/fFTRqXTCTo6Qhvn+UiG5KF/zUJnAsQBTb5fbuTxGExCcZ84e4DfxvJga9rLwLn3U0S9PuQHAKTJDC1guMe4mfEJoU1Lwne74OVZSFBZRqSwcgNEri6wfOMkcCymLSX08svkTzLHvugf4EpiuT1tq6GBI4c6J4t3xvJmoifUTwVgN790kaRrbG5Hh3rdz/0LbhrJUHNowgnBVDNPPTt4TcSvQ5Cxccufl6qntkPSNT8K9Ts95Co6gh69raWRBsGqHrXRaJPA9AvTyV/Oanbf0Miyxp0y1/gJdFpECE8MJGouA96damFRDV9CKVjhfgRKPp0a5lE1i0/QprvJVHDMfQp20mimTmE5i+ykmjyEHo030YixxrCkT5FjDd26A+/I1ilD2G5YiFRQxl0x5bjJFFDJsJj7CRG2zz05mEvMSrcCNNeFTHOjNAXXycxvj1EuFJWiOG4Z4CepNR72TVBEGE7nCFGVyP0ZHCYGP0jiMCiixhTP0A/WieIsbQQ6TKVczYAvfB0Eqd6HRFp7SWGd3cf+nDy1UqMyV8QGduahRi1V2zQg+CaixjmLETKeEacb0fQg7dddFEvHa3FxJn8FYnvfhtxpg8RhWwXca6XINHV9RNnOBPRcL8i1rIPiW3kDnGspymIytwYcazVRiSygQNizb5AlAq7iON4fYLE9eGrlzgtdxGtYIGFOM6idSSqk10HcczZNkTN+J5Y5vwUJKbtIidxrF/tOIe5UWLV5qYgEW1/NxOr6QXOJaOZWEsJeaC275mJNXEZ52MbryVWbd4+Eo1d6WrqWsB57dc7iNVwbxuJJbXcRSxXXhC8C3iWk6s8FYnEuGGROkQxfZZ4lpUBJA7fUy/xrqXhQvw6RTzvwQgSRcmylXiVc7ggGTWk4M4jJIZfZ0nBZCsuTKaJFIy+QyLYmyIFNRm4OP7Fm6Sg+LkB8S6lrIUUmN7iIhnWGkhBVcEtxDdj0RIpWM2y4ULt33ORAsubAOLZ3HsvKRhuD+KCbW85ScnLj4hbtif9pGRprQMX7qTeSUp6r9gRn1LXmklJ7c8pkMCtcqDMV9MRj+b+1inzMPHc5S5S9A9HQcSbju4x4smNeNiLzKSoq8iH+DJSX0WKqnI6IM163hIpsjZl+BE/DEf/TMpMiwZIlNLeRcpMRS8QLwL1XaSsZdAPqYLHzaTiZeM+4sF2Zj+pmCiEdIUTpGL4ah9i79dXtaRi9C408OAxqWnL9SG2RgpqSE1nHzRR94zUWF8+T0XsGI/Vz6OjZwca8X11khrztb11xIa9cMhJamq3jNCMO6+LVFX97d0OaG8/4/0wqWpZTIGGggubpM709H4KtLVe2rNK6kYzoLHWTgrB9KZ0G9o52TtYJXXeikNozrPRQCFUVTQaoY0vC2fDFMLqdyNiYL2smEJpaBoPQL6f2q+7KJSpbgNi49IdK4XinSx/uA2ZTu6/nrFSKJb3dYiZtK0uCq3rWla6H3IESxaHVim0lrUPiKFg4T9QGLwzXwt9uHie7uo2K4Vm7fyIGAuEufWRefT1kc+Gi2PzFG7ccFE4TN/TEHMp3f9A4WkYW1ko2cdFWJ97/nnKRWHxdpb6EQ92yk0UJkvx8tpHXxDnYfCU5p3VOChMvXlpiBPBjCEHhW34Rk/Ou5F1RGM7kLF2MLVEYTO/v4w48qV9hiKxtPms/PjhyAnCZnPvPDjeHZqopUj0D7oRX345NVFkrFWbnVfzMu/Ppdn9UBY8SZu7+zyvumniJkWo9/sO4o7hXUUDRc473DLW2XOav5i5d//XupLAC4/P5/O8CJTU/Xp/L3M8//Tg042WJStFruppqw3xyL3QZKGoeV1LXd962zYnp6enJzeLe791LTm9FDXz2d4+4tXA4j94KR44P2WmIp552ketFGuW2WMj4t2L9scOiiVX0/EAEoFn8bqLYmVpKNOIRPEl8+wmxYKp5ygVieQk43MNacw6s3tpH4km+Civ0kzaWfqUXYLENND4poY04Z1ZyfiAxGWoax/qItmaK7LSbUhw7sv5s6skj2kop28fuvDhQX6niSSwtpzl/HoCHXHPZx9suugi1U49Pa5bh+50BAq3OlssdBFcbc/yMzx+6NXJYffWUFstncfNyeWCo5/WoXfbgdL2r7PFS6SOj+zdOV28/yIFSSM1/e5x0cE/t3U5KRwu08zsm3vPH47YkYSCt3Z+PVq8t1IxO9bWvFr7f8NyVoeztqtlc/TT+438472+F24/kp3BPbBT1/ru6O3gYvvt3J9zc3NzsssGu/fu/no48sUexF/+ojP/AuJ0BT26YISVAAAAAElFTkSuQmCC;" vertex="1" parent="1">
          <mxGeometry x="128" y="254.65" width="68.84" height="70" as="geometry" />
        </mxCell>
        <mxCell id="kVjLwYkVu-goS-ta3FMh-2" value="" style="shape=image;verticalLabelPosition=bottom;labelBackgroundColor=default;verticalAlign=top;aspect=fixed;imageAspect=0;image=data:image/png,iVBORw0KGgoAAAANSUhEUgAAAQYAAAEsCAMAAAAW3O1eAAACRlBMVEVHcExSWGZSWGZSWGZSWGZSWGZSWGZSWGZSWGZSWGZSWGZSWGZSWGZSWGZSWGZSWGZSWGZSWGZSWGZSWGZSWGZSWGZSWGZSWGZSWGZSWGZSWGZSWGZSWGZSWGZSWGZSWGZSWGZSWGZSWGZSWGZSWGZSWGZSWGZSWGZSWGZSWGZSWGZSWGZSWGZSWGZSWGZSWGZSWGZSWGZSWGZSWGZSWGZSWGZSWGZSWGZSWGZSWGZSWGZSWGZSWGZSWGZSWGZSWGZSWGZSWGZSWGZSWGZSWGZSWGZSWGZSWGZSWGZSWGZSWGZSWGZSWGZSWGZSWGZSWGZSWGZSWGZSWGZSWGZSWGZSWGZSWGZSWGZSWGZSWGZSWGZSWGZSWGZSWGZSWGZSWGZSWGZSWGZSWGZSWGZSWGZSWGZSWGZSWGZSWGZSWGZSWGZSWGZSWGZSWGZSWGZSWGZSWGZSWGZSWGZSWGZSWGZSWGZSWGZSWGZSWGZSWGYAwLQAwLQAwLQAwLQAwLQAwLQAwLQAwLQAwLQAwLQAwLQAwLQAwLQAwLQAwLQAwLQAwLQAwLQAwLQAwLQAwLQAwLQAwLQAwLQAwLQAwLQAwLQAwLQAwLQAwLQAwLQAwLQAwLQAwLQAwLQAwLQAwLQAwLQAwLQAwLQAwLQAwLQAwLQAwLQAwLQAwLRSWGZSWGZSWGZSWGZSWGZSWGZSWGZSWGZSWGZSWGZSWGZSWGZSWGZSWGZSWGZSWGZSWGZSWGZSWGZSWGZSWGZSWGZSWGZSWGZSWGZSWGYKMjZJAAAAwnRSTlMAAxxKfq3Q5/T7/P4XVJ7V8//ZQAEkfNH52hl73QVQyv0UivE/JrMyyc8+BInw2Mg9etvXPO7Svrq53gKc1jQTCAeH1PeWIIRJ8jt9k6wedOkuOvUPOZnrYDg2ZGPTN+1iNWHsM1/OMV7NMMwvXctaWyyL+i1q6BANkgImMTASDr7x7u1YD8z//l8Jf6GfOwRLSjoDx/z5xA3IB2aBgIJkBlFnUAVPYk2Rq/YY+Lh1fxaA7x0JEW6dU73qJRqyJ7TcVWxOJXsAAAUZSURBVHgB7NBFcsNQEAXAMbOtZ2ZmhnCMYebc/ypZCzaiKk3l9xGaNLjcHq/PHwiGwg4VCXjIbtFYPCFF4GzJFNkpncnm8mCgYOdDsVSOwDzeD5VqrQ7zmD80mi1wUmiTDTrdOvDvH3p9sJO0/KE3AMRDpw+WkkOyUKMLiIfRuA6Ih+oEfE2teijOwNl0TpZYRADxkFkCEA8lAOIhOgB/qyMyKZaHlsjxyemZc5xf2PtwudZM2JS2u/3BOUZXsPXBfQ21m9s7cph72Prw8KixUNoTuwasnsi45whUXg7EsAEbEw+vUMm9EbMG8w8DqLwTtwbzDwEofXyybcDmi4z5hlL/h12D+YcQlLoVxg1IGHuoQ8nnYtegehANSPyKhj9y6QG3AiAMgPAf1EHxENeKURsHqG3b90+6F9ipOXOELwMO/5ShpSbnMLsiYmhfXWMHCcPKen/WYcPDsBlb4CBiGCUHD0OMbmcddjY8DPTDzq6GgX/Y9TCwg4chOeyBg4YhRvezPwxsehjSD+DgYUg/7IGDhoEdLAzsUD7wMMToITh4GPgHDwP/4GGIAjhMeBjoh8oJD0MUyMHDwA4ehiisH2Udjj0MySH7Q++xhYF/AId/x8AOHgZ06PYwROGEHSQM5HDa7WFgBw8DO3gY0OHMwxCF86zDxZmHgR08DOzgYUCHSw8DOVxdehiSwxo7OBjYwcOADtcehijcsIOEgRxurz0MEXfz7PCnGarvH65f1cLC4xM7/GWGuva9V3a0V9uQdVj44wyf1LPkA0eDAR4Oo8EgKF8yGgwgoG83GgwgoDcaDCCgAGDPLgojiAIgCt4iJEoiJ3AOM0yYaZnJ5poY+FBPQh27MWDAgAEDBgwYMGDAkDrD/sZOSe0dRMywdVhWR8cRM5TYJgYMGDBgwIABAwYMGDBgwIABAwYMGDBgwIABA4ZEGE5Oz85L7yI6hsur65uyu72LjqG4fyi9xycMGDBgwIABAwYMGDBgwIABA4bsGZ5fXt9K7z0whmjCgAEDBgwYMGDAgAEDBgwYMGDAgAEDBgwYMGDAgAHDx/vnV3B9fv/UzFD8/v0H11+rHf+xX0IdDBgwYMCAAQMGDBgwYMCAAQOG2Bm6vf4guIajsUnWMo0BAwYMGDBgwIABAwYMGDBgwIABAwYMGDBgwIAhT4bxZNoLruls7tF27GPAgAEDBgwYMGDAgAEDBgwYMCTDMF6MlsE1Ws1NspZpDBgwYMCAAQMGDBgwYMCAAQMGDBgwYMCAAQMGDBgwYMCAAQMGDBgwrMuDp8VIggAKoHeM6tmeO/Y01rZt+3mN5+U3LWJNjD+LVdVJ3qvO0dp3yhykKNvbhN7+UJbGK8r2v4bWQn8p+4cEZc9fQGv/bcp+4wAVz6C1TBdlcTyhovwUGnvdTUUMjwQVj29AW4WeH5SJXtx/QMXt+nVoKvThLRXZCMK3qLp95y601Nc/QJU9iMJlBhBXSlfdoRtauT78c2R/mgE6l4DRCoOIM2fPndfK2Jdxh0EqGQDWARoubmFBnYYrYVHxJI12cgJLTggaTNSxrHaMBts/iRWtIzSW38KqQ4cdGkp4h7DGnaKh9rrYYM8xGmn/NDb5eoAGiu+D5Ot+Gqe9D4o9ex0axZnZgwCu59Mg/ncXgZqttkNDOO1WE1up1WcFDSAa9Rq2USiWyhVqrlJ+VCxgB1amY2cFNSWy9q45CypVKByJPjmQSKbSWkklE/FYNBIOQTUP6FBE8AKPpMEAAAAASUVORK5CYII=;" vertex="1" parent="1">
          <mxGeometry x="128" y="40" width="61.14" height="70" as="geometry" />
        </mxCell>
        <mxCell id="kVjLwYkVu-goS-ta3FMh-4" value="" style="shape=image;verticalLabelPosition=bottom;labelBackgroundColor=default;verticalAlign=top;aspect=fixed;imageAspect=0;image=data:image/png,iVBORw0KGgoAAAANSUhEUgAAA2IAAAKKCAYAAABfz+jJAAAAAXNSR0IArs4c6QAAIABJREFUeF7svdm3JNd15vedc2LI6Y41F4iRgECBBAhAHBZnaVFqWmouudWDl7vt5X73m9/84P/Ay4/2s6VlW+52q9WW1U1qaIqSKE4AAQIgqwoAMVVhqvFW3SGHiDjneO1zIjLzFmq8Vch7b+WXWIm8lVNE/E5E5Pli7/1tBd5IgARIgARIgARIgARIgARIgARmSkDNdGlcGAmQAAmQAAmQAAmQAAmQAAmQACjEuBOQAAmQAAmQAAmQAAmQAAmQwIwJUIjNGDgXRwIkQAIkQAIkQAIkQAIkQAIUYtwHSIAESIAESIAESIAESIAESGDGBCjEZgyciyMBEiABEiABEiABEiABEiABCjHuAyRAAiRAAiRAAiRAAiRAAiQwYwIUYjMGzsWRAAmQAAmQAAmQAAmQAAmQAIUY9wESIAESIAESIAESIAESIAESmDEBCrEZA+fiSIAESIAESIAESIAESIAESIBCjPsACZAACZAACZAACZAACZAACcyYAIXYjIFzcSRAAiRAAiRAAiRAAiRAAiRAIcZ9gARIgARIgARIgARIgARIgARmTIBCbMbAuTgSIAESIAESIAESIAESIAESoBDjPkACJEACJEACJEACJEACJEACMyZAITZj4FwcCZAACZAACZAACZAACZAACVCIcR8gARIgARIgARIgARIgARIggRkToBCbMXAujgRIgARIgARIgARIgARIgAQoxLgPkAAJkAAJkAAJkAAJkAAJkMCMCVCIzRg4F0cCJEACJEACJEACJEACJEACFGLcB0iABEiABEiABEiABEiABEhgxgQoxGYMnIsjARIgARIgARIgARIgARIgAQox7gMkQAIkQAIkQAIkQAIkQAIkMGMCFGIzBs7FkQAJkAAJkAAJkAAJkAAJkACFGPcBEiABEiABEiABEiABEiABEpgxAQqxGQPn4kiABEiABEiABEiABEiABEiAQoz7AAmQAAmQAAmQAAmQAAmQAAnMmACF2IyBc3EkQAIkQAIkQAIkQAIkQAIkQCHGfYAESIAESIAESIAESIAESIAEZkyAQmzGwLk4EiABEiABEiABEiABEiABEqAQ4z5AAiRAAiRAAiRAAiRAAiRAAjMmQCE2Y+BcHAmQAAmQAAmQAAmQAAmQAAlQiHEfIAESIAESIAESIAESIAESIIEZE6AQmzFwLo4ESIAESIAESIAESIAESIAEKMS4D5AACZAACZAACZAACZAACZDAjAlQiM0YOBdHAiRAAiRAAiRAAiRAAiRAAhRi3AdIgARIgARIgARIgARIgARIYMYEKMRmDJyLIwESIAESIAESIAESIAESIAEKMe4DJEACJEACJEACJEACJEACJDBjAhRiMwbOxZEACZAACZAACZAACZAACZAAhRj3ARIgARIgARIgARIgARIgARKYMQEKsRkD5+JIgARIgARIgARIgARIgARIgEKM+wAJkAAJkAAJkAAJkAAJkAAJzJgAhdiMgXNxJEACJEACJEACJEACJEACJEAhxn2ABEiABEiABEiABEiABEiABGZMgEJsxsC5OBIgARIgARIgARIgARIgARKgEOM+QAIkQAIkQAIkQAIkQAIkQAIzJkAhNmPgXBwJkAAJkAAJkAAJkAAJkAAJUIhxHyABEiABEiABEiABEiABEiCBGROgEJsxcC6OBEiABEiABEiABEiABEiABCjEuA+QAAmQAAmQAAmQAAmQAAmQwIwJUIjNGDgXRwIkQAIkQAIkQAIkQAIkQAIUYtwHSIAESIAESIAESIAESIAESGDGBCjEZgyciyMBEiABEiABEiABEiABEiABCjHuAyRAAiRAAiRAAiRAAiRAAiQwYwIUYjMGzsWRAAmQAAmQAAmQAAmQAAmQAIUY9wESIAESIAESIAESIAESIAESmDEBCrEZA+fiSIAESIAESIAESIAESIAESIBCjPsACZAACZAACZAACZAACZAACcyYAIXYjIFzcSRAAiRAAiRAAiRAAiRAAiRAIcZ9gARIgARIgARIgARIgARIgARmTIBCbMbAuTgSIAESIAESIAESIAESIAESoBDjPkACJEACJEACJEACJEACJEACMyZAITZj4FwcCZAACZAACZAACZAACZAACVCIcR8gARIgARLYFQLen/BAAcDH5XsHKB8f5bnwCyWvyV2eq58Pj3JrfsLkcfqu47+dfJ+ZvKbkPfVrSADkUOrX+Du4K6PPhZIACZAACfAHiPsACZAACZDAXSXg7UkPXwLaAa4A7AiwQ6AawVUjWFtBuSG2Lr0LZUdwzqKqKlhXwdoyvO5hURRD+CDKXPi3CDL5d3hOBFsj4ER0+UZk6fHfed6CUgZGpzAmQZLER600YDKobAEwLSQmQ5a3kWYdqKwNpB3A5ADSeFcpVPIEfy/v6l7CLyMBEiABEuAPC/cBEiABEiCBWybg3SkPXwF+HRidAew6UA6BYR/VcAvFaAtlMYCzI2xurEGhhHMFvCvD3dkyCinv0Ou1oYK48vBwQZBFoWWD0MrzbBwFmxZiIU7mrxJi0xGxIMoURqMiCDEFHR+VPKr6rmHLqo6W6RA5897AQ+5JuIsw0yZDmraR5R3krW54RJYDZgFYehhQ3RhlUyLaMkDlUNmn+dt6y3sU30gCJEAC80uAPxbzO/bcchIgARK4LgE/fMEjdUC5AQzWgK019LcuY7B1BYPhJlxxER1zEdpvAiKcvIVzItAqeBFqqGCURLMsFCy0clDKQ0EeZbEao8LCB5GkoLWCkrsCtGQPwqMsiyDIYlQsCq8owOLrEtiKfzZpifKPSYpiJoLJK8hHnJPPRgEXvsNZ5ElcH1mHKKYMMBZjBkUpr5nwvEICpZMg6GTBlWphrcjhkwW02gvodJfR6ayg0zkA3VoFzCLQPQT4NlT2JH9reayRAAmQAAl8hAB/HLhTkAAJkMCcEvD+JQ9cCimDKLaAwRUMti6hGFyGLTdw6cIZaD8QyYRUVzDhLsKqgvEWRb8P7aOwEvGkRWiFv+XRh+iXpBWK2An1XSLYxvVdBnCS/ieRqEZciVCaiK40lbTA6cjX5H2NGNs+dNsFmbUiECfPieAToRaiYiH18QqUlvWX52LUTNYHSurHNLKsBedVvMcgXhB0zgNWtFs3Q6k8rFOw1sA6A2tTOJfDuhxpuog0W0C7vYJe7wC6iweB3irQ7gF6FUp/hb/Bc3rscbNJgARIoLl0SBIkQAIkQAJzQMCXJzxKEV1DwF7A2qXn4N0FjEZ9lKMtVMUWXNEH3BDaj7DYS0Mtl7cDKDeC8pJiWKcZWmBh4XCIGDnnYl2Xq0J6ofxbBFWaiFoR041otiFpiE1dl/IGiWpDHhshFqNVjRHH9IA0xh3bn/voe7frGklJDD90MQQ3TksUMeaVRZqLqJJ1lrRIP3VHEFtBNyoNrc1Vdw2vHfrVFTgtaZRN1CyF0hlcqC3LMCok5VJEnaQsymsiLBOoID4Xsbj4FPL8CFqLK8DiMpDVtWleInMpVPpZCrU5OC65iSRAAvNLgCf5+R17bjkJkMA9TMD3n/NQ60B1AW74IQb9c9jaOod+/yKGwyuoig30QgnWKAgo72L6YGY0skQh1UAx2IRyVYgeSZphItGuOr2w8hpblYJVIlIkmgQYLaIlRpxEclWVRMQaAbT9UUtcbVBAT4mlacEUh+ajP1HNe0TQiei78U0+36Qz1rVoQexJoEyqzpxs0La6MdkW7zW0UkjTrE5llEiYiLV4DwG8kNooa+jg6nRHSWQML4Xvl1KyVl3/FmOCVj47fk+CJFtFUSYoK3k9R5oto7twDIurDyDvHAV6xwG1BJhlKPMUf6/v4eOVm0YCJDCfBHhin89x51aTAAncgwT88JceWx9itH4a/f57WL/8Fry/BOcuwbsr0KYPo4dQqoSWWJY10F4kkdxi2p8Er+Q17X2dFRhz8uRdIk5ULTqkusvnGWwdbZqOajXfJul+Iki2vyY1W/LdDqmJ3zd9m6QpxtquRshtH64osCauidcazFqAKRGAk+1r3hnqwpSYcsSo2fQ6Nm8PiYz19l29BCOcqsglrId8XTBvFEfHCLKyVaxxk/+aFEsxdazL2qyTOrcUXokibqFyGazrwPoerF8A9DKy/CC6C8exsHgMWe8I0F4OTo8qfZq/3/fgMcxNIgESmC8CPJHP13hza0mABO4RAqG+y70ObL2H6tIFXF47j0H/MqpyC0YVSE0BV21Cq2Go8dKQ6FMZXAyVskFkKUl/843jhUSxRBhNzC4m9VVXPydCwwJ6GEw5arkUBIh8x0TsNH/Hz9dSLwofZeFVGYXLR27TP03TdV/1G8M61qrxhoKsEWsfTW1UzkC7PKRGTm7x/dvXdlooNv3OZGs0tEsAH8VmvIngqh/jCtZM4ucaNmNRpiRCJjdxahT5m8B5EYcpHBJUzgSRFv8d0x7zVgfd7gKy9mHkR58BsiNAugSlnuXv+T1ybHMzSIAE5ocAT9zzM9bcUhIggX1MwPuXPexl2Mvv4+LF9zDYfAu6PAnjL8JbC1fFGi0lKYbiUugd8lRDe/m3Gz9KBKqRRNGqfSKyJhIkPueCLWEUaNOvyd8aFZIg8CZCbLsIi0Lko99fSxbl4PQNhFhQKNNCbnrwmudvYOQxjoJNXBanv0H7Wog5EWJTToxjuTgRZdOvj9dKBJgYezQ0Q2CsEV6TdR+LrzHniWhTSthNi7TtnIMtZLCQVCgrh0rMRyApkymQLGJttIC0fQwLC0fR6x5D3vkE0DkGtfR1/rbv42Odq04CJDA/BHiynp+x5paSAAnsMwK+klTDM6guv47N9TcwHJyBqy5AYROJHmC4dQmJElOMBIkYSogNfChSclBi1+4kxVAiX/FRpEPIkKtvTrtg3i45dY0cCKmE8hUq3iV60zzn6/dJqp3xClllYFyd2he+s44ljX9ZapEnFvL1c40wmTbuuPawXE+E1dplLLTk01e7KU7EzvVfky8QUwxxULw66jUtzOL3X/1jKZG8GNVrolrbo39hDeroonCrQ2NjcSpVYSKYY/VYza5+v6xREMIybqEGLwlpmqHptY3pkNZobMgi0jZMIv3OetDJIky6iiQ/DJMewOLDTwNYALAIlbDGbJ8d/lxdEiCBOSBAITYHg8xNJAES2D8E3NYLvuyfhR+ex9q5V4HyPOzww2C6od1lGLWFRBUhJTDJpLaorm+SeqNxjZeIr5hmGFIQxYy9yc6rH2XO7yQqFWqY4gebWiYRX+H5qcf4WhRmIky0M0hsBhMiSs0t/qRMZM12MTUtd0RsaCcRuxv9DN3otWtHuiZRtKkNvsbwB0P9UK81iRBO3rZd2G0XavFdkYfUg10lArdF8qa+MRSQ1YKraSM9nTE59XdMD43CyxiDxIjTYii2C2YhcrMKKFOg0gpSa1Z5hVKUs25BJT14s4TNfoKl5Ydx+PCvI1t9FGgfA/wilHmcv/3755TANSUBEriHCfBkfA8PLjeNBEhgbxPw/jUPrMNtncdg6wMMts5gsPkuhpvvwRdrUOUGcli0dYKWTpFKTZI4FRYepS2g2xWcKoLRhDgIimAQ10Id3A2Df0QdcYmNi6MMmKTCSephlCGNxXwUFyEKJrGyoOIk4hMFRzSZaNIBg7yra8qux3m79Jp+lwiwxCbBLOTWb9eLXG0XgrfyfSJCK2OD4IwK6dZ+DuMaiMCdrjGb8JuYiIS4YqS7rRdalHHyeRX6qI27Uk+ZptTrVPdUk55sIsLErt8HISYjkkAliyGuJvuAQwGnCyBxYl8J6AzDQqNyXVi7BO9XkGfHsbryMBaOPAosPQKVffHWNvpWgPI9JEACJEACt02AJ+HbRsYPkAAJkMDOCPjRSQ+IwcUIUJsYvf8LlKPz2No8i0H/LCpJO/Qx6mUwxFI3hy8qcZgHCgPj28hUD4nuQCUKA3sF3lTBrS+UcwWr9tjDK3QfDjKrbqbcmFqMU/rkFYlmiRhr5EUtvsbvbURKfGwiZ3FJTepijPRcHQu7Zl3VGJsIkWh2cU0hdnWUKXzuWhGwZv2iONoupm788xaigboam4VMatma79o+xtuTE6eF2ERIxWbV9TqJzX/TnLoWYpPImggrMfrIw+N2oTb5fGyCLfb4cUxDBVlwgRTmCVK9CC/NpkWEqWG4Wz+CExMU4aEzKNWB0otwtoOq6sBWLcC34fwKHvzkV6HyI0DvANBageo8yTnBzg5tfooESIAEdkSAJ90dYeOHSIAESODWCXj/aoh8ofgAo7XTWLv4Lsr1M8gHZ5CUV1BWQ3hfwiQOaQZIxqExDgPp4xUm3yr26mpiXM6HdDQJJqnQB6uxYHehV1VsTuyQ1amL08mCUVA0omaSOtjos1ifNHZgr6M/k+fCa15EmIatI2qRxMSWohEjE3HWCL2JoJJ3h89f0x7+ZqKrcUycFmj1toxdH5vx2Z4eOXnWwdTiZnsq5bS7Y7MFk5/KRrDFd0kz58m6xj+3f9t2NtMvi4WKuCI2NXZT0b4mizH0HpNlxG8N0c7Qq83ASB+2rUFI7Zx+LVroxxF08pqX7xA9F41ApN4stBXQOda2HNL2AXQXj6Gz8Am0eg9ALz4ELDwIpZ7h/ODWD3G+kwRIgAR2RIAn2h1h44dIgARI4OYEgsV8cQ7l2hu4fPENbF55F1VxCd730cYmFu1l5E76etW5hErBehsaIVeuRC59unwFh2gKIQZ60TwjNhU2RhoGq7puqBZL0utLm/CdYuwwuW23j/+IYAimFfV31H9Hi/smBTF+U6xVkvWQlDgRE83PyHYh9lERtj2tUARYpcSZ8eqfoSkR9pHI2NWpidcQYh+JjDWmGdvHS+RPIqYmdVZi1FD1ugRTkklN10fEYnBHlOhhER63Sb5temqybeNAZE0xulJG+Xp1mdzY0ETrEA1rGkY3zacl0CZxzLYIcRHdVjIX4zjJl8W/m1tMkdRGhFydauotrKSzmgSlE5v8HIXrwOsDyLufQHflEeTd+9E6/gQAscb/DOcKNz/c+Q4SIAESuG0CPLneNjJ+gARIgASuT8BXL3qM3gPKD3Hl9IsoBx+iHJ4DqnUkpoDRMmuu4KsCqYrdo6anzHGeHp9rUgZj7l/zr2kxcnU63rXjMbc2XtujXo2xxFVSYpyGGBLortPsOC7vo06D0+Lg5p+P33Hj29WvX+8n7VrPRwfJ67xyjcVeQzAGEXa9dZwKa9XfdrU8ChV7N/kVvva3R6fH2IqguU3tC1d/6bhGbTrSGNMb4x4o62FgkcAiR6XaqNCFSw5gYeURHDz6aUDMPrACpX6d84ZbO6D4LhIgARK4KQGeUG+KiG8gARIggZsTCFbzg9MoL72KtbO/QP/Km1jsjIBqDag2oPwIiREjjTgZltRCKJkI8zR8c7p8x90mENJcnbgx1s25gzmLuGhK2qlBJYIMPTizAiRHoPPjyLr3o7f8EFqrD0Aln+OOe7cHhd9HAiQwdwR4Ip27IecGkwAJ3C0C3r/iMXoLG2ffxpWLp1FsvQ9lLyHFBhJswUsUTBWQWIMIMF03SBYNFua/2/PV7tZq8XtI4BYIaHif1vuhNIouAWkwLWIsGLHIXpuhDGmLXZS+C29W0O4dwcLiUeTdY+gcfwYoe1AZ68luATjfQgIkQAIfIUAhxp2CBEiABHZAwF/8a3/5wvdQle+gv3kJ5fAKlN1EqgrkpkKqK9hiEKJgiTHBLME56fkUTOYhluRGyQR4uo5rByvCj5DADgjIPuiQhtxMhQoKJZQqQ3+6pu5NrPGhc3jdQeVzFDZFaVNUzsD6LrLucRw4/CksHf0s0H4QSlOQ7WAo+BESIIE5JkAhNseDz00nARK4dQK+/IWHPQ1ceQ0XL57CxuVfwQ7PINMDpCK2tA+RL7gSriwgDgppksKYFEolsFahsjoIMeg0tHqSdEUln+GNBGZMQOr7pCYs+I6ggq7FWHyUu7hvimOjAVQa+paJcPNIQkqt0wlKnWBUJVB6GQuLv4YDhz8PLH0Wqv1Vzi1mPJ5cHAmQwP4kwJPl/hw3rjUJkMAMCfjL/9nbtV9gbe1FbG6+Cu/PIU/6aGkLZQu4soSzNpg/JEYj0QkScaQrLJSWSayB8waVE2MEA51mIVLmywGF2AzHkYuaEBABVoX2ARIbk31X9lIRZBbaS3Pwuhm1tEkQZ075gLhxiv29WDAaYOj68CaF9R0MRl2U1VG0u0/gyNEvIz30WahFRsi4z5EACZDAjQhQiHH/IAESIIFrEPCbP/Ww76B//hVcOPtzFP3TaGcDtLIScEPYUR/aOSTahLuRSar017ISSXChn7JMccVz3ss92JWHxl/w0g9KIhG2Cs53vJHArAmIALNanDiDZyK0lzviY23cKZ3rYruC6MgotY3So07aIlQYwrQK2ODm2YVOlqHS5WDwsTFMsDls49c+9ZtIsodgWo9CrTzL+casB5nLIwES2PMEeGLc80PEFSQBEpglAT96wdtLr+DypV/i4vmXkJlLyNQ6EvRhfAXtbCihkf5a3vsgwGSiGiasIXogJhwTK/Fg0y4z2/ru4GGDSguxsUk/4FluJJc19wSCQ6K2QYhJU2j5TzsF5Wv55TW8FeUlu6o0FdcwRtISpU+dXEWQXndbIXPRqxylAwonFWYKXhqJJ4tY30zR7jyC1QPPYGnlM0DvYajuk5x3zP3eRwAkQAINAZ4QuS+QAAmQgIilzb/yxaUXsLb2MjY3XoevLqCVWiS+gnEKxmkYZ6C9RL5ic2QrE1kl/ZzqVshTfaniO+p7aP4bmzKHezDoUOG7okrjjQRmTCBY1Ut9ouy/Ir7kooDcZZ+Ufby5eiDrNdmbo999vc/7JJjNeF3CqQpOR/t7G5p9K5Tew0p9mWpD6YNo5Y9gdflJ5KtPQ638FucfMx5yLo4ESGDvEeCJcO+NCdeIBEhghgT8xe94XDqFi2snsNl/FcBZZMkGsrSEL0chWqBdBu1yKJtB+RTKJ3DKoUyKMJkN8YS6iW6IhdWNdqXOJooxMT2QMJpEIORRntehoS6F2AwHm4uaIiBXDWqjmFqIxX2xuTgQEhTjpYSmwXhIQ4zNxUWoGZvHtEVVbb/QEKJtFWAkdbEKgqyyLcAdRpY8gG72KEz7MfQe+hLUAvuRcbckARKYXwIUYvM79txyEphbAr486VGdgXv3P6LYfB1XLq9hONiERoks88gSC6MKeB/NNGIQQKIEGeAywGehvqZM+mHCGcVXTEeUOWsUZnEaG+ew0fggCrCmJkxSG02dszi3Q8EN30UCUWbV04Cw/8ZaxrDn1pGvcRS3ieqGCwlxvzYSCZbjwbXDMRHzby2gB4AewvphvN6ABFVlYG0G7zNo00KVrMAvPoregV/DgdVPAh2xv/8y5yS7uD9w0SRAArMnwJPe7JlziSRAArtAwPsTHrgCbH2IzQ9+hfULL8MNforEnw9Rrsy0kSWtEAGrygJVOUQqc8upvkrBxsAnYWIpEbHKjOC1DdoqJidOhFjzXBRk8RYmvkGHNc80E99dAMJFzjWBuAc2RhwRRR3UrXdRiX3VqbQhrVaiujG9Nva+i6m1UYi16kixHAUWSo1CDVlZjWCCy2IeLO/FfTHE1FSFymQ4N9RQ+WEs9h7GyvKn0Ft+Cug+CpU9zbnJXO+d3HgSmB8CPNnNz1hzS0lgbgl4+3OPrTdQnHsZl86fRH/zfaC6gJVeBe0HEIvDGNWKc0wfS2dgdGx4GyePMiltUrBibViMHsQJ7faTafhQqLuZTHYboVY/hkXQMXFud8o9sOHNxYMgwup9MaYh1gdCU9M4bjzepNXKBYUUcN0YBVMjKFXEfmSSlhvqzBI4a6CQQIVeZCbIN7HBD83NtYPqKmwVFYoihTaH0Ft4DCsrn0a6+ATQegSqR0G2B3YTrgIJkMDHSIBC7GOEy68mARLYfQJ+7a/86MIvcensy9i8cgrGX8BCu0K3o1FVZa28Kjgb75JimOgUqclhq5BcGEVXI8R0Ca/kc2LgIfVipp7ExtBXnNBGgRWFWi3GGtvEOoUxvjqdqrj7rLgG80ugiYaNDWbGRjNRlNVHQgQUArsirPJoVqOGUBAhJj3IJCqcBqHmXUy99V4MaiTipuHEjVFqI5VFmhewvoT1CQorzosLgD6M7sJjaPceQ/fw01AHvsV5yvzultxyErjnCfAEd88PMTeQBOaPgLeveAzfx7l3XkS1dQZl/wyS6iK6yRZyNQCqTYzKAUaCJkmQGgMj/b2cTBvr9EIV7enreWctxuppqjTBdQZZlUHLxLI24Jiup3G1sYFMcK8WZD6YI8jkNjbO5Y0EZk5gav/ctuzaAbSpdYytGcRNUVIRYyqj/Ce1kVXSj6mKLprYiKlNdGCM6YseRTDykK5jwQdEiQCT1F5JafSoNjeRJQmSPAeSFIPKY6sErOlCZQeB7AhWj3wGC8efAbKHoNRTnLPMfEfhAkmABD5OAjypfZx0+d0kQAIzJeD9ax7FGVz58CVcPHsCfnQOqb+C1G0gcVvI/BDGDWF8GSaGIyPW2nGSKX2Sxjb0oR+Yg7QIa27NFf3Y/laiYQZplcbJaW1Jv93YoI6ihUhA/EyTpii1ZvGZ0HVppoy4MBIIBMZCbHr/i+6fY/OZqZ5i0do+9hkL1Y66QJVsxBRD24aSOjG5h8hvFWrEtImPTpV1fE2HqJgVnVYBy1kH5WCEUnrzpQpIFEoV5BusaWFgW7BqFXn7YRw4/DS6R74A1fo65y3chUmABO4ZAjyh3TNDyQ0hgfkm4Msf++L887h47iUMNt4AyotomQqpL5B4G5sxSw1LED8yORR/twxO6lea+rCpSq9pgTQ9VW3qwkKcIExOG/+NmJI4jqGFie7Vt+Zb5dQbJR1vJLBrBGpb+o8sf6oVw7Shx7gSsrn4IGm6IU9R+onVPcjClzX98+piy1Bj2Tg01l6NdYQtuI0Fhm2vAAAgAElEQVSGYyW6MYoJjhybcoHE+hTWt1GFlMUDyNsP4MCBx2COPg60HoNKPs05zK7tPFwwCZDA3SDAk9jdoMjvIAES2DUCvv+SLy68gksXX0Z/8wSUfR+5WUemR9BVBeMB7SQCJTe5FC/ub2K6AXipY5G+SbyRAAnsAoE6Sjy+KFE7MoYIc6xMc0hR2QyVRN3MClrtQ1hcPAbdeRzmkf+Bc5hdGDUukgRI4O4R4Ens7rHkN5EACcyYgD/7x35r7Zc4f/4UBv3TSPRFdPIRMjWCkdRCZ6B9Uru4SVpU7foWUqXkSj77eM14yLg4EqgJNCKsMdKfSC8fLpZ4eC3RsgSVS1BWKcqqBY8OkmQBLl3EwrFH0Ft9Ambp81AJHRa5a5EACew/AhRi+2/MuMYkMNcE/OiEx4Uz6K+/issX/gHOnoat1pCYPtp5iUTSpaoC5bBCbnqx0WyIfCkEAw2x4tbRLbGpe5lroNx4EtgVAk3NpNSUNZ31Ygws9iuzcHKMarmAksD5GBlzXu45vNbYGK5jafVRHDr0DSQrX4Ba+SbnNLsyllwoCZDATgnwpLVTcvwcCZDAzAnYt//cn3/vZ+ivvwbl3kWnfQGJuQItPYykl5EvoKQJWN1oVqED7/MwiXNKnN5scHsT+3mZ8CUumhPwRgIkMGsC00IsOjGOWzpI6jAqVHYEaA9lpEWE2N7LBRVxXhR3RqnRtChKoFSLaC89gaVDX0Ny8ItQC5/nQT3r4eTySIAEdkSAJ6sdYeOHSIAEZk3gyiv/1r/7+vdx6ewLaCcXcHC1QisfoJVXyHOZpJWw5RDOORidI0m6sFUKJ4YcSKI5h6ngZJKnpeeRQ2J1dD3kjQRIYBcI1H32gjujrpugSz8+cVuMjoveyzHb9OiTlhIm3LUHcolrO4chNAq1Apd+EvniU1g+/CVkx/8JD+xdGFEukgRI4PYI8ER1e7z4bhIggRkTuPDqn/g3T/w9yitvoZdcQa7WgfIyfLWJNAXabYNON0UrN1BaomEO1kmxvwGUCDETo2HiyKYrOEld1CWUl4iYCUYevJEACewGAakLEwFmpCFE3aNM1kPSEyuYxAG+DH3IorOiGOwATnSZ9CHr99HKe0hbqxghweVhiYFvob38CBYPPImlg18G2o9CZb/Ouc5uDC+XSQIkcFMCPDndFBHfQAIksBsEfHHSn/zBv8fgyq9QbJ4O/cByDKCrAVIo5FmGsrLQWiHLoyDLWwrGWFS2QFkVSLM8RMIk6BVssUNaYrzLyS+xpu6LtBtbyGWSwDwT8FBinuPFzr4x1EnGKYribur8KPbak15lSurFovW9iDFvHdqtHINBgaI0MFkG0zIoPdCvDEZ2Fd3eMzh89Eswh5+Faj/L+c48727cdhLYowR4YtqjA8PVIoF5JrB+8o/8iZf+GijfR4rLSLCJBCV0qOkyUC4DkEGZHGVVwvkh8txhYVGj1QZMWsG5EcR9TUkOUzDpiA2Wm+bLoULFSu8jRsTmeV/jtu8OgWjKIaY5cqUkjb3IfDpuGC3HadNqQomLYjCzb24S4VaoQjajPG9DG+lwXvBJEHZiez9yCXxyBJ2lz2Lp6BeAg09DpYyO7c6Ic6kkQALXIkAhxv2CBEhgzxAYvfdn/t3Xf4orZ09Ajc4j8etIQgWIpBLKpEuHlMMw0fIZvOqENCWIXX1SIMsKtNoOWW6RphYm8fCuhHNS/O+DA5tSUmfi4K2H0TL542lwz+wAXJG5IaDEvRRF3N7a2TQIspCiKLJKLqDY6KIoF1SC76ncYojbamCYSvNn6RVYBeOd1GYwVqJrOlx80bnG5b5F3x1Ae/kJrB7/EtLDTwDtg1DqSR74c7O3cUNJYO8S4Ilo744N14wE5oaA33zBf3j6J/jwrb/H1oXX0LIb6Cggcwm09PryUuclNV4lrClgzTDUflm3AKUzaCVRsQGg+kiSAp2OQrut0W4ZeFfB2Qree2gVU5+8ZEQ5D5Mkc8OYG0oCe4lAI8REYPlGiKGOjI1jX7HBc52QGI7d4HLqDUpj0c+HsNohtQlSq5FZILVAIg3cxQDEZBjYEn1VYahaKPPDaC89jkNHv4zk8FNQmu6Ke2mf4LqQwDwSoBCbx1HnNpPAHiLQf/97/p03foRz7z4PDN/Gcj5CR1nokYWu8pBuFCJgygcBZs0ANtmCFQMO14HWObR2sFYcE4fQukSee+SZQreTQitxUVSQ3rBeUhtrISYItIlTPN5IgARmS0DSCZVqImLpxJpeImIh0TA2eI6W9vEojX3/orlHZSr08z6s9kirHKk1yKxD6jwS54NgqyTq3Urgco++d7jY9xj5FSwsfhrdA09g9ZHfAJLDUOpznAvNdvi5NBIggZoATz7cFUiABGZOwPtXPYYfYO2tn+Ht11/AhbOnsdRWWGwBbrAOPxqhm2bwleQjqpCN5JSFDa6HBZwpgjBTKvYXEvNrmbBJ1CvUhUmBPyq020lwU2y3EhgRXc7COQujxWFRwXkbUhZ5IwESmC0BSTlUkBoxucW6rph2LOnH8XiOqYnBniOkJkt9qKQtKp+EnoBFOgjnAePSkJJonIGRyDekPUURatAK62DRhkoX4JMuCudR+gIj38PioWexfPgppId+HcAhpivOdhfg0kiABMbN7ImCBEiABGZEwPsTfnT2FN594ydYO/M8MLoUpl55kkA7i2o0FA81tPMcVSkTtSiUxGhDRFN4DHcx4qhqCzURVpKiKFfWFaqqhK1GSFKPdseg202Qib+HTPwk2qYBk+jwPsqwGQ08F0MCUwREiOlgwlH3BlOx/lNiYKEMLJh5NCYdIs3kySjCgiAL54IyGvCM7e/leXFYFBFWQCcVytLBuTa06kCpHM6VgOnD6Ra2igNo9R7F4urjaB/4DLD861CGtWPcUUmABGZHgBGx2bHmkkhg7glILdi5917CW289j40PT2BxdA5HFhKY1GB9/QqGRR/tdgt5K4e1FtbKJKvpMySTsKaQX6ZlJZQewHsLuAwKLSjVgUcaP+vF9rqASUtkeYWsZZG3HJLUQps4wQtGH1NebHM/QARAAjMiIJEu7SUqFiVZiISFfn/1RZcgwirEWrIYGZd60XgOSGGcghGtJpJNe1hJXZZHLQYe8YKNEsMOBRgx6ak8qkEJV3i00g7a7UVsjSwGVQelOore6pNYuf/LwOEnofTjnBvNaD/gYkhg3gnwZDPvewC3nwRmRMBf/Ht/5o2f4M1Xf4xidBaHuh6d8gow3IDEutJWCp0ojCrpASYiSkMbcTWMk694j45o4R6upvfrSZoU+ecSV4MXG2wlrmkSNStgfR9KD5G3PboLYm8vr4m5Rwkt1vaMic1oD+BiSGBCIAqx+O9QBSZupuGxjnrXTZ1jc+dggjiuD5NzgfEGiRXzDsBJjai2qIyrBVn8Tq01qnIEuALtNEFLp0Cp4YsEtgJ0qkJkbGgXMfIHoNuPYPnoU2jf91moztc4P+IOSwIk8LET4InmY0fMBZDAfBPw9iU/ev8lvPHK32Hjg9fQ1SP0Ugdb9iHVG2HiVSOSv5vb5K/Q8Su6pU09RgHVFPI3dSWhm1A9uZMGsLFprNJSC1YFG+w00+h02shb8tbNkMIkN7G1Hy9bas2k1kRyGHkjARK46wSao3RyvIajsE45jPJsco+LD+mJtX29/KXr1hMxZbm+hzTmyeWV+AmJrEcLkGj2IX9paJ2gkhoyicTpDCObw5tDWDrwFBYOPwscfJapind95PmFJEAC0wQoxLg/kAAJfGwE/Og5/+7Jv8WZV/8BZvghlpMKuRvClEXo5TXUGlaiVzu61ZOyprB/euJWCzrRVlFfibCSuJuDMQatVgtZLv3GBlCmqN8j5WahQmUcJZvSZvXzPGXuaKj4IRLYcwQ0Et0KDeGhC8B4lM5jVOaAOYas/Rh6S8+i8+DXoLq0ud9zw8cVIoF7hABnFffIQHIzSGCvEfBrP/BvvPJ9nHvvZQyuvI2VjsdiDlSDDbhCmi+nwduwadN6++t/cyEWIma1GBO3RHFJlMhXkiRIUodeT0w7qmDcIe+TerP4HvncOE53lQjjafP2x4qfIIG9RUDSnLVqoywqODVCkil44zGsPArXQoUV6PQBrB75LBaPfx7oPQKlPsWDf28NI9eGBPY9AZ5U9v0QcgNIYO8R6L/6x/6Nkz/GxQ9PYaFToZOV8HYLthqE2i4RQ9EFLfb72dmtEWLNp6dSmeooWCPEmoiYCxEvEVlSP+LQbgNZrpC3UiSJpDdWwVVN6VjoH4xAxoIsuAgwMrazweKnSGBPEQh1ZrqDYlTBOjH1UdCZJC87VFrD6zYK30W/WEB78TF84qGvQK8+A6We3ukJa09tP1eGBEhgbxDgCWVvjAPXggTuCQL+yj/4C6/+GO+/8TMMLp/GQtuiI1EwO8T65mV4o9BdXIBKNIaDAVIrTmh3sunTYmzaeKO2vA9W1lelJ4r4C0+KY1uFPE/Q7mTIWwbaSPqi1IxFm3t5T2wq29ykvoRi7E5GjJ8lgb1AQC4EGZ3BiZuiuLOG2jJxXyzhTQWfKlQKKHwbpVuBSR/Bsfu+js4nvgqlmaq4F8aQ60AC9wIBCrF7YRS5DSSwBwiUH/yVP3Pqb3Hh9Aswo/NYzCuk4k5oy1gQrxVsYuCkf5cIHOeR2WhBvfPb1UIsTKfqr5MSfhFi0QCgqRVrliVmHM7aEAkTEZa3NLIc0KYKropyF6OPKMbkOydGAeO/d77i/CQJkMAuEhADj6oqQnN3o9sAUjjnUTlpGD8EEhFjFSpojKoORuUqjHkMB1afxcqxL0Id/C84f9rF8eOiSeBeIcATyb0yktwOEthFAqPT3/FvnPw+Lr33M7RxEUtZgdQPMdrqwyiDJO9Bt9oY2Arrwz4q7dDKc5nrhH5AO79dS4g1Yiz4XY+/uhFiIsxEhPnwsgkGHdKrKM2BVlvSFCdiTCJksals8z1NeuLVaZE73wJ+kgRIYPYElCpRlJeRGINEL0kLeXgvXd8lWl7AqiFUVmBruAVvcqTZQWz1FzEcLOLwoc9g9dGvAt1PQuVfuJMT2Ow3nEskARLYUwR4AtlTw8GVIYH9R+DCC/+7f+3UD1D238FCfhktvQ5Vyr1AN+vCuwSlNSi9RqUVpM0XkphGqCs9tqDe2ZZfSxBNasW00dEtUVRXsKiPSwlCzCnkaRdFUYTUSWny3OkatDsaaS4CrIBJmtTE2Mso6jGmJu5srPgpEtg7BJQaQSWb8M7DlS142wZcG1p6jcHCYgSn+kgyQKUalU1gXRceC/Cuh75dwSPPfBvofBKq/TucS+2doeWakMC+IsCTx74aLq4sCewtAif/7H/ybnAGg8EH8P4SsmQDWTKEsgV8aZGoFpTP4EOzZT1p1iqpf0HVmLqnz06360ZCLEiu7V88FSGTXkKybkq6C6kKzo+C+Eozh3ZX0hUVUnFS81Xdg2wi5mpdt6332E63gJ8jARLYBQKqgDKbsQbUtaGcCDE5X0lz+KYhfAkvNWNazgHSp0wMfeTiToJS9XC5XMLxB7+KxU/8JlT7H3M+tQvDyEWSwH4nwBPHfh9Brj8J7AIBf+l7/pUf/ieY9behy/Mo7RVAD5BkUnMhzoMO3koT5hzKZYBPgztiaKwqpvWqCqLMwYSJzc5v1xNi1xBhIsrGboqi0QxgU2htgkui9yWcH0InFlnukWYItWNJIhb38n0W1sm2iesj2Ox554PGT5LA7hNQUgs6qps9y/lJBJg8JvHcEE4WsUbUh/fKOUsepTm8hVU5fHIYg+ogOgtPYfXB34Ra/WecU+3+yHINSGBfEeBJY18NF1eWBHaXgK9O+NE7P8aLL34XpjiPzuASMj+E06UUe8WUQ61QOUn/k/qrDMol0GIVLS95KX23wa1QrjBbbeA+NiE2zerqnmDymoa3UqifQJtoVe98AQ+xr7fQWlIVs2Bv32onQaxZW8CKvb3y0Jqnz93dG7l0ErhTAvEYjheIpKNhbcojETFIxLwRZHIRx8KrYmzk45HA+0UMig4KvYLW8q/h4P1fhj78G1Dqczw53OnQ8PMkMCcEeLKYk4HmZpLA3SBw5aX/zf/qte9hNHgLbbWJdjlEJv22pPZLa1QS7/KA9ZLCI5EmucIc68C09zDeQYs5Rj3xCf16xjVXO1nD6VPY9U5n1xJhcfoFJ/3EzNhR0XmJeMlW2CC8slycFEWImZCmqCRFyZfjVMXoyMgbCZDA/iNgAInWh6C6pEoXIVIf21WIKY+po2QixkSYSXQsuqlKCrOCQTVqIckW0PcOG1WOdOmTOPLgV5Af/hKU/jpPDvtvp+Aak8DMCfBEMXPkXCAJ7D8Cfv0lf+7k9/HGyb9G4s9ioTNANbiIttYwocYqReV0uEu8S2opJDImUS/5//gu6YnBrTCmI0p64p3fbmaecf1l6KlmzdLreVL7hdjUWbtg4pFmHq12rBsTAw+JnIlgoxC789HjN5DA7hBI4F0rLlpLpCvWiErD+frJkKoY0xVFjMlNxFhMU5TnUr+EUVmgSvpwqUHfZ7DmOA4d+wYW7v8tqOwfcY61O4PLpZLAviHAk8S+GSquKAnsDgE/+Il/8/nv4q0TP8CB7hAttYGqfx7dtriIydVjMdzI4FwS7tAmpO0p41HaQT1xkboKucl7pQYjgVSMKR9k213YsJ3YyTuYUBvmIZvhQw2bRMdk/eXRw0n0y0tRfxls7bsLJvQak6viFGJ3Ydj4FSSwawRi6nS0q49RLnn0oV1FUGfxPFXXjEmNa2yHERu9h4tJZYZwMSfdQqkKDKVfolpB1v4U8vZTWHroW1BLdFTctSHmgklgHxCgENsHg8RVJIHdIODsi3648SZ+/qP/iOGlN7GaV6iuXEAHFkt5C5tbG/AtEyJgcDm0z6GRQst/WiYrI1R+C14XcOJKqCQhMYVDHu6Srpi6KqQq3vntdoRYc9qTOjARWhbeyRVvA4UUCuLMIRE7H+vC3DBM0pK0Qt52odeY9BwLzZ55IwES2KcEYpw+ZCHWphzRZVXi+LUQq11d5RJNLB+T/03qycrhCL1uJ4izfn8LSmm0uwdQVgu4tN7B0fu/gdbKs1AP/gvOtfbpXsLVJoGPmwBPDh83YX4/CexDAn70Q4/yA/zNX/yfaKnLcP1zyN0Iy1kONSxR9UWUtDDUlXggQrkUBnIXO3gPuCI4EKqkCPbPTtspIZbBIoP2+i4LsVsBPX3Kk0bORegzFiN1IsREhJnQY0wiZUkqNWxSEyZXy0WM2ZCe2O6kwVUxPD9OZZLlX++Ueq3n70Yk8Fa2me8hARL4KAGxo5dna+E1PkSbGL2Ir5hCPTl6p+pNlUOaagwHAzGCRSdvI1EGZeFQWQ2vV3BlsIQDx7+A3gNfhzryX3K+xd2QBEjgIwR4YuBOQQIksI2Adz/1/dd/iBM//x5QXECKLRhfwngLHeq75PqwCBTxuqgnM9KTK1w1Dv+v+3dJPUVM4wk9eELtmLwqfXji+yVGdlfKxG55DKdPebIxdVRr3Ki5sdJv3udrIw+pC4uF/Glm0G63kLcc0nwL1m0F0SbpjMZISqMO9v1VVSFJpDnsjQQao2q3PHR8IwncdQK1sJo6LdTdAidLimpt6rxW+/wE11dJY1QwzoQLS8ZFYyI5p1mVQmVLuLSVwLcewPFPfgXJ/V+CUl/kvOuujyO/kAT2LwGeEPbv2HHNSeCuE/DFc37txPfx3us/wmjjXbT1CEbcxILTYTR4FiElaYZNGs9dX4k99IXWSvqiDqYcIrai4NJI0xRpXqK7MIBORrVYa8w+6sQmPS3qrpU6GdOgPtJ0eg9tP1eFBEjg2gTkIlQlPTkaIeYMEnFhDe0K48WnUimM0Ar29sgfwOKhZ7B4/HNQXZp4cL8iARK48WVa8iEBEpgzAn7tB/7dX/0IH7z1PKqNM2jrAXJVikkzVG0nKM2Xw318CefeFhKNEBPxJTf5dyPGdFJgYalEljtkmUS+PMpK3BQtjFFBrMnfk1PttBibFrJMUZyzQ42bew8QkHOg1THSr50ZR8OkTYc4L3rlUGnAmRb6to3NcgG69TAOHXsGy/c9DdWhGLsHdgNuAgncMQFGxO4YIb+ABPY/AT/4of/Vi3+D06//FLm/gsWsgK42YVwZzDQkkXCbEf22iNi9LSSmI2KScihCLNzUCHl7FMw7JFVRxJeV2jgxIDEexkgKpqRmBp/+eicRQXdVeuRdcY3c//sgt4AE9hMBOaRdOJQ1VEhJrNMSg5lHBS9N4VOFrbJCiQ6QHsDIrsLhIFYPPY7V45+HWv4252D7adC5riTwMRDgSeBjgMqvJIH9QsD7E96eewmvn/oZ1s69BYwuIvWbSOwAiSuQaUm1iUXrTY2XPMYJSJRm93JqXRMJC1tbpyYGDaakubOFc5vBtKPdyZHnBlISFp73YgIigixyqpVbLcgaMXZvs9svxwDXkwR2SiDUvIaasNj0OfRIlGiYNH4XkyJVYGQtYNpI8mUMiw76/RRZ6wh6K4/j4MPfABYeh1Kf4lxsp4PAz5HAPifAg3+fDyBXnwTuhID/8P/2b772fZx+6yQSDLGQe6iqD1UOkSrAiKlGiOaYsRALBh1BjfhQFHUvn0REiDVRsCYSJs+FKJn2qMp+sLgX97R2J0G7I2JM+o+NUNkhEoEYrpAHYFcJsWmRdiejyM+SAAnMmsAkO1surIgQayzuXRBhXpcoqj6yVgqYBEWhYG0LWveg0MPQLSE/8Ckcuf+rUCv/8l4+jc56aLg8EthXBHjw76vh4sqSwN0j4M9+17/4oz+Erj5AOdyArwZIVYWW1DdJex1pclzK8uq6sBAJE5dEDycvKh8dFCcFY3dv5fbIN02bdIgQC5Gw+h6llTSDrkLT6iwXW3sd7O11Ei3vtRZOse9QTEmUJrHXMu7YIxvM1SABErglAnLsSz1YFGDJuHZWzo9exYiYnANMuBjjYStp65EiS3pQPkffpVhHjsWDz+LQwd+DOvJPOR+7JfJ8EwncWwR44N9b48mtIYFbIrDxxp/4M2/8PQYXXwKK86HvV54q5EYDtoKvHJQTe/kkpiWq2q5euyDCvNjSh6CYRMwad8BbWvS+epNEvsY1YXVKomxATFMEUpOhqsqQiqiN9BgDWh0VHk1iQw+yYOH/kahYc+rlKXhf7RBcWRKoCYgQk5YeUYgZOBWzBuLFKjHrsCE6PuhvBBfFTqsNgwSjfhH7Lna6WPMWA3sQC72v4tiDvwt1hDVj3MFIYN4IcBYwbyPO7Z17AtXp/+Bff+17+ODt57GSjZBJ42XYcI+OXxjXhckEI0TEVG3IHBoziwGF9NQSRZLe00LsxjuLhg4NoEWYVSEdUekCWcuj20vQauvAyUu31yDEpIF0jKjFW7TEv34T6LnfVQmABPYsAQ0H7eW8KfEuI/+CkwtWIUNRxJgc8/V5NbwXMMHeXu4alVbYNA6F7qK0B5G1Po0jx76F9MH/hvOyPTvqXDESuPsEeMDffab8RhLYswTcmX/vX3r+z3Hpwi9xYAFIRmLKUUGFSYNMFup2piHKJWl0k9owmVjElJt4D1LCZ+E983kL3tTQSgRXjH6FVKQkRsYkVbHVNqGGTCZkE0HmoXRsZx1x8zQ8n/sPt3o/E4hCrApHr4gwyRqIj9FhNqQjK2lYLw0/GiEm6YzxQpdY3w+MQ2kMRl6h8kfQW/gSDh39JtTx/4onhf28c3DdSeA2CPBgvw1YfCsJ7FcCvviFH5z+Kd489X2snTuFTA+wmCfAqIJ2IaGmFmNiwCFbOSXEwsSivsIrAkxqH4IQk0u/8yzEFLxVMCaBCnZp4qJYhCiYpCmaxGFpuRv+jrVi0U0xRMa02NsbxDZjPA3v1+OK6z2/BOScabycB+Xc2IiwST1tc1zLqUEucIVX5DHco/V9KZngiUWh+xiUBqU/jt7S53H06O9B3fdf88Qwv7sXt3yOCPBAn6PB5qbOL4Hy9B/5l577f7F+/iSOrObopin6l9dDzUI022hMJRqHP4mGydQhuoHFwE2dkjgVEZt3ISbYYp+x6CIpxh3SO0ws7OXe6WYhMiZ3EWQSMROxJkIs1J+FPgA8Dc/vkckt368ERIiJ/IqJiOLBE+w7xnc5ruO5VR6j5ZEKPRnlUcQbYOWDqQWyIUbeYnOkghhbWv4aVg58DdmD/5onh/26g3C9SeAWCfAgv0VQfBsJ7FcCW6/9kX/r9b/E5sWTyLCBFhwSl4Y6BedjtCs4+9XpibKdMqEIlsx1jVg0/YspdqE+rE5N9EiDYJvPm4ce13tFAjHVUNwVpZ9YbOyatzTaXY0sB7SRmrEimngI1MCXp+H53H+41fuZwPYeilFYxVsUZDG1e9LAPb7f1Ze1JGVRQYe2IBYqFecfi77dxFah4fT9yFtP475P/AHUfUxT3M/7CdedBG5GgDOAmxHi6ySwjwlcOfWH/vSv/g5rZ1/EYmuIhQQoNregCoN2q4fCi/mG1H7F1Lnm6m68fhuFmDQrlXqmmLMoQiwWoMd2xPWEYx8z2vmqOxhB5Bx8mIXFiZdSsc+YCNeyHISGz60O0GorpLkNYkyMPbyXSZmYfcyrkN05eX6SBPYGgWYKFUVWCH1Ni7GpCy1iay/viSYeUjOmkSNHVVRwsDAtB5tsYmgtRr4Dh/uhkmfwwEO/A3X0c1D6cc7X9sagcy1I4K4S4IF9V3Hyy0hg7xDov/Nv/c+f+xOo4j2Y8hJaqoQYKGdOQ1tx+FIYqRK2NpMQ4eDDZCK6gEURJvb1UYzFa70iHprImLx7jlPrlIOWNE0vDdcMlJLooDyaOjImPCsoXcIkZS3GgDSX50dwzkLLZyjE9s5BwzUhgVsmIDGu6JoqF6aiEIsXs5qUxJiqqGLaYt1/MbT+kHOHM8jKdri2JVFyJanLcpFGnBSlfkx1sDHqYengb+DQsTLpyusAACAASURBVN9Gsvx5qPRJztlueXz4RhLYHwR4UO+PceJaksBtEVh//f/yr5/4K5T9N5H5dWS+RCZF4tLWqpLpgYZOFIYo4XQziRCBIGmKkmIXUxODAAsRsdiIuEnHCWb20i/nttbqHnuzOKKFFEO5iXuiCLEkRMeci/VieZ7AuiG8GiLLPTq92PBZaYmKldA6qN6p9MTpU/L03w3paxHnafwe27O4OfuCwDWEWDA9agyP4kWqRojF/mIxIiaXsLScW4cGucmiUZKXtGULrx2srlAqoEra2BgtI+t+Dscf/BbyI7S23xe7BleSBG6DAH/BbwMW30oCe52A9y/78vTzePWlv8bW2ttoqRFSV8KIvgr3KKbGE4IwOYhJhrUiqMVVE+lqCs6v3vK5lmA1jLq2Tv7VpCaO60LCk9AGwSnRe1HAJdLco9VK0O6koWZsVFxGkiA4L4qAq0pxXhRHxRRJksC5xjylGZ8m/anuPzZVg7LX902uHwncewSa8+T2c+gkYXEyxYo1ZPXFq3EKYzwvS5qiEeOfcB1M/lcFV0WrU4zQw8AdAVqP4vD9X0P+iS9Aqc9w7nbv7UzcojklwIN5Tgeem33vEfD+lN96629x8uffhe9/gI4aQZdl+IFv6ryiu5ebRMHuPQwz3KJa3W4TYtOpmj6kLWpRwVMmJ1mm0e7kaHckbWk9CDSpKxMxF2vNpkRwMAOZmuRNGaqEDaXZxwzHm4sigbtHIJyHQ72tCmmKxmkYr2BC7agNF8isUihVji3XQ6EOo7X8aRz+xOehDnwaKvk85293bzj4TSSwawR4IO8aei6YBO4ugerDP/c//+mfYuPiKSznIsK2kHmEH3cVrOjlHoWY15IGI0kzkhrH08DORmI6ItaYlmyvmauqEmmqgxgTp8TKDoPBR7udo9XRaLWicYfclFLQEkKTahPnYa2FMY2RRxOB3G4IEMeO47ez8eOnSGD3CITU7nBhRcFIY3ip3Q029yLEKkgtmYVDZTIMXQdbZQ+lOobeyuO478HfAA49C6VYM7Z7I8glk8DdIcBf8LvDkd9CArtKoHz/u/75H/9/qAZvY6k1gB9eBEabyLUJaS9jIbatYDzap8fCct5un8CNhFiMZEUxJT3EHJwrQ12Y1JCkmUGaeSwuGkAVwWUx1IvVKUti5BHMPOS5a944Zrc/XvwECewtAjEtPEbEgp19SE2UOrMSXlUoxV3VpHBJFyPbw+aoB68OYuXgYzhw+Isw9/23PBHsrSHl2pDAbRPgQXzbyPgBEthbBPy57/hfvvA9nP/wJJa7Q6C8hHLzIpbaOWCjTbIILol/OR2vwrq6D5i4IopI420nBK4nxIR3/D6Jcjlv4b30XhNhJf3FahtrFFhaSoK9fZalsZ4siLUq2luHr6nTEq9KWYxOi9vrUnayBfwMCZDAbhOI52fJTgh1vCGNuYA4KzmMUEp6c9qGNz2Mig6GoxxJegB55wkc/uS/gDr4Dc7jdnsIuXwSuAMCPIDvAB4/SgK7TcCvfc+/+pP/gAtn30QnH6EanodxW1homVBr4ApJfamFmIiCIMJiaqL85CtHIbbzMbyREIunVmMMJD1RxJVEwkyiQrNncVSUlMR2W/qLGbRaGUxSG3tAomYu/tuJo2WQdHVz2OlGsbL8aJfNGwmQwP4jEPszSm2opCTrOsk4CjGvi9BzsKhGcB5I0i48OqjKHM61YNV9SBa+iCMPfhXq8Lc4l9t/w881JoHm150kSIAE9iMBv/acf+25P8b6h7+A8n2kpkA5uIRuS2Ox08ZgcwvBeitEw2LfsBgNEwvlOMEPJh6MiO1w+K9n1hGNN+QmKYfifBh6jSkfxFjw35D6kGBfXyLLFVotcVHUMIlMwqLD4kRkTTskxnYCYpcfBFiIbDbOijvcDH6MBEhg5gTGyimcf+sa3nBykHOA1IgVdZuLAt6JqYeBUS3AZ1Auk3g6LtlVrB77Ag7e91tQK79HMTbzUeQCSeDOCfDAvXOG/AYSmDmBwcW/82ffeh7vvvyfcLAzwmi4AdghlhfbKAZb6G9uoNfpwTv5gY9CTLRB08tGxFjocBPqx3ga2NkA3sA1ccpEQ9IT5S5iTNIUQ7tsIzVhHlU1QJICeW5CZEws7XUi0bIhnJMr4rJm00IsNtgepyZSiO1s6PgpEthlAnUsLLqlwsQLZeE83VxgEUOlAkZ7GLl4VlkgOCumkJTyQme4olJUyf04sPpbWL7/H0EtfoUn810eVy6eBG6XAA/a2yXG95PALhPwgx/4D955Diee/wusujW0XD8WeEOumkpNmFSDyfxdrrQmMRomsiv80PuxGJOoTHgvM9t2OKJXC7HGwbCJiF19ep16f13f5V2MfBnj0e4YdBekZkxGaYTKDkJ6ogg4H2pHDJRK4F20uZe0xSSVZTAitsMB5MdIYNcI1K2ew/LjOVqyFuTCmZj2yDEt5/N4l1elC4Z2Yughd41SexQ94MJmCqM/g+P3/Q5ax74J1XuW87pdG1UumARunwAP2Ntnxk+QwK4R8O6EP3/qL/HKK99B7i5hsRwgt1VsAtoYmYdJe7y6Kils8sMejDokSzEIsqaJc/jph5JZPm87IBBAx1tA2Aix+nEcaZx6U1TI42UpEVky2dJVMO2Q3mJ5S4UURXlOmkEHyw4RzEpDKYmGxXoxEWhKy4SN47eDweNHSGBXCdRn5fr0IednE8RYPEfHxs7NhTUthh3eRzFW3ytdYZAPUZg2RqODgHoUR49/E/lD34RKn+LcbldHlwsngVsnwIP11lnxnSSw6wQ2Xv1D/+qp72Jj/Zdoqy0sOINUSgoaETDlrtcIsPCT3oiw0EcsRsbEEEJ5ueLKifzOB7Zh15xKGzE2lsVX9fmaYi093kINmaQglbUY82i1NdpdSVNUKMvhRww5YqpjdLoMtWccv50PHz9JArtEIAqtWKs7ruFtasXq87mcTUSARfEVMxhCNZn3sNqhr4ZIOjn6oxJXNlMsLH0W9z32+8CB34ZKPsX53S6NLRdLArdDgAfq7dDie0lgFwm4d77jX3ju/8Fw81UsL/ZhB2vIqyQ0A43JiE1z5piGGH/gJ8GaJmY2fu84nZFC7O4N69Wn1BudYlXwSQuph4jRL21sEGKdbhpqxsTQI5p2xMhZTEMUES3Nn0XEcezu3tjxm0hgdgTiBbAmrbhJHa/rxML5PNbvyn+hv1gQYnVtr1xKU1JBZuHF4CcZYFQCo2oVre4zOHLfP4V64F9zfje74eSSSGDHBHig7hgdP0gCsyNQvPOn/sQLf4li8y0Yex7KrmGxk8KOpMZrIsTq6rCYzhaKvmUCPx21qWsQwg+83OIPO287JXCNOrBtX3WTU6yLdvYyTtJDTNzSklTqxVLkLY0s01Ba0hRtaAYt7wmpjFLfFxqN1amK11l9SWm80U0E3Y1ud/r5m1Hd69/P9buz/efjHv/9Pj46HH9yhm7SnGOcLNb3TsRYk2wuqcwTAadQiRmTKpDmA5hUY30L2BodxPLB38LqQ78LdfgPOMe72U7I10lglwnwIN3lAeDiSeDGE+FTvjj3C/zqlb/BlQ9fRdtvouVHQNEHnIVJ07oGrCnyrmVXKPZubOonV13jVdamF5WIMRo93NkeOJ2KOI4/3mK6YLCxDNEtmY+JwJLGz9q44KQogqy30ApRMpOIYUcB66SnkKQxOuhQM5bVk7Zrb8WdTlTv9PM3Y7vXv5/rRyH28V3ImKQYx8iYiKzmFkVYI8iaC2zhfB0ursl7NVypocNFmWE4J1ROofCLsOnDcNljOP7kP4Hq/S7neTc7EfF1EthFAjxAdxE+F00CNyPgq//sf/4P/y70CltKRlCbm2g5jZ7pYmN9A7qjYSVvJVQONGmIIsDkB9uGlDepBQvpbKFQTJLhYi8q2tbfjP7NXp8WYfLeZgSaq9vTk9irJ7QxjVSL+Uao64uOil7s7ZVEvGIUbGExDyYeSSrGHLWtvZf+QvIeGcu8jopRiF2LwJ0KqTv9/M32oDv9/jv9/Me9fh/39+/17b/x+okjRxIQNa63kwyFJs089hcLQbJQ31uf22vRpqyBcQlQRqdWnWj4LMMWNC5XXRx6+OtYOPwlpAv/nHO9m+2MfJ0EdokAD85dAs/FksDNCHj/sj/1wz/C4MopXD57Ci0/xKHOEuxWBdv3WFpawZbdinb09bXUaNTXCDERYLHh79hKQqJhIsLGV1tvthZ8/cYEomnGxDCjFmMB+M2FWGKSYE3vXZ2eFBwSoxiTNMXeQhaEWN4CtBEhNgi9hUJETGt4l96mENsuCBvTj+tt416f6N5s77zT9b/Tz8/7+s379t+eEGss6+u+gXXdb1PTG84QwfG2iYh5iIxzhULiekh1N/SNHPoRirSPqtXBhl/CsYd+Gwv3/QGU+jznezfbIfk6CewCAR6YuwCdiySBWyFw4cf/s3/jtb9Aqi4gRR9a0tbq2oEYzarrCcY/2PW3jhuDTUVoxgusa8OmGg7fyrrwPTciUEe0tr3ldurumshaczqui/hVhaLsY2W1i4XFDNAjeAxDyiJUCWstlBch1tST3Ggdr5U2OZbnHF4SIIFdITA9BYs+t9tv8fVtl3TC+T02fVZqEM08bAeqWoCyK0GsVeklVMkQG9aivfgZrB76A6SHvgnVfoJzvl0ZZy6UBK5PgAcl9w4S2IMEil/8H/69t76P9YuvIFXrQYQF03klnb9k7m3rbLakrvnagxvBVboJgabB8yQNKRboNxMtqRkrkeYena5Bq61gUrG6L8IkTGsFCZ5FISa3G53Or06bvLr3GQeLBEhgXxFQBaC3wnGv7AKU64XHkBGRXIY1fVSqRL9cQavzFRx+8B9DHf9XnPPtq0Hmys4DAR6U8zDK3MZ9RcB/8Jf+5X/4Nyi33kSGy0gwCI08pQZAbOlDKmKwNI+Oiaz12lfDO7WyVwux6ciYDLiYdHiUVR9p5rG4nIcUReukMN8iTQ2cFUE+fRq/BTE2HXgbN6Herwy53iQwnwRUiIgNAZ/C29X4qAeAKiCviaGHyVJsDMTA4xAWDnwBq8e+DXX09znvm89dhlu9RwnwgNyjA8PVmk8Cfvj3/uTf/husn/sldHURHXHMcxa6tikPSWsixCQiVhtwUIjt132lEWJRZAeXtLEwiumJSapQlFshCtbtJej20pCaGM06Yk3JtsSlbaLselym2xncLJK2X9lyvUng3iYgzaC11AD7FM4tw8lFuuQKoEbQ0p5EjJm8RpK30a88NspVLBz6Jg4+/m2o/Buc+93buwe3bh8R4MG4jwaLq3pvE/DuOX/uxJ/hxIvfwVI2QlINYawKDZuVOGNJcmJwPG+cs+oy7tspR7q3Ee6zrbuREJNNcdBiqij9w/wISpfo9jIsLLbqSNkARlfBzvq6t5tGy/gTsM92Gq4uCQQC2nskoRm8QalyWA1YMwwGTZJBYZxCuVlgYaGHSo9woe+Ahcdx5JHfQ+vwt6H00zz4uS+RwB4gwANxDwwCV4EEhMC5E/+LP/mLf4e2uYCk7KOFBGqUQjvpFRUb90ohdkxNlE+IEHPies7bviRwIyEmAxx7C0lUTPqHVXYQmjwvLXWR5QaV7SNJYhPoye1axf71aT681KQ/7ktgXGkSIIGagBEh5mI8vKgd7Csdj/XEeaQWyESduQJIhxgajcvoociexPLRf4WjD/13nP9xbyKBPUCAB+IeGASuAgm4d//UP/fcH2Fj/Wc4tORQbmyhl/SAogVls2A331gXB7MOFQ0alBdreiqx/bkHiRCro1lNk+0glKTFQOO94UIKovSDc74IzZ1brRTtjvQXczCJ1ISU9eY3+8G0Q+JU3dk2IbatUGx/4uNak8AcExAhljrJjqgwTCsU2qBCL6QqJs4hcx7LSYbR1mUgGcJ3MpyrPM6PPoGlI/8Sjz31P3L+N8f7Dzd97xDggbh3xoJrMqcE/OYv/S+//7/i3Lkf4eCBLQw3PkTqUvSyZbhBBuVDt5hg0BEbekocLKYqUojt553mRkIsuieK3q6q2DfMSJoiJE2xRLfbxvJKG1AboTh/4rR4dcuC5hTfODNOG4IIO4r4/bwHcd3nl0AUYvKbYDFMSxQmQYkuvM+QWo3MOrR9BV/2AVPCpi2soYd+8iiWj/8+jj7y33P+N7+7D7d8DxHggbiHBoOrMn8E/NbP/YfP/xneevtvkZjzyNN1KFsgc22kqgM7kgm0BEkKeFVGMSbRMWQAZGY+adY8f/T2+xbfXIhJ3qkKZ+kYFfO+gkkUsixBklr0FhxMKjb3FlUlkTFJZZQ0Vo+qqmDMtLX9/8/em8fZdVX3nr+99xnuUKNmW7IlI8s2xrNljA02Fja2MRiwwQYzPHA6YOgkj/500vBHSL+kXz7pT9MNfDovvNfpJE3c773063QCJCTpBDoDJIFMBAhgQ3DwgAfJliyppnvvGfbuz9rn3lJJSLpSnbp1p9/xp1ylqnvO2fu79jln/85aey0ZSysTglCIDfsIYvvHl4AIsYrWaCZNNCRkPQ5hI4M8UwiyKirKIFt8AbOTVchT4+BciDS+Altesg/V818OFbyK87/xHT7s+QAR4IU4QMZgU8aPwIv/8HF34Mm/xtz8k6jGLQQqgUszGFuFtiFgNZRMwHUTTkv9KJmQa1hXCDGuDxvmMXMqIdbxXgFKK6h2AVcrb7elqLcGTKC9EKtPWB+iKDXFcitCLPc/yzixkm2zvWZkeW0YhdgwDxi2nQSWCUhmRKTyPFDIQw0bKaRaCr07II1gJDdH1SFpJWi2Qpj4pZjZ+npEO26Amn4F534cSyQwIAR4MQ6IIdiM8SNgn/oD942v/BqypX9BIGt/IgNkFsgUDKRgVJHQXNYASX2YlUJMwk8Kjxgv4eEdOScm61gZNlj8XAipItxQvF7WV3AW4SUiLUWt7hBXlK8pprR8JvNhjPIZEW7HhJgfSPSIDe9gYctJ4DgCErKeLmkEUQREGTKVIEPaDjZW/n5RqwU4ckTuBbuw9ZzXorbzLVDTV/OhwbFEAgNEgBfkABmDTRkfAu7AX7kffP0P8OKBP0WAgwhNBG0N0pZFqGLEYdUX65WJtU/GIJ4yyY4nGRN9eg4JP5OkDsyCN7yj5nRCrBBOyscldtZ9ydtvC+cKoSXjIopyVKoGlUqEMJKQ1bQ9ZiSTovVrzIqtnf2DHrHhHS5sOQmsJOAi2KwKbQycnkeSLfloiSAKoUIJZAYWWylgdmB65tXYcO5roTbdxTkfRxEJDBgBXpQDZhA2Z/QJuLm/dM99/S/w7A++ijj6IQIsQqsK8kQhbTnEYYw4CpG0GkXR3nZo2nJOPJ9pT34vNaaKtPbchpFANyEm9i1EWLFOTJJ3dLxjxZoxLWIs1qjWIp9NURt5+y0hrDINk6LPK87hEXXCHjsKjck6hnHksM0k4BDCoVZkXnVH4PIU2tahghCpSdFEgIV8Ehu23Ygt574RaoYijKOGBAaRAGdwg2gVtmlkCTj3DTf3rb/AY//4p6ioQ1D6IOASBKoOZ0PkqUMUGp+mvLE0hzAKihpiTh66IrpkLi2ZslrFejEvxJbdHiPLbTQ7JiKp3bNT1PgqhFhHhMGHJBZhiiLEcsClPptiXAlQq0cIQ/GWtoWYylYIsc5xTsyeSCE2mmOLvRp1AlYp5Drw4cqRSxBBQ+UVJJlCExqtYANqW/diaturEG96J+d6oz4g2L+hJcCLc2hNx4YPGwHn/tk1n/17PP6PX8DSc9/CTC1Dmi3CSvFNMwmtIp/5zpgcyjTQai4gDGPAylcdcFER/y+himaxyKBIITZsw+CE9q4QSMt/OXZb1lr7pBsivCTMUNZ8iXes+J0k43CwNvVrxOoTsQ9TVDprizHxiInn1Feeax99pRAbcnRsPgmMMYFcZ0jDBvLMomYnUNNVuFYLTanuHJ+HaPYqVHe9Dmrj3ZznjfE4YdcHnwAv0MG3EVs4IgTc/F+4R//utzH39NcxpRtQ6aLPfpdlDkZXoVWANBNPV4IwzJDbBJK2A64jxMKCRDt5h/eMLRcCHhFI7MYxwQQgCIwXXbkVUYX2lyzEL7IihoFBmkqhZ4eJiRi1CQlPlOyKhVdM6ZxCjGOKBAaSwIlZU1eu93Vwyylxj395UkzaHKxpwsZzSFOLKNuCCDNoNTO0sklMb9mL+vm3QG17B+d4A2l7NooEjhHgRcrRQALrRODg1z7hnnrsc0gXn0ZVVRFqEVmSctwXCmuv9WonZlC5T8mxnOluhedL0nWICPPrxHxsW/8u4yKZxKm3Y6F1q4Nc9vhl919dq3ux14oQwpXhjA4IwwDOpcjyBqp1g9kNNQShQ7M1DxOIYBMPmWRa1NDKQCnxsoknrUh7z40ESKAPBOQeLtENXleFgAt8sg0fetz2ZCdpAmNCHy0hIeqqfa/3GVQxD6cPI4pj5PZcLCxtQMttw8TGK7B1540wm+gJ64NVeUoSOGsCfAqfNTLuQAJnT8A99vvun7/1ezh6+G8xUUsRqBqW5pcQBfJwHd51Or0WOmWPX3b/s7f0eu6hoJz2RZslQYd1LcQVYHIqRlQBrGsWyTusZFK03pumdUeIyfpCSQLCR8B6WoznIoFlArLG179Qc+2yEp31vseeCPKixL+a67yfk+tV3sP5FygtWMxBBXUstjZjITkHE5tfge27b4Gafi0vbA41EhgSArxYh8RQbObwEnBPf8n94JE/wv6n/g6hO4rpSVnn00BjaQGhrkB5b9dwbt0m8vSI9dKuChrGCypJWy9rw0yQ+7pi1ZpGFKv2erHUhzEW2Rdl7Ol2NkZpGx8BvbQQj00CpyIg3q9cBT50WKkWlCScd/JyJQCsPBcC/+Ikty04teRD1rXPgiov7yJYyZoYRDiyIMc5F1u2vwJT578KmNgDpS7hhc2hRwJDQoAX65AYis0cXgLP/u3H3eOPfsGLsHpQgc3mkON5xLGCy2Io2177NYRdpBDrp9EUAi0JXiT0UJK8OEAn7ULPASYmIx+aKH+T8MTiVXrhffV2kxfxy9ka+9kPnpsExo+AVRqZkmy4zpeh0OK1lktYQhBtKOXcAStF3BNAN6ED/0d/zea5QaamsJRvgDXnYOOWyzB1wSuAym4ofTnndeM3nNjjISbAC3aIjcemDz6Bhe//pnviu3+Kw/u/hZlqgIqewdLiIWTqaUxORMiSCpSNBr8jp2ghhVg/TadgfKZNEVniDXM+PFFCEqs1g6mZCkI/tKQQuIQiHp+4Q2znbH/XGPaTHs9NAv0kYLVDquVFiYG2Veg8hHEaWrKhKp+AHkpJyLFkTA1hglgqA6KZJshdhlRvxlx2ES646LWId1wG5LNQ0VWc0/XTqDw3CayCAC/aVUDjLiRwJgTckb90X//zXwWSp6BaRxBYB+Mm/MPVmed9inHtJgAKsVPiLCv0yu5/Jnbu32c0NAKfdEPS1EvmRBFiuW16AVarB6jWAh+eKGnulUz6nHjPJANj+9bPguD9Mx/PPNYErM6RmRQOAXQ2CZ1XYayBcXK9LkBLOKJueCHmdBXQVbTyCE1xkMkFHu/C1PbXobblOqC6GUrt4XxurEcUOz+sBHjhDqvl2O6BJuDm/8kdePQP8P3vfA6TcQORDWCTTApAFV4K00SWSzhK7LNlDevWa6FT9vhl9x9su0jokvYhTCLCJIumhDF5gW9EmGWYnKr4DIpBKAv8pdyBTPyKjJtFeCILgg+2jdm6USUgiTpyI95sBZ1XoPMYxoYSfQgtRdl1EzANJK6JXNaKqTqSbAZWbcbU1IWob7oSZuc+KEUv2KiOEfZrPAhQiI2HndnLdSbgnvys+7u//D8Qm2dg8gUEeUUCUOAgAqwFaIMwjHwxTlmgPaxbr4VO2eOX3X+w7aIgS7+CIPRp6CX00PkwRKkjlnrv2Mxs3QuxMHJenMl6Mf/lsnbiDkmbLSmzuZEACawrgRVZE7U1fm2YlrVhTl6uSAr7DDp2aLoULSfryaaRuXMQVfdg2zmvALZfC6UpwtbVZjwZCfSAwPDOAHsAg4ckgbUi8E+/80GXLn0bIQ4hQOrfeMrF5vRSUSfGVcQtBnjvxPCmr18rXr06TresjWWFWrf9e9Wv4rhF+voi82Env7XUlpO1YDKuMkCnmJ6poj4ReU9ZbhtekCmVt0MaKcR6ayMenQROTkDElpaMpzaDVhaBketZIc0sslzB6gC5DuHCCTRsza8Jm9l0NTaedyNQvxjKXMz5GwcXCYwAAV7II2BEdmGwCLzwlV93zz/9BTTn/xmVIIVxeTtFvQV0yxftdLZWCDGVtAszD1Yf2JrhIFAIsUKUHRNjIsoKMSbiqz4R+vViktrejzcpIuu9ZpKtTTJ20iM2HNZmK0eJgIQgRiK2EkmwI1ESuQRKSNAwnInhzCQW0xqW0mno6i5s3HY1ps65FmpiH+dtozQQ2JexJ8ALeuyHAAGsJQH33F+4v/vCr6GinoHOXkQodZv8pLgQXCLC/JowWRsmD1wtvxfvBTcSOHsC/gbuQ1tPvJXbwiumitpilapCtW4QhDIGi3VkskRMQdYn8jFw9uS5BwmUI6CdVAMLYLO8KOwcOOQqkWITyHQIazZgsbUF1ckrsWnbzYjPu58Xajnk3JsEBpIAL+yBNAsbNawEnvyz/9499/iXEOYvYrYeIm0VoWLOSEiirAerAE7CwSQs0cHplB6xYTV239vtVkgoSbwht/OV3i1Je537cMQwtpiajr0gExEmb+Dl7XuxPoyPgb6bkg0YOwJaUtXnBloKNIfKv59r5C0spQ6JqsMF52Ji+ips3X4z1KZ7eZGO3Qhhh8eFAC/ucbE0+9lzAnPf+c/u23//MCaCQ0BjDlO1GpKWvO20sKYBP222VSgX+MxYUtvJ+rU8XCPWc+OM5AlkRInQl02EmIiqlVkQna8tlqQL0Cb1Qqw2oX3BZ59ZdjztrwAAIABJREFUUZyzLOg8kiODnRp8AkpexrmKfy7YIEPiHJo2RK42Iq5fjOrkS7Fh5yuhaq/iPG3wzckWksCqCfACXzU67kgCxwi4xb92X/uTX0fr8DcwEy8hyHIo6wBlIDVzrZb6TTLzjYvsWE4m0BZOOcqwHg6kbsk0ep3Mo4dda6egb4e1ehHWCXsVMVasGRMhlmZLgGqhWleoTxqfQVFqixUhsXwE9NZGPDoJnJyACDAVRGhmDs0UyNQUVHgu6tMvxaZt18NsugwqvIwXKAcQCYw4AV7kI25gdq/3BNyhR9yzP/wsHv36Z7AxaiHKGwithc1TqEDDihiDZK3TUL5GjGTLKhxhTkmoGLdeERhpIaZkWb8IKhlIIsRk7aF8dYSYVEkoijxL2QQdJKjWlE/cIWvFrEuhxS3GjQRIYN0JWJ0ij1toZhGsPR+V6mWYmnk5KjOXQW2+hXOzdbcIT0gC/SHAi70/3HnWESLg9v+p+/L/9zEE9mlMhwqRy5AuLSEKxRuWw0LD+nT1Uh8m9zViZKH2MSHGy7BXw2GkhZgvytwObfXiS0Kd2l8dT5eSTGzWrxPL7ZJfIzY1U/FFxbOsiTASIdYJb1z5SqAzJk9MBNJ+g7D8+uBkiUJ6ZU0elwROJNAZsyfeQ8/knioRC6d6Ddb5ffH9WFIc8Tp31lV2ztE5TlFU3d/Y5bjLSXT8q7fi38WB/FeiNea1Rqo3YaJ2BbZteyXM5huggkvPpPEcCiRAAiNCgBf8iBiS3egPATf3Rffkl34LBw48gomag00aQJ4ijgJfuFktP+iP1XuSX0kuxY4QKxMeVtab1u8bQL/bX/b8/Rl1nbNKcJNfbLhicrhyoihhr1LgOYdSmQ9HlK8gBCYmK5icqiDNFpDlsn4xRxBoX+Q5z3O/dsxIDaPlkMfObLRTp6wt3jp/7y8Inn0sCZx49a58KXAmdzYpmixreNvX0DLDztpL8TjLV5GZVNb2FomW2l8S2+AkvLxzTaRFyK8SL7WFk30kEsIWn1c6RJGqVF6MtDBvN2Ch+nJMb3s5tm+/BKryyjNp9Fhamp0mgVEmwAt/lK3LvvWcQOMb/4N76ttfxOLiPOoTFSStBqxNEcch8jyB9g95B1VkRTj2dtVPnos3pCtz351tg8sKiX7fAPrd/rLnP1t7rfXnf1SItSejfmwVb+hFjCkJY9TtdPbGoT5RxcRkBOglZPmiF2LGyL4WeS4TSwUtE0c/+VxRNNqnxG8Xi/ad6fx9rXvG45FANwKnEmIrvbmnO0Zxby6E2PEesJUJlIqjHctKKrX7vIdLIhyUhjHGF2POsxayVDzPLYSBggkMkiSDDqqAriJJQ7QyCVGvoVKdBep7ML37LQhnGIbYzdL8OwmMMoF+z8NGmS37NuIE7OE/c9/98/8dzRe+670J1VqMZmPRC7EoCmBttkKIHQ/De8QKiVaKUlkhUe7spZre7n+5Y5Rtf1l+5Vpfdu8Vo+e4cKljngHxyDpXiCcRYs7JW3uLalUyKAao1OTt/BKcE29Z8VlrKcTKWob7rxeBk4Umnlm4rAgqSZwkL8kKz5hcJ+JFltcbBk5eQrTX9spvnRRC10043fTf/WYr0E6qgRl457N8uRxGW2iTAWGCTANNG6CRzyB1F6BWvxKbt7wCesMlUFNXlr2FrRdonocESKBHBHgT6BFYHna0Cbilb7inH/0iDnz7jxEkBxFXIoSBQaOxCLgcYWiQZi0EpsgRvvxWdRnL2lx6ZYXE2rRi9bbud/vLnn/1PV+LPTuhiXKs9hoUP9KOTUQlGYe8ECjCE3OfoENCo+RFQVyR9WIGDq128WcRYakPt5Ljad1O/LEcfigxteIN63jF5E3CynT5a9EnHoME1orA6e9uPnGSDx8sXokV9wLxdsk1EcAi8N/9VSZCTSfeg3xMiEldSAObKLhUI1QV1IIaAh0gzxIkeQJrLFITIQ9nYWq7UZvZi/rsdVAzd/T71rtWkHkcEiCBkgR4MygJkLuPJ4HWU//FfeOrv4u49RwitwStlZ/AZlkCoyWsC7C5hITJJXbsrW1nvcExPVZOCpTbu8zqtLWxe7/bX/b8a0NhtUc5oY7YScSYjEtrRThJYg/JlJh575eEIYYxMD0TwoRF6KKD1BeTv8tnZaRKchnxCnREnmg8CrHVWov79YJAZwpz4pXc/cqWdZNQzaLQg4u9dwuu6tdzSeihl2Yqg5PP6RSFy6sj2CT0N4VTC0UtvzyGchE0Ih/Om8MgzSto2SlE9QswufEq1LdeAczshtIXc97Vi6HAY5LAkBLgDWFIDcdm94+Am/tHt/9bv4Pvf+sL2FDX0LblJ7vOygQWMEb7kESpUXV8nSp5+1ok6Si202XtOrP+dZ9unP44/b4B9Lv9Zc9/Zlbq1ac6QqyTbKAQT8fWdElugEKIybjUBt47JmJMQhZNYDE5XdQVCyMJxxJvWOExk88XyQbaHi/vFZPxWtS/KwRZxyPW71HUK7487uAT6Hh/T1jndcpsiMd6JAJLvFuyRkzZjhATQSUvH4r1kgqpT3QjIqx4iVaUiZBizBKq2MoPIqoaaFNHKwmw1NRI7QSCeCvC6nmYnH0Z6tMXQ828FKrKbIiDP57YQhJYfwJ8gq4/c55xyAnMfevX3RPf+ixc44cIZJ7qExwUD+pAfuGsX2cThpKwo5MaXD7XudyOvcUtki2sXg6sfs/CCP2+AfS7/WXP39+hLEKsnb7eW7KdVOOE9NoyFsUzJkKsM1ZlLZgUe46rFtWaQVzRxRt+P/GUxB4i2uT4ndDDzkjpCLGVWRP7PYr6awWevV8EjoXgFi1YkTq+6z1VwSoglXHucyZ1MiRKaZHOl/Khi9pK/UdZT1Z8yc9F6b4cLbsARBqZidF0E0jUFujKHlSnrkI8cTGmdryeF0e/hgfPSwJDQoA3iSExFJs5GATc0lfcv3z5/8KB734R52+rYb6xBB1IYo7CixCaAEmSIE1TVCrV5cQHx1q/8pLrrPFZvRxY/Z4UYv4F92AMq1W24kQhdqJHTMJlC6+sjE3/kkA5Hz4rv9NGxFiG+kSIat341NsOCbRUG5cwRhnTpxRi7RcIy6JvlV3gbiSwagIr10N2XmiJt7bz88mu7vY+TgSY1PAKYL0HOG17v1JoZyGXgBdeNoC2ofeSiSDzrzokA65cH5JZNK5jLlFYyGKgsh0Tm6/EzLa9MLNXQumLOL9atW25IwmMDwHeKMbH1uxpSQLOfde98Mgf4jtf/m3sngHyxmEksgbHr6dpb76Ip2wrL61jPx/Lc1dMFmQlQpmt3N70iJXlV8Z25fddGZrYGXPHJ+2Q9NrFtsLzujxRzZG7Bmr1wIuxIBRPmIQmFnWQin06qetXHqftFVse53yMlLclj3D2BLoLMfEES128TkkGowNo7xqWWASFXBLTaED7jIlS+yv3Ok4p49dH5ilgVODT1Eukg6yv9F5jnSNHDQutjahNvRQbtlwLteFyqA2v48Vw9obkHiQw1gR40xhr87PzZ0MgmfuC+85fPQxz9DFE84dQNQotedDr9mXkZ/UrJwfHX16dSX+h1aS2WJGjq8xWbm8KsbL8ytiu/L4rk3WcMPb8IFPtpBsnnqnda59FMfHZEyU8sVJV0EERnugzI3ox1hnPK2qJ+TF7spDb8j3iEUjgzAl0F2I+UY3fNAoRViSfkbBbm+Xe89VJriSFmXOXIXMisgAr9+cwhvPJO0Lkfu2YFGaOYIIITm/ElvNuAioXAtWXQNWu5nzqzI3HT5IACbQJ8MbBoUACZ0DAue+5J775Gfzg67+LndMOyf5DmIhjtLRD7q+i4lIqPF4rv4qDFxqtmAB3/u8DyUoqgZK7c43YGdh+cD+yMn39CZ7YMxJiMnrEE5B6ETYxFSKKHXLb8AJNMn8WWzvkcXm0rAz94iNkcMfHqLesuxBbHr/+epACzAFEm4mHTGUO02EVyCwylyF1KXKTArHUX1ZAZLCQpmhmIRpJHbnbjEplN2Y3vBSbNr4UmNwNVbmKF8CoDzP2jwR6TIA3kR4D5uFHg4A7+ifur774a1CLj2JDkGAij5G3UmTBSiFWhLusrOO0UoQVoumYJ8F/UsJgSsghCrFy46ssv3JnL793kezlhNv4ivDY48snrBRW7dcGGsiyJsLYYnomRqXmYF0T1rXayT3kzcGphFj59vMIJLB6At2FmDEivBykRrnzSTYKMSZrH+X/bqmFyAQwUQhnZM2YRcPmWHI5WtBoIUZU34aJ2T2YnL0YtfpFUPH5UOYKzp1WbzjuSQIksIIAbyYcDiTQhYBb+rrb/70/wmPf/mPU9YvQjTlsndyKhaMLcKGD9Z6ulZOCTsBhMU3upKl3Pu231KEpPAoiwHxGLgqxVY/BsjewoRdibc/XydOOdEITT+zlMWqy9iXNGj5px8SUQW1CQemkSNph2vtRiK16fHLHXhLoJsT8sq5lT5hPPCNJN3QIrQJfYsRaeelgkVqFJA+QoQprZoFgC5zZio3bLkdY245o5nyo2mVlbze9hMFjkwAJDCkB3liG1HBs9voRcPs/6/7+L/9P1PRBJHNSwNmhHkyg1WhBS/1OXwy3PSloZ5Fz7QQeXnItJ0ew/rNFLSZZIyZCTBaFL8eAnXWnygqJft8A+t3+suc/a4Ot6Q6qSKW9vJ3YG8mW2LZwp67SsrdMdpK/GVibQpkWojhHtS4p7YuMilLc2e/vD9tZI7ayA8NNb01NwYP1gUA3IaaQZ1K6IYSRG7WM9Vwjz6Q0g1QG03BxFZkK4VQMbaZQqZ2LiekLUJm6GKjtgpq4tt+3yD5w5SlJgATWkwBvMutJm+caOgJu8R/ds//0e3j80T/GpskczaNHUA1jWEkuJ1NZ0xFW7bDEtofimBBzK4SY/Fxk5/LTYAqxkqlKyicbGW4p0RFiK2/jnfVbMsLaQuxUxW2d9hPTIBQPbgNOLSGuimcs8EWecyvrxDovGDrhiSdewsNNcOhuSGzwCgKnE2JFIIIvSq4CQAow2+JL/i3CLA1n8YLdjGh6FzZvOh8TG3cC1W0AJqHUJZwbcayRAAmsCwHebNYFM08yrATcC/+v+5sv/hoi+zRU6xDqYQUuszAq9LWZcpcUaY8LaXVC0o6ON6yYFBdhiR3hVggx8Wgc79U4O1LHOTjObte2GFzFTmu4S7/bX/b8a4ji7A8l40c8Vcud8AsOj0tVv7Kywo+eoPAOxHEEp1poJUcRVTLMbqghriqkaQPatB8RyyGQJz4yOnWbzr75a7JHWR3Y7yfgsLe/lBE7d80iWNsP3iKr0XJ6+eLwx+6rK1+9FB9dmfpIXobJSwX5CmDlywawLkSeB3CIEYYTmJiYxdTMJmBiO7DtWgAbAVSg1MX9Hg2laHJnEiCB4STAG89w2o2tXgcCLn/UffsLv4F08V+QLz6JSC2hqhW05DbOlJ8E5Dr1BUGP345dVp31YJ3p8bG1PMW6Mr8+rMRkTHVS55+Cx3Jo2ql4lTj3mZhACgefbuvW/m7ncJJj+jRbt/53poCnOkS3/bu2r1v/T6+Uuh1+hQg72Ue7GVcXCQxk1aKTtPUJlElQqRpMTMao1SMkSWNFgpnOuO5MjEWEddLcd29qbz5R9hHWjVFvWn3sqMPe/tXz8bKpHaYt98LiUi48rw7GCyrVTjcvP/u080WsdxEqK2NP7r/ynzPIXAiLCqyqIccEMtRRqW1DWN2M2tQ5mJg6F0F9MxBMAJKqQ3HN1+qtxz1JgATWikDZp8BatYPHIYGBI7D0xB+6r//978O2ngHSg6iatBBifv5ZrJnJdF6s+1qtECrZ665Cp+xEf8DbV7b/ZffvhqfXx+92/m5/Lwo+iydNaopJodoMUaS8CKtUAx+eeKy4c2eivFKISfHnfoqZso+wfra9w7OblU739363v1zbXVaMn2KNrWQ07IgwEWKFGJPvxRpFqeNVeL0KsaaQ5c7X9IqqE6jUZlGtb0Zc3wxV2QCEs8WXmYIKudarjKW4LwmQQO8IlH2K9a5lPDIJ9JnAU9/8nPv2N/8U2h5CoBdQMTlCJR4xiUmUyYHxhT+LScTJt7IelW4Iuk30u+3Pv48zAQtVvFXw9cQkOYekMAhCIK5ohJFCHIfLaxoLUuLB7QgxEXDyEuLULyJ6S3dlyNpqz7RyTd1qj7Ha/Ya9/avtd3sk+bDsdrIi/0JAeBSia1mAKQNtIgRhjCiqII4rCKMKwjCCVtNQklQDU4AJoGZY06ucRbg3CZBAPwhQiPWDOs85FARefOprLg4XYfQCQtOElgmrxMZIWKKVt7Nhe+JwmsuoS2haaRDdPF69Pn+3DvS6fWWPX3b/fve/2/lP+3cRIZ01iyKmMh+iqCRtfWdoe3HW8bqsSI7QWZe2nBG0VENWv3PZRX6nSmSy+had3Z7D3v6z6+3xn5a+axlobRHmxZgIMQn7NoD8O662fzYoCtu1/y5B3foazl/K8Oe+JEACA0GAN7KBMAMbMQwEnPueX1KkNBd1D4O92EYSIAESIAESIAESGGQCFGKDbB22jQRIgARIgARIgARIgARIYCQJUIiNpFnZKRIgARIgARIgARIgARIggUEmQCE2yNZh20iABEiABEiABEiABEiABEaSAIXYSJqVnSIBEiABEiABEiABEiABEhhkAhRig2wdto0ESIAESIAESIAESIAESGAkCVCIjaRZ2SkSIAESIAESIAESIAESIIFBJkAhNsjWYdtIgARIgARIgARIgARIgARGkgCF2EialZ0iARIgARIgARIgARIgARIYZAIUYoNsHbaNBEiABEiABEiABEiABEhgJAlQiI2kWdkpEiABEiABEiABEiABEiCBQSZAITbI1mHbSIAESIAESIAESIAESIAERpIAhdhImpWdIgESIAESIAESIAESIAESGGQCFGKDbB22jQRIgARIgARIgARIgARIYCQJUIiNpFnZKRIgARIgARIgARIgARIggUEmQCE2yNZh20iABEiABEiABEiABEiABEaSAIXYSJqVnSIBEiABEiABEiABEiABEhhkAhRig2wdto0ESIAESIAESIAESIAESGAkCVCIjaRZ2SkSIAESIAESIAESIAESIIFBJkAhNsjWYdtIgARIgARIgARIgARIgARGkgCF2EialZ0iARIgARIgARIgARIgARIYZAIUYoNsHbaNBEiABEiABEiABEiABEhgJAlQiI2kWdkpEiABEiABEiABEiABEiCBQSZAITbI1mHbSIAESIAESIAESIAESIAERpIAhdhImpWdIgESIAESIAESIAESIAESGGQCFGKDbB22jQRIgARIgARIgARIgARIYCQJUIiNpFnZKRIgARIgARIgARIgARIggUEmQCE2yNZh20iABEiABEiABEiABEiABEaSAIXYSJqVnSIBEiABEiABEiABEiABEhhkAhRig2wdto0ESIAESIAESIAESIAESGAkCVCIjaRZ2SkSIAESIAESIAESIAESIIFBJkAhNsjWYdtIgARIgARIgARIgARIgARGkgCF2EialZ0iARIgARIgARIgARIgARIYZAIUYoNsHbaNBEiABEiABEiABEiABEhgJAlQiI2kWdkpEiABEiABEiABEiABEiCBQSZAITbI1mHbSIAESIAESIAESIAESIAERpIAhdhImpWdIgESIAESIAESIAESIAESGGQCFGKDbB22jQRIgARIgARIgARIgARIYCQJUIiNpFnZKRIgARIgARIgARIgARIggUEmQCE2yNZh20oR+N73vueq1eopjyGDXzmAF0EpzNx5TAnkyuD887cfd/l8zTk3nwPGABpA4IDAAtcGavlz/5A7l8kf5e8W2GuO/W1MUbLbJEACJEACY0qAc9AxNfw4dPs973mP+9KXvkQhNg7GZh/XncC8mUL80puxY+9N0LNTOKqARWPQMgGCSg156hDkGoFVXnDJw8Yq578y7Xx75Vv7x3VvP0/oIBrYOQsHMQTk//671goKDqHWqMcxZiYnMStfE1PYNFvDplng3Apw3wRFNMcRCZAACZQhQCFWhh73HVgCjz/+uLv11lthraUQG1grsWHDTODFcCMOb7oKF77+bajtOAcH8wxzoUESRkBUQZYCoTUIrEYoQswBboUQc6otwgpNxm2dCfiIgPbt0YoYEwOJp1IBSou9HAKtoJ2Dzi2UfGU5AgBxEGIaKTY2X8QFG2rYvfM8vOT8jTh3E3BTSHG2zqbk6UiABIaYAIXYEBuPTT81gd/93d91H/nIR5DnOYUYBwoJ9IDA4XAWh+q78ZI3P4CJ88/DYQPMxSHmxJdiIsBqaITeKyZCTDxf4nmx2iHXgPhh+v0Acu70KlD1WVP0sn3KKTh/e1TeFv6/jhiDg1auEGEOMLmFcQ7GuuJ723Im1LBZC7bZQGRTzMYBLtgyiz3bNmHnhkns3R3jxn5D7MHY5yFJgARIYK0I9Ps5uFb94HFI4DgCH/nIR9zDDz+Mzhqxkw709vowXgQcPCRw9gQWzAT2uxnsesN90HteirnJKaRTUziapoBSUGEFSCQs0SDMi1A3q3Mfmijyx7VFTjmHWMm9Swux3t49uguxs7dbZw+xiHKFC8w658WYD070XRKRXHx5IQYg0hqB7GMtXG6RWKAZhnDGIICDyRKYpIE4TzCpLCZVjnqe4JJzt+C6i3bj8p0xXhX1WdmuHhf3JAESIIGeEOjtU6QnTeZBSaA7gauvusodOXwEnZexpxroMtEot5W9hPp9/nK9597jSyBDiEUbIrr8eky++T14PJqGq04jk0k5EmilkKcBtA0Q5QpO5WiFLe91CfIA2mlY1V6XtCqMnWun7DW0qpMXMXx+K3sPWO35y/ZfpFjR/uJI7eO1hVjnVz6EUUTZisRGRZgpkMsaM6+tin3l98aJ98witDmmohDZ3BEEjQbOnZrA5RfsxNWXbMKF24Db6ClbreG5HwmQwAgR6NcTZIQQsiuDRuA73/mOe8s99yJJkuOmSScf7O23wKvqRDFFKbf1+/zlWs+9x5eAhLbZzCJ5yeUw930Qz27chTyY9OsyI930nhNrK16IiUfM6gzNqAGnLKI0giktxNoz/36aQNRIPzdRPn3bRJwV57dKwSq97EeT+6KENebNBiajEHWloJsN/zUdR9i5bSsu2Bzh3us3YB8FWd8syBOTAAn0n0CfnyL9B8AWjB6BT33qU+5//p8+hiAI/KTw9O+t+y2E+n3+0bM/e7Q+BIo1Rg6HNp6H4C3vR3LRXjRQRZLnqAY5sjSBUrVCiFmZrIsQa3ohFqfRGnjEKMS8C6pPm4iwY760QojJ3dZJpo/2JiGLsdaIxWPWaiBfXIDOE9TDEPWKhETO4eUX7cTbr9+N160ocdCnLvG0JEACJLDuBCjE1h05T9hrAm9/+9vd33zlq9C6mBBQiPWaOI8/jgSKvA4aT0UzwF3vwtQNd2AeVTTSHNVYIWm2YHQVyknmRMndkfnQRAlji7IQ2pl2aGIJMdFHIeJtPsYeMRFi4vUqMPjVZIVnrJ16UVYCBkYjS5qQFJqxUZiohIi0Qt5q+PGRWYvNlQjTjcO4assk3vmaa7FvmuvIxvF+wj6TwLgSoBAbV8uPcL+vuuoqtzi/gDRNvRijEBthY7NrfSMgGig0IR7LIySvuhvn3Xkf5oMpLGQOlThA0hKPWOH5kgm7VTmSsAgXDr0QK9aIlVkl1k+PEIVYkUGxsGDhCZPvIsSKf0safAWlJITRwrkczqVQyP2/Y2uwJd6IIwcPIqwD1TiFXXoe1+7civuuvxJvm6Qg69vFzROTAAmsGwEKsXVDzROtB4GvfvWr7oEHHkAlitFsNinE1gM6zzGeBBwQmRCP5yEal16PHW98F5qT27DgAgRhhCyT3OimneTBeiGWBpn3UYsQk4x9Pl16mYQ59Ij1bex1PGJFqo7CI1ak9RC7FkGLKjBQEpmgLDKbIs1FiOfQgUYNEdzBJiYnJjGHFhKdolIB9MJh7AosXr1rO+65YhdeM0VB1jcj88QkQAI9J0Ah1nPEPMF6Evj4xz/ufuVXfgXiB/PrwySNdrsBTNaxnpbguUaegAMCY/AcYhzduhvb3/wu5NsuxIKuI1c+oTlkHZlUDIPKfer6TIt3RMO0sybKejEKsRIjpZ9CtL1GrHBqyv/b1aD9d/GKAUmeIbdiYwtfCTrUgBFXmcSqWtSVwdLcEuLKJKq1KTRaGeBSVIME8dIhXFSzuO/lV+CndlU5VykxTLgrCZDA4BLgzW1wbcOWrYLAgw8+6P76r/8ajcUlRFEEqcNDIbYKkNyFBLoRkDViSuGQiXFoYgt2vOmdULuuwNFgComLAS3hh5LzXERYCqvEKyZXo/FCzIs0CrFulE//934KsRWeTJ/avl2TrPherM/NrYMOjf/KIbXHUuQ2K/4sX3kLURgDiUEqywcRAVrDiXdMJ5iyC6gvPI9XnrcZ77j5KtxF71i58cK9SYAEBo4AhdjAmYQNKkPg8ssvdwcOHMDG2Q1otfyTnUKsDFDuSwKnIuAAm2doVCewv74RtStuwHm33ovn8hpQ2Yhm4hBoC6cy5CbxQqzwkhW1xY4JMfGYrHLrqxAZ72QdRVHuoji3dlIcWlLWF0Wi5Xvnztv5nKwH9MW829+9MNeFR7SoP6ZgcuPLGhRizkEHotdaUK3D2B7neNPle/BLl2/mvGWVlwt3IwESGDwCvKENnk3YolUSeOSRR9wb3vAGH5Jo2imU6RFbJUzuRgJdCTi4PEcrruJgNAG150q85O534xknhZ23IbGSUzGFUy1kgQgxmXAHUF6Ehe0XJO2wta7nOsUHKMRWS670fiKw8vYMwgcmihCzhRjrCDMJDF8p2ESEiXTzxaC1RRIUHlNtLQLrEFlAWw24AJkK0NQKzjgEQY5p18T2bAl7Zydxz+UX4Q07uHastBF5ABJ+q9taAAAgAElEQVQggb4ToBDruwnYgLUi8Ju/+Zvuwx/+MDZt2oT5o3MMTVwrsDwOCZyUQCHE8jjGER1hfvNOXPrOn8AzZjPy6g6kkIyJDTjdRBK2vBDTNoKykqgjoBBbi1HVRyG6LMQkwtR7wtpiTLxbViSYV13Hlbz3ORbbmTJT49AI5QNSV84izq3PwujXlhmF1GhYEyJPMtSUxoQD3OEXUUlbuHLPS3DblefivzmfYmwthhGPQQIk0D8CFGL9Y88zrzGBD3zgA+4zn/kMtmzZgsOHXkSlUuEasTVmzMORwDECDk7W+4QhlrTBc/EsXvbgT+OFiV1IqjuRIIJxi7C6gVbU9ELM5BUvxuCMn5FLKnOfyGG1Wx+FiG/yGNcRE8FUlB8o1FUhxAqr+u8dEdb+vrJSgfwsQmwpzH14YzVViHIJTyzCHRPjfGIXF2jkaYYgd4gRIPYeVcA5hZlsHg/s3Yk3XD2Dl0tWJm4kQAIkMIQEePMaQqOxyScncPPNN7snnngCcRz7YqG+hhizJnK4kECPCIgQS32K8txo/FBPYNcDP4nG9quxFO1Ey4UIsIg8WEIzavhJe5BVofPYJ+wottxXnlr1RiG2anRldywqiJ18CtExi18p1hFiJ3zPtZQzSL31RZwbG/gkLiLGFDKfsKPplqAqCrkBklQ8ZhVUzSSCNEawcATnRXO4btcG3HvLLtxpKMbK2pT7kwAJrD8BCrH1Z84z9oDAk08+6e644w4kSYI8zxGaAFmWsY5YD1jzkCRQEBD3RVYU7DUKzwSTqNz2NtSufh0WowuwlBlEehE2WMRSW4iFaR3Gxj5pR7FlFGJlhlM/hWjb+3UsKYcU7S60WRFgWIyRjhjreMl8PkVfZKxI5CI1xyxCwIU+iYusLzNOPKWS5CVFHuTIQ1mPppAnDkgDVHUN00GI/OgBTOXzuH73Ntxz40twH4tAlxlN3JcESKAPBCjE+gCdp1x7Ap///Ofdhz70IS++ZKvGFZ810XvF2qdjHbG1584jjjMBBy2TaZvCKIv98TSOXLYP593xXixV92Ah1YhFiJkFLFUWfer6KJmAphBbu0HTRyFWhCJKYo0iQlNCCnNViDGfb6MtxiRdR8crJmJsWZBJHTopMeeTfig/PjKlYZUpikJDIwxC2EzEeo5Q6pChhTRbgnMJtAphMINKmqJy9Ie4/rxpPHjr1bh7mp6xtRtgPBIJkECvCVCI9Zowj78uBD75iU+4T33qU1hYWECtVkMURmg1m16IyXbqge5zeq2yjcdSNK/yACXO3TkjL+HVs+ee5QhYhIFCmjS9V+twdRYHz7kcF93/kzg8dRGOZAGqaMGaIjRRJukmr3qPmM+c6JdYyYsThiau2g59FWJFdsSVQkzWAUomRRFjxfK5FXUcl9eQFeGKEoIY5pKqXoSb9ftluiPGpCB4ACQOcRQjsBZpax5KNxFVABVlSDIgSeqomhi1fBHR0f142UyAd++7Hu8+N+SNcdWDijuSAAmsJwHerNaTNs/VMwIP3P8299WvftUfX9aINZtN/13CFE8/yPstxHqGhAcmgZ4SEPHl8sR7QmwQYimcwQvxubj0LQ9i/tKX45nUoJIZaMhaoCYykyNXGtqGqKSxT3WeGQlNkzA0bicjIOU3Tre1q3SsHl7JZCM+M2J766SlL+TXCW+/2t1YeS/uJPdY3r8j4HzK++IlVyfzYvE6zXrPmPNFwHMf2mg0kORAFtYRigdt7ij2hBbv3bsHH7q0yvnN6kcG9yQBElgnArxRrRNonqa3BG5/za3ue9/7HowxPm29hCXKz903CrHujPgJEvhRAspZaFnHA4fURFgyk1g0m3Hh3W/HkWtegR/aGHVbh9TszU3Liy6pG6WtQa1V8YV7U5PBUoidcngNuhDr63Uh68vsAlKR+pWNgKoC80vYkC7ilm0VvHbXDD54+SznOH01Ek9OAiTQjQBvUt0I8e8DT+CRf/qWe9vb3ubDEiVLoggxSdohk5juYoxCbOANzAYOJAERYkblPgF9Sxk0zATm1QbsuPVNaN54C55BDXVM+vC1ZSFmHLQzqCXiEdNenFnv4eB2MgIUYqceF+IZy10LSrysqooQIVwrQZDMY5NewvawgffeuhcP7pjkPIeXFwmQwMAS4A1qYE3Dhp0pgT/6/c+7hx56CNVqFdZaL8YkJFG2zhqx0zzOS6zTWos1YmfaS36OBAaLQCHErPeINbVBQ9Ww4Gaw8YbXwtx2F/YHU4jdRFEtTCdedEntKPGISWiioRDralAKsdMJMamCoH0R6DDJYXK59wNK57CuiSg9goumDH7q7pvw1ioTeHQdbPwACZBAXwhQiPUFO0+6lgT+149/wn3sYx/D9PQ00jQt1oUp5b1hIsxOv9Ejtpa24LHGh4Bykk7BIlMWTa3R1DUsuWlUXnY9pt54Pw5WN0LnNZ/9znvEdI6sLcRiv0as8IgVa364nYwAhdjpXqFpWGcQOYdKsghkTVijoOoVLEptu3QJ9eZRXLe5jg/ecAXu3cQEHrzKSIAEBo8Ahdjg2YQtOksCH/jx97k/+ZM/QaVS8cJLwhI7IYqddPane5z3N2viWXaWHyeBASEgQkzb3KcqbwUKLV1FI59EvvNl2Hb/v8KLE1vhXB0WBplJIAV8c12EJkZpDCUhi7qTfGFAOjVgzaAQO51BDFwWoKI14nweNl9EqoGsEmMhrAJZjhgpaoeewT0XnYP33XIpbgjpGRuwIc7mkMDYE6AQG/shMPwA9t10s3v66aeLQs5h6GuJyc+drIn0iA2/jdmDwSNQCDFJO+7QihQyXUEzqWF+407sevf78OL0OXBmBpkKkOkMVkLGlPVCLMgjKKf971yZ9PWDh2VNW0QhdmqcnXEU+PSLS8hVC4m2SHWIFFVfzMw4i1nbwMbG87j1wq34sVdfhL2aYmxNBykPRgIkUIoAhVgpfNx5EAi8dM9FToTX4uIiJicnvQgTr5gk7eg2kSm8Yf2sIzYIBNkGEjh7An7+m1tYA7Qih1RFSBoVHJ7cht3veQiHZrYDlU1IdITciAiTdZtS3LdIYQ8p2uvDEhmaeCr63e5f/U5ff/ajZu32kGLSQSrFny0S0/RiPzcKThkoV5Vk9nCpxVQIqPn9OFcv4v69F+HfXLWN8561MwOPRAIkUJIAb0glAXL3/hL4yl/+lXvXO9/pGyFrwiQkUUSYJO5YWlryHrLTbxRi/bUgzz6sBESIqdTCBUBa0zi62MREuBlHJ7ahfsebEFx8DZaCGTR1jMxYL7rEi1bUhgqLir9eiK32RciwklvDdpct6Fyyjtga9uSsDyXZOAMrxaMVGoFD3q5WIkjCTLxhBjI4nc1Rq2jg6HM4X8/hA7ffgA/srHDuc9bEuQMJkEAvCPBm1AuqPOa6Efid//u33c/89E8vZ0cMgsCHJnZS2DNr4rqZgicaMwIyEdaZ1AizSOvAQqOFCTWLw/EmxPvuwsTVr8JcNIuGqSDTzhd+1k7EmBTsDXwSj6JIL4XYqofOGAsxYaYhobEKLRNIukSv6Y11iPMc4jEDIqQWcLKOzC5hU/YirtpkcN/e3XjHjinOf1Y98LgjCZDAWhHgjWitSPI4fSHwb3/+F9xv/PqvQwSYZEyUhB2drIniHWPWxL6YhScdAwLaKoROI0GGZMIiyXLU0gkcVJNQN96GLTe/DkeiDVgMqki1eL8cjM2LdPZKhJj8JKGKFGKrHi5jLMSsEi9Y5gW9c5L8JfDFww1yBC7xnlanYpigimbToaYdZtw87KHH8MpLNuBnXncd9spDghsJkAAJ9JEAb0J9hM9TlyfwwP1vc1/9yld8Yg4JRazVal58iVdMwhIpxMoz5hFI4GQECiFm0LItNCeLdV61RowXbA3NK2/EBa9/Gw5VNmEhqHkhJh6xsF1OIlOytkd5nxiFWInxNcZCTDJw+vIHUDC51KULYCRcVkqMq5bIMKRWo16bQWvJIchzTAUZ0rmnsXUmw91XX4j/8dJzOAcqMfy4KwmQQHkCvAmVZ8gj9JHAK19xg3vu2We9EJNkHeIRkwXurVbL/67bYncm6+ij8XjqoSYgQizINJquhdZkBmM06kshDuV1HNx9BV52/4M4WN2CubCOxIjkcohyEWwKqZGgMgUtCT/oEVv9OBh3ISYuMAlAzA2MVeJ09Z5XqVlnFZCmFoGOENoQKs0RIkNoMgRRis3Zi/g3d78Kb91gOA9a/QjkniRAAiUJ8AZUEiB37y+BSy++xLWaTb8mTMSXrAnrJOzonqhD2s5kHf21IM8+rAREiJlUIVEpluoJRGtNLgaY19N4eutuvOwd78eL09txNKoj1d73hdgLMaAlQkzJeh4RYsNKYADaPcZCTMaPhCdKeKt4WmUcyVCS32daxpeCMQGSxQZqQYzYBFhaWIQJQoS1CqKjP8Rd24GH33AD50EDMJTZBBIYVwK8AY2r5Ueg33/3t3/rHnjb22HzfDlVvawP6yTsOLPwfwqxERgK7EIfCGirvUcs1RkWaw3A5ZheDNCMNuHxyW3Y8473Y2HrbhyNJo4JscyKHqMQWyt7jbEQk4EkCTkkFFFJKKLKkHtxFsAigoNBHIZImouIjUNgDBqNDFBVmHAWE8lBnN/4Bt5x08vw0y+7hHOhtRqTPA4JkMBZEeDN56xw8cODRODzv//77l//5E/BWevXg0n6+pX1w2R9GEMTB8libMsoEVB+jViAXOdYjJpwNkOtYZBXN+EHpo5LRIiddwVejKfaQgwIbeG2SKXek2S986GJo0RlnfsyxkJMUr0YW2TedLrp69TJPy2MT94hORXhLKJQw2ZLft1wENSgdA1JWkUlO4pz3A9wXjiPn37Xm/CGM3tzt84G5ulIgARGnQCF2KhbeIT798lPfML9yi//O3nBXmKjR6wEPO467gREVykgl/8sEId1HE0sGpOT2HbT6+Fe/iYcqGxAop0PGVNWctz5SmLLYcGnu367v0gpaYAudbS6zc2lmPBQb8PcfymfsFzROvfJYApNLyK/CIWFX38o4YuFneQnOEkUI4k9cszWgOT5x3D3VRfg0zfsLvcoGeqBwMaTAAn0iwBvPP0iz/OWJvCRD3/Y/c5v/z8UYqVJ8gAkcPYE/BS37ZFRTiOXZAlRFfNphrwSYssNt8O98gE8W9mMxFjk4qCQOk/ek+GTjvv/TncBU4idvV3Oao9hFmJeaongOvV2uvHjlEaaO0zrFnbgefzsW27G26tMZ39W44cfJgESKE2AQqw0Qh6gXwTue+tb3T/+w9coxPplAJ53rAl474OEglnJTBciywGEMRazHGlkMHX1zYhv/TE8W92M1LhCiLUzJVKIDcjQGWshppBkFhtih8rRx3H77i349G1XcU40IEOTzSCBcSHAm864WHoE+3njDTe4A8/tpxAbQduyS4NPwHvERIhJspwg9qGJVodoWIumBoKL92LDm34Kz1XFI+ZgtYZTRYpxCrEBse84CzEJkTUBqipBuPgstrVexMfe8ybcWadXbEBGJ5tBAmNBgEJsLMw8mp182aWXuuZSg0JsNM3LXg04Ae8RMwppmqIaxshzIFcBWgAa2iE571Jsv/+/w3O1LUgDBesTdMj6MAWdSxWxdljiaZ5CDE3s8SAYcyEmobK1SKF15FnsiFLcuGkCD9+9l/OiHg87Hp4ESOAYAd5wOBqGksCjjz7q3vTGNyJPMwqxobQgGz3sBDpCTOr31eMqbA5kTiEPAizB4uimC3DBv/pZ7K9tRRYq5L62k6TqAHRe1H/y/6AQ699QGGMh1hl4eZagVlGoJXPY0jiIjz5wJ+6bolesf4OSZyaB8SJAITZe9h6Z3n7hC19w//UHPwjn36yX2Zg1sQw97ju+BOTKUYFGo9FoCzFXrBOLYzSQ4/nJc3HRf/UL2C8esVDBBgZOBz5hhwgxSS2utKRSPDVDesR6PL7GXIhprbHUXMLUhlnk8y9gq53HTdun8PBtl5d7rPTYbDw8CZDA6BDgzWZ0bDlWPfmt3/ot99Gf/Vm/3qTcIKYQG6uBw86uGYGOEFtaWkI9rkg9Z6SZg6lW0FQWz1W34pIf/wU8V9+GLBJPmYFtCzHlhZiDphBbM3us6kBjLcSAPM8RVqpYmp/H9JZZJM9+H3uiJv6XB1+L27vVLlgVcO5EAiRAAscTKDeHJU0S6BOBT37yk+7f/fIvU4j1iT9PSwIixKxPX+8QSOp6CTZ0BrlWPkvis5Ut2Hbff4t012XeQ2bqNRxZaCCMYoTGwGY5lstAnQJnWY9Yt7m061IGrNv+/gZ0mq1b+7sdv+z+3UZp2f6XraNWuv9d0td363+eZwhrdSxJbbHmIiaCBNvyI7jjvBo+9eorOT/qBpB/JwESKE2AN5rSCHmAfhD46Ec/6v7zf/pPK4rDrrYV9Iitlhz3G28CcuXk2kE5EWKAdrLqy8AqEWIWz1a3YNM9H4LbfRWW2kLs6FITQRjDSAZFCSs+fRkodBMi3SzQdaJPIXZahF35lSxo3fX4viDzqbdudcROK5J9vecczoRIVEXSf6JiUlTnn8VNW0N8+PV78apuDew2APl3EiABEuhCgEKMQ2QoCbz3ve91f/Hnfw7TXvy/+k5QiK2eHfccZwKiYewKIWa8EJOEHECmnRdik3d9ANGl16OhLVCpYL6VwIQxtKIQk7HTbZ7fTYh227/b+Bxnj5gUI3eS3VPCZFUNQRAi0DmyF57AJbUE7993HX7q/BrnSN0GEf9OAiRQigBvMqXwced+Ebj99tvdY9//PkMT+2UAnnfsCSwLMTiEeeERU055ISahic9VNiPY9x5MX7sPDSnoHIVYyiyCqAJrHWAdPWJdkvNRiPXOIyZhtdZYZDImUYVWIUyokR49gA3ZYdx50bl4+DV7OEca+zsdAZBAbwnwJtNbvjx6jwhcd9117sjhw8U6k1LnoEesFD7uPLYEjhdiDuIRU67jEZNkHZuRXn8/tt30OjQDhSQwaOQKQVxBluU+rLjsGqtu8Lt5jMp6hMq2v2v7uoXmlcyyXrb/w7xGzGqL1GRQFoizGDYFgmoN2iXA3H5cVHX4xbdfhzujkpC7DVL+nQRIYKwJlJvDjjU6dr6fBC6//HLXbDQoxPppBJ57rAn8qBATXaWlOhgyY71HbOHKu7HztfeiFWo0lEJLGQSVGpJWAkkd7muJnWbr5hHqZoCuQodrxE6LsCu/IV4jlmuLxCQIoTGRxUgWM+hKHXE1RnPuBWxIjuBf37oXP7Mn4Dyp24XGv5MACayaAG8wq0bHHftF4Mknn3R33nknRIjJVK7cIKZHrF925HmHm8DJhVghrUSI7a9swfzFt2PX3Q+gFWkswiE1IYK4hkajhcAYn3HxdNcvhViX0LySzppx9oiJEEvDDCa32JhXkC3myIIqTLWKpcY8ZvN57NsS4bfeeHG5R8xwX+ZsPQmQQI8J8AbTY8A8/NoT+M53vuPe8pa3YHFhAVEQUoitPWIekQS6ErBw7WQdQGgBY0WEKUhpKsmm+EK8AUd334SL3vwuzFcrOCp/N7Gv29RoLCEIpLgzhVgZj2A3j1U3I46zEJPQRBvmcEmGjWoKruXQcjlybZCIOIscNi/txyfe9wrcVhZ0N0Pw7yRAAmNLgEJsbE0/vB3/yle+4u6//35U4rhIgV2qK/SIlcLHnceWQCHErF8mFWeBD0vMDJCrQpAdDSdxeNtFuOaB9+GHtVkcDepwLvKp661rQvkaXAZeuXEjgfUmIIvDkEK5ADqf9GUYtJ6DUzksKtDOoa5a+LEbLsUvXVjS9bjefeP5SIAEhoYAn4BDYyo2tEPgz/7sz9y73/1uL8R85rVSaCjESuHjzmNLQLLO5TqHtgqVLAScQdIWYoDGQlDD/ObzcfU73ocfTG7D4WAKylZgtBR+XoTSIuUCCrGxHUH97biChUHmXw7kblqq4iHQB6GQwLp6uyZeivsu3YX/eE2l3GOmv13l2UmABAaYAG8uA2wcNu3kBD73uc+5n/iJn6AQ4wAhgT4SWBZiTiFOQ+8RS4zyHrGOEDuyYTuueef78PjUuTgSTnshpv1TZ4lCrI+246nhE8VoL8RC5G6qLcQOQSNFjqoXYknWxM2b6/jz11/AuRIHDQmQQE8I8ObSE6w8aC8JfPrTn3Yf/ehHUa1UGJrYS9A8NgmchsDxQkxCE8UjVggx5T1iVbwwtRXXvfshPDGzA0ejWSCPoL1QW4I2DtZKwg4+hjjQ1p9AEUCbw7kAOSa9EAv1iz5c0bpCiKVZC3uwhE/fuxc3TDE8cf2txDOSwOgT4BNw9G08cj38xCc+4T75yU96jxjriI2cedmhISFwMiGWtkMTxTs2H1bxQm0jrn3PB/HDDefjaLwByOO27Gq0hZimEBsSe49eM0WIFeGxOWpelBl1BAqZXyMmv3cux6a5A/j4Hdfhgd0MTxy9McAekUD/CVCI9d8GbMFZEvi5n/s59/DDD3shlqdZyffpXCN2lvj5cRLwBH5UiGmIELPiOHDFGrHnK9O45r0/gWc27fJCzLWFmEMhxJylEONw6ieBjhCLoZQIsTkvyKyLvRAzxmDq8LP4wMvOwS/czPDEflqK5yaBUSVAITaqlh3hfn3oQx9yn/nMZ3xoIoXYCBuaXRtoAoUQs9B+jVjgvxcesaKwswixA8EErnnwJ/HM5gtwtLrJhybK5lQTUkbMWhFtfAwNtKFHvHFOaQlKLNaIqUX/3SLyQizQIabmX8C+iRb+ywM3cqCO+Fhg90igHwR4Y+kHdZ6zFIGHHnrI/eEf/qEXYgxNLIWSO5PAqgmIEMvaQqyayhoxhVRLSvuOEKtiv5nANT/2U3hm80swX9sEm60UYgpWMohTiK3aBtyxDIGi+LgXYkoXoYlo+HBFi7DwiKkQU82juLD5LL7ywTs4XyqDm/uSAAmclABvLBwYQ0fgvvvuc1/72tdgcwklkQdomY2hiWXocd/xJXCiEJM09qmxECeXpOsQj9j+2kbset1bkV/xSux3NcDGCMOoqCMm6etFhJ1GiEnB59NtZevs9vr4ZUfHuLevl/0vCp9oH0orY1mpDMalXojlStaHiZc3QK05h/Oz5/Fv3rEP904wYUfZMc39SYAEjidQbg5LmiTQBwL33HOP++Y3v0kh1gf2PCUJdAjI5FU8YMYpVFPj64kVQkymuAqLbSG28863FEIMdcBWvBDL0S7o7IXYqZn2ciIuZ+318cuOlnFvXy/7L8nrpaC4DMFcZV6IBS6XUeE9ZHAhtIsRteaxOT2AD99zMx7aTCFWdkxzfxIgAQoxjoEhJ3DXXXe5Rx99VGZREH9YubcJ9IgN+XBg8/tE4Dghlpj2GjELJ0LMAYtBFc/VNuD8O98Cd+VNeA51KFeDCaRuUwNa5rpO+c+eauvlRJxCrPzAGW77aO/1kvFqTasITbTFSwRZ5+gQIpDx2lpAPT+A991yOf7thVPlHjflkfMIJEACI0aAN5URM+g4dGffvn3uiSeeoBAbB2OzjwNLQEIQlz1iifZCLGt7xLQXYhU8V92A8+68F/bKm/C8ngJcDUobWEiyjmKNGIVY/4Ro2cE13ELMeK+XUxbWyNqwDMZqv9Yx184Xeg5sDUgbiNxB3HvlOfiNa3dwzlR20HB/EiCB4wjwpsIBMXQErr/+evf88897T5hM4soNYnrEhm4AsMEDQeBHhRi8EBMPgwgxKej8bGUG591xjxdiB4NZQMITJTmCayAINIVYF0v2WuiUHUi9bl9vjy9pOyNA5bBmEVAZwjz0axa9EEMAnVagXAZjjuLVOyJ8ft/F5R43ZYFzfxIggZEjwJvKyJl09Dt0xRVXuLm5ORiJbfKhJGU2CrEy9Ljv+BI4UYgZB79GTDwMhUesimfiGey4vRBih+ONcKjBykTXNRCGhkKMQuy0BHorxAIoG8F5ITZfrBHLIihonw0ULoASISZv+6J5XF5bwN+8aW+5x8343i7YcxIggVMQ4E2FQ2PoCFx88cWu1WpRiA2d5djgUSJweiHmloXY9tveDFz9arwYbwRUHbkFMruEKAooxCjE+ifERGhJ4WaVwRkp5JwhyCNfA088uyLEkFShjEIezeP8/Fn88ztv4ZxplG5i7AsJDAAB3lQGwAhswtkR2L17t8sldX1pj1gnS8DpU2SfunU+OPLsGs9Pk8CIEJASYFZLYg6FKJcwYUkDLpFdkkQnx5Kp4EA4i3NvezPSa27Bi9WN0KrqxVeaNxDHEfLcco3YacZDbz1C5Qdir9vX2+MbKBu0QxMb0C5HIP8WIeZDEw10FkuGe2RBA5vnf4Cn3387b/jlhw2PQAIksIIAbyocDkNHYNeuXU7qBzlrYdRaZE1cLYK1EGKrFYGdNvMSXq31uN8aEHDKCy8J7/IzViceBanJlKClI7yop7Hlljeicf0dODSxGSpzCLSGPa4+WNlrYA36wUOMHYFijXEx9qSWmPw7sPJvhUzGqPzGOgRGw2iFHckB/Opb9+KmOlPYj91gYYdJoIcEOIvrIVweujcEflSI9Wsit1ZCbLXtX4vz98ZGPOroE/CJctpCLDUpnBRXz6s+/bdSTSQ6xJybwuZb3oSFG16HQ5OboLMcgdJw4k6Tlym+iNhqx//oM2YPe0dARp9GBlllbBH7sRw4+TeQqcB7d4EUoTYwzuC81gv492+9Bq+eohDrnVV4ZBIYPwIUYuNn86HvMYXYSm8YL+GhH9BD2gEKsSE1HJvdJlAIMfGA/YgQ0x0hlsFA+bT221sH8L/ddy32TQe86XIMkQAJrBkB3lDWDCUPtF4EKMQoxNZrrPE8pyZAIcbRMdwEJIQ282vCLCRbokJgRZhJfbxCiEkCD60UdA5sb+zHf7jvWtw2G3PeNNyGZ+tJYKAI8IYyUOZgY86EAIUYhdiZjBN+prcEKMR6y5dH7zEBX0lc1jaKR0zWNq4ITYEZ2K4AACAASURBVJSi416I5d4jhswtC7HbN1Q4b+qxaXh4EhgnAryhjJO1R6SvFGIUYiMylIe6GxRiQ20+Nl6SzHghJh6x8JgQE92ljNR19kLNyCes8kLs37/1atw+W+W8iaOHBEhgzQjwhrJmKHmg9SJAIUYhtl5jjec5NQEKMY6OYSYg2T6hcp+yw7oQWtaCuU5oovGJZAqPGGCcXhZir52hEBtmu7PtJDBoBCjEBs0ibE9XAhRiFGJdBwk/0HMCFGI9R8wT9JDAcUJspUdMsibqjhDLEIhHzGnsaB7Af3jr1bh1mkKsh2bhoUlg7AhQiI2dyYe/wzt27HBBEPi6L9pH+Pcr/fVapI8vk757Lc4//OOBPegPgTMRYvOYxpZ9b/bp65+vzfr09ZGRornK1xJj+vr+2I5nLQqPL3vEVggxYVOEJjrApRBJJqGJu7JD+LW3XYdX1Zg1keOHBEhg7QhQiK0dSx5pnQjs3LnTF3SmEKMQW6chx9OchMCZCrGtr7kH86+4k0KMo2igCJwuNDFXGlYV6e0DKRuWWuxMD+I/vvdG7DWsIzZQhmRjSGDICVCIDbkBx7H5e/bscUmSwGgN5SSOnx6xcRwH7HN/CZyNEBOP2IHqDD1i/TUZz76CwEoh5tyxZB3eI6a194iJEAu1hm1l2JW+gEd+/CbOmTiKSIAE1pQAbypripMHWw8Cl112mZufn0dgDGAthdh6QOc5SOAEAmcixBbUDE70iIXaMDSRo6nvBLwQg4UTB9eJQkwpL8SUyxAHBnkjwYU4im8+eAPnTH23HBtAAqNFgDeV0bLnWPRm79697vnnn0cUhnB5TiE2FlZnJweNwJkIsUU9uyzEOh4xCrFBs+SYtsenr7d+pbFzgc+a2CnonGuJs3BwLkEcBMgWW7hmyuKv7r+Cc6YxHS7sNgn0igBvKr0iy+P2jMArX/lK99RTTyGOIgoxv1KOGwmsP4EzEWJLZsNysg4RYiqVUK/CI5ZbK5l2gL6FFq8/M55xwAgoEWIKEpqoHRC009fnbY+YswkqgUG6lOD2l2zAZ19zLm+4A2ZCNocEhp0AbyrDbsExbP++ffvcY489hkocw2YZPWJjOAbY5f4TOFMh1glNpBDrv83YghMJFEIMPmsiENqijlgmHrH2GrHIaB+a+MB1e/Crl0ecM3EQkQAJrCkB3lTWFCcPth4EbrvtNvfd734X1UqFQowesfUYcjzHyQhI9m//GsQh1xmc0tC2SHqgVIKmjnG0sglb970ZjZffjhfiWegkR2iMz0iX5Rkk+yk3EugHARm5StaIQSNVUtAZiPMM2jlI1kQZ3QEcYnHgtubx46+5Ar+0iwO2H7biOUlglAnwKTjK1h3Rvt11113ukUcegZYU9syaOKJWZrcGnsDKZKU+8UHxC5nISpjXQlDH09EMLn3HQ3h268VIp7bDtGQ9jkUepci1hXKS+fTUjyHnTp8R1c+XS2xOHCKn2fotFHvdfwkRLbMVa6xOvZXl17X/Xj6tbtNwMDb33q+lMPYHmUwShLkIMQPlQoRpgCqaQPZD/MKP3YQHIwqx1dHmXiRAAqciUO4uTK4k0AcC9957r/v617/uhRizJvIS7sMQ5ClXEvCeMdnkB/EoAMZqHA0n8ExtA/Y88BBe2LwH2cR2BC0pj+uQRA1YnUO5gELsNKOpqxBZvQ4pzjrmQkySc6RaYykqhNhEq4XIC7EA2kaI0xhVt4iqexy/+P5bcG9ZZck7BwmQAAmcQICzOA6JoSPwnve8x335y1/2dcSYNZGX8NAN4FFrsHdayTjsCDHxNGjMiRCrb8KedzyEFzbtQVY/B7ppoBSF2JkOAQqxLh7REh4xCU3UTjxiGs0g9MO3nqXLHjEJsw3zEPV8AdvjF/CL734FXkMhdqZDl58jARI4QwKcxZ0hKH5scAh86EMfcr/3e7/n64hRiPESHpyROcYtEc+KD0+U5DlA0PaIPVvfjIvf+QE8v3kPkupWmIaG1vAesQwptE+SwNDEU40cCrHeCbHixYGFVcqvERNhJmvEjJOASwlNNDC5xmQyh+u2OHz2zZfxZjvGtzh2nQR6RYA3ll6R5XF7RuDnf/7n3ac//WkWdPZTXl7CPRto/z97bwImyXHWef8j8qqr7+45NdKMpNF9Sx5Zliwf8oXBtwEDFj7AgOGxgQXD2h+wgI0Ny7mwXMY2xh+HER/YhjXwcNmA8BowNseyHD4ly5JGmquv6qrMjIjveSOruntGM10zXV1dVV3/1NOqnq48In4RGRn/fN94X574PAi0JspOeyHmTnNNHMMjY7tx9Su/BY/NXo56POuFWBgoZKUGMptSiHUgTCHWOyEm+t8qCdYha40DL8Q0iqiJkLWLkl8sN5jJF/HVV+/BTz5lLwfb8xgRuAsJkMCFEeDAcmG8uPcAEPiZn/kZ91M/9VNeiDFYB2/hAeiSI1yE9kRZQh+IEDPr1oiN4dGJPbjmla/H0ZnLUI+moesKURwgTxpomgYCxLSIbdB7KMR6J8SskjD1xausOJf4nxYmsEUcxZYws6aJfaaONz/jNnzTJQzUMcIDHatOAj0jwFlcz9DyxL0i8O53v9v90A/9EKIwZLAOWsR61c143vMiUEyUxZYgQgzK+JD2gQkwH9dwdGIvrv36b8WjU4ewHE4jqKMlxFbWCbFzR5zotRBh1MTupgDDHDXRaIVUKwSyNiyTwDEWjUgCdUjkTw0NA7gVHLR1/OJX3oFnJBRi5zUkcCcSIIELItDdKHxBl+LOJLA1BH7jN37DveUtb/FCjGvEeAtvTa/iWTZHwMsvCVrvP8Ui5oWYDTAfjeGxyZYQmz6EZT0JVXcoJRHyZAWNfKVlEaMQOxf7XgvRUY6aKEE6skAjsA7jaQYFg+WoSOYcWIUAGSK1jMvdCj75NXdzoN3cAMGjSIAEOhDg4MIuMnQEPvzhD7s3vvGNyCTni7gntqaC21+RrVijtZZ/6cLLvxXXv/Cr8ggSWCNwphCTvFJrQuz4/stxzVe+Fg+NH0AjLixiWlmYUgNG5YAR9+IuYrD7ACFdbF2Gb+/iyltzaL/r3+31u6XQRfuJEMudQ5IkKC0seCHWHCshlfxiOaCzJdT0Il567aV4580Xca7UbVvxeBIggbMS4ODCjjF0BO6//3537733ApI41k/7upyMbZrAVgghCrFN4+eBfSZQ9F0JduBdE5VYxCRJs4K2obeInTxwBa562avxpfEDqEdTCFeAQFtk8QqMyiAhwinEumjGboVQF0LGl7rb63dRdX9oF+XPdQATJQhMjsryAqIIWIg0MmMQIkDNNTCRH8N3ffnT8cZdEedK3bYVjycBEqAQYx/YGQQ+/elPu3vuuQdxFNE1kWvEdkanHspatIWYyLHAz4mtcoUQc4UQWzp0LQ6/5F48WNnrLWKrQiypw4obo5GEzrSIbbr5uxVCXQiZYRdiRgXQpTE0lxYwbutIEoWT1iK3DiUdYto1sN8ex09//T24i/nDNt1FeSAJkMDGBPiWhz1kKAlcfPHFjkJsKyxyQ9n8LPRAEBAhVoT/dkrD+k/5m/YWsVPRGLKrbsahr/gafL60C814BlEDCJRB6oVYDm1oEeuqKSnENo3PqhA6qqKxOI+pJEUQWMwbhyCMEeUO0+kCnrE3xnu/7EbOkzZNmQeSAAl0IsABphMhfj+QBK688kona8QYvp638EB20JEo1BOFmFjEvBBzhRDTN9yBA897OT4TzXiLWNKQhM4GWbxMIbYVfYRCbNMUHUI4V4LJVjBVy9FMF5G6EOVyDWapjl31k/h/nncEr7005iC7aco8kARIoBMBDjCdCPH7gSRwxx13uEcfeYRrxOiaOJD9czQKdRYhph2chP52kRdipdvuxr5nvwT/oSbRTKaRpCE0MqTREpw2tIh121EoxDZP0EVweQylMtTGUywsHofSZZTDMtL5RdxQDfDxe2/gHGnzhHkkCZDAeRDgIHMekLjL4BF48Ytf7P7ln/+ZecQoxAavc45MiZ4oxIyWvwU+CIcIseodz8DuZ7wQ/+bGkZZmUUoDCrGt7B8UYpumqVwElSeAyhGPLWNx6QRK0TiCXEM1UnzVjVfhV26nNWzTgHkgCZDAeRGgEDsvTNxp0Ai8+tWvdn9z//2wed6lFOkm4uJWrNHq5vrSKryFB61vjk551gkxBLA+WIf1yXBDk+B4MoHg6c/FzDO+HJ9PKzDJFBKZ5LoMedCQrLmAlfD1XfThfguRfjd2v+vf7fW74qckcK4fA4sedGFjqe+nNkFuU+iaQb2xhLHSGLC0jGmX4y0vugmvm2ES566aiAeTAAl0JNDFE7DjubkDCfSMwA/8wA+4X33PexCHURdSpP3gvrAH+FqltkKI9QwRT0wCPSbgYG2OMIphrIaRsN+RRWAUknqMRyf2IHj1a3HsossRl/ciNyFgcwRKJs4KeZ5DB8GGZeyY0LjLeXK35+90fKcG6BSMr9P5Ox3f6frdnr/b47spn4zaSrcibrp2GhMJHbO2OSchZM6+yfri0DmoIMayuNNGMWy2gllbx03lFH/0lbdwftSpgfg9CZBA1wQ40HSNkCfoB4Gf/dmfdT/x4z+OKAi7EGLtt6gUYv1oQ15z2Am0hVgCkytYZxDHFkEKlOolfHFiD+zrX4/j+y9FOZgFjEJumwiDAIGJYHMHhEUmsnNt/ZzoS5k6CZ1O5evUwt2ev9Pxna7fqfydzt/t8d2UTySX0q0pzFmFmPO5Js9lKdPOoRxpHJ9fQjy5H41mirHQonbqi/iue27Ed19Z4/yoUwPxexIgga4JcKDpGiFP0A8CH/zgB90b3/AGCrF+wOc1ScATcF58BUGEPJN/WsQJoHMgWo7x0OQ+xG/8djy662KU9TRcBhg0ESiN0MWwFnB+TRmF2E4Vop2EXKcbaWOhp0Qp+1Oc6ZooKcZ9D3X2nJeQfcpxjOPHTyKZ3gttLUrLJ3A4TvEz996Mp3Rb+E6V4/ckQAIkwAUm7APDSuATn/iEe/GLXoQkimkRG9ZGZLmHmoBYspysCYOGyWQq7LwQU7mCWknwyPR+1L79v+CR2YuQuImWEGtAK43AxXBO8o7JRJlCjELs7AS6tbhtdLx3LFcKxjqkUNhTq8A88J/4hqffhnfcVOFL6qEenVh4EhgeAhxshqetWNJ1BL7whS+4p919N0IdUIixZ5BAHwgUQsxAqQAuLdZ9hYmDyRy0qeKxXQcx8W3fgYfG9yCxY3AGsK7hJ7+BisUcBgsKsY2arlsh0qlbdHv+bo/vvnztM6xNZVZXiSmxiG0g8uUFggVqtSoW549jT2iwf/kE3vGau/CsuMvFh50qxu9JgARIoEWAQoxdYWgJXHfttW5luU4hNrQtyIIPMwERYlZygUFDpRL9EFCRRWocdDiFU/sPo/aa1+Ph2m6EecVHU7RoeD8yjQjOZwGkayKF2LkJdBJ6a0vE2s6J4q4ovaoIpHTu46X3algd+XViun4C4wtH8TU3HMaP330R50XDPDCx7CQwZAQ44AxZg7G4awSe/rSnuS8+8CCFGDsFCfSBgExljcoR6ghBKhERHUyQY8U66MourFx6Hcpf+Wo8XJ5FaKteiCnV8ME5HEJvSaMQ2/gR3EmIdLuMqdvzd3t8p27b6fxtISbnEfHlf7wxq/jdtgxi7TVjxfUKmSbxFF1UQpStYLp5EtckOd78gttwzzitYZ3ahd+TAAlsHQEKsa1jyTNtM4EXvfCF7v/8879QiG0zd16OBIrprEOuckQ6RJyKqyGQIsWifDm5F+nlN6L8gq/F0WQOoa1ImmcvxCxyWEQSexzaz3m5RuxcPaqTEKEQK3piW3iJCBNL16ooW3VNbDssrtrKvBCzYYRyYwl7Fx/FV910OX7krv2cE3F4IwES2FYCHHS2FTcvtpUE3vTd3+3ue/9vI9AaWmtEUYQ0TWGtRZIk/nf5+8bbxq5RGx/LPGJb2Z4813ARkOTNLnRA5hA3I5TiMhbSRayUSpivTGDsyDMR3f1iHItnoU3Z529WesWvKzMI4ZT2c+jTrRXDxYCl7S8B5eVU266qvTXMuxx6t1cJxqGR5xnCMECgFUye+W/CQCPNM+TG4ECscOnCI/jotzyd86H+NievTgIjSYADz0g2+86o9I/96I+6X/qFX/R5iUR8rX87LALMJ4ylENsZjc1aDBwBEWK5zhE4jaQeohxXsGhXMB/HODY2gb1PfwHczc/GyXAWyooQc9BKhFiOXAd+suxfZWw2jd/AEWGBtpuASK7CNtuyhD1BiCn/bBARJtFibJZ6ERYGyv+eBArlYw/jbS96Jl57iC6J291+vB4JkEA7/QZJkMAQEvid++5z3/Pdb0IcRTDGIMsybxULgsCLsOKNaKd3DbSIDWHTs8gDQECEWKYzJDpCeAooJ1U0QoujGjgxMYVDL74X9UuehPlQLGKlYqrcEmKZ1rBKQTtFITYAbTmsRTiXECuEWbGJ+6tYzkR4yf5RoBEohyBroJwu48bxBH/4ils7PSiGFRHLTQIkMOAEOPgMeAOxeOcm8Ml/+Af30he/xAsx2RqNBuI49kJMfhf3RHkbuvFGIcY+RgKbISBCrKmaqEZlBCcsSmEZaUnjQRgszsziyle+HiemrsaSnoGypZZFrA6rc6RikZB4i07E2GauzmNIQKJvnt0itroizFlEYeBFGGyOJBQRVoiyclrHPrOC73n50/GK2Y5v7IibBEiABHpCgEKsJ1h50u0icNXhK1yWpl6ANZvNIkdREKBer6NarXpLGYXYdrUGrzNKBIwyaKgGxuIqguMWpaCMRgI8oB3qu3fjyte8AcdLl2FZi0Us8SEUNJa9EGuGqrCIWRFjo0SNdd1KAhsLMbHAApFWyNMGlM1RTUKYrImsUcduZHj51YfwY09luPqtbBOeiwRI4MIIUIhdGC/uPWAEnv7Uu90DX/jCqvWr7Z64srKCSqVCITZg7cXi7BwCRosQa6IallA6qRHrEhaDHI9UYixdfBEu/5pvxsnoUqwosYgl0M4iUGIRy9AIAaM0AgqxndMh+lCTcwuxYt1FqBVCDaQrywiVQTkKkNYXEQUKN8+M40e+4kocKUJ3ciMBEiCBvhDgANQX7LzoVhF47ate7T76kY94K1gYhhABViqVvHVM/t0p/HOnPEYbl5NRE7eqHXme4SMgQmwFDZR1jLGlBIku4YRp4MTsBE4evhSXvvCVOBUcQlPNAKtCTCxiFGLD19qDWeKzC7FiXPaZxJxFHCqY5gpCGCQBkDfrOLBvD15+8yX4/j0UYYPZsiwVCYwOAQqx0WnrHVnT73vzW9xvv//93vIla8LEJbFWq3khJiKMwTp2ZLOzUgNAwCjrLWKR1ZhMS0h0gpPNFSzu24uj116Pi577ciypfUgxAeWCVopd46MmZkEGpyRiYgAlv3AbOQJFs0vEw2IT6eQ/z+mqutZPZBdZXygRO+Uc8lJAflz7YEke7jRsZlGKYpi8gZLOUVYpytkS7rz6MN5w+248qfMDYuTahRUmARLYXgJ8Am4vb15tiwn81q//hnvLm9/sLWLrn6mSQ0wsY1wjtsXAeToSaBGwyiFTEqQjRCXXaJxaQq02ji+Up3DymS/A+FOehwzjMCqCUhmcC+BsrYieqOcBJYmdJRF0p1x/GyDvd+z7bkXkCJdfJJhZt0BQBLnPNef1WUuWtflK9PmWUGt/BjZCxY1JPETUwwVkYR0Im4XgtzFUnkDnZSgnOetyBPk8pnACR3aV8Jbn3IrbIlrDOJiRAAn0nwCFWP/bgCXogsD9f/lX7rWvec1pecREkEn4ehFndE3sAi4PJYENCEi8ukykVBCg7Bzy5RWMlcbxmXgK2cteB1z/FBiXFBYPSeQMSTMx4yfbkT4OhVScxeAQbJ7zCAuZzUNbd2QfhaQIeZ8U3GdkVj7Rshdi/keEmKivYori+5DPEVaEpZc/ixCL8wqcs0jjJZigDidCTA4xESC561QVzVOLmJwew5Rbwq7lL+Idr346nsl1YVvSfXgSEiCB7glQiHXPkGfoM4Ebr73OydqwtuhqW8aY0LnPDcPL72gCbSEmUelEiNk0Rzkew38Ek5h9/VtwfM9hGBe3hFgDTlbpmGk/4Y7UCShkMJDvKcT61lH6KcTgYHXhmthO7N22iHkh5su2JsRcW4itzloUnAUC5yU+tLIwAXw0TrgQmSp6mAocqo0FHEqX8dbn34UX76MlrG/9jRcmARJ4AgEKMXaKoSfw9Lue6h5++GFfD3FFFCEmiZ1lnZjWndyemEds6DsAK9AXAiLEjCTGBZBIPicDqLCGz0bTOPymd+Cz8TSgS7CyFky1hJid9Gt7Ipzy7oqFEOt0j25QPVrEumv7PgoxkWBiFfNaq/Uh//RJvr0ZbJ0Qa7kmyp/WrGIGTmcIHVA2ESIbwrgAuVJoBkAWGFi1jLmKRvTAZ/CtT70D33fjDOc83fUYHk0CJLDFBDgobTFQnm77Cbzq617pPvaxj3kBJlYwsYxJ4A75vfNGIdaZEfcggScSkDvHSC4wWEQ2FxWGhq7ikYkDuPo73op/kyTOUaUIoKBSAAGMnShcE7EApXIYRBRi/excfRZiqwqsFaDDOyQWfoinUSnWhSmvzdquiU7WHQZ1BE6hbGoIsxJ0GqOhHBYrBghXMBbWUX74c/jOO4/gzTfv5Xynn32N1yYBEjgrAQ5M7BhDT+AnfvTH3C/90i9561dbfJ3f+jD/2rW9AmETHBi+fhPQeMgOIeAtE1r7RM0qW4ENS5hXVWSX3YKLvu4N+E+TIEjWC7EQxtYK10S3DAUDo8LVIAybwkKL2KawrR7URyHWWvm1Ov6uRc984rTE97XWn1dHbJ3B6GUfOTE2Y9BpApdGyDXQqKQo6SVML3wJX3ZwF9793Bs51+mup/BoEiCBHhHg4NQjsDzt9hH4iz/5U/e6171u9YIiyKwVxylxierUxSnEtq+leKWdRMBbKVSAQEtupkWYpIpjwQQmbn8uyk97KR6OxuECiVgnFjGxTmsYV/auZ6FrQEm8O+Vl3OaxUIhtnp1/D9UFez/AnjPW/PmVS1KMtPYsPBTPXp62FcxbxVr7O2Vg0UCgAoSmCmNDNJUGlMGYXsF+s4QjicH7vupJXVby/KrCvUiABEhgMwQ4QG2GGo8ZKAKf//Rn3D333ONdEiWJs/w0Gg0vwrhGbKCaioXZSQR8IrAQYaDQaJyEqU7goXAaFz/rq2CvuxvzlVmkXmzJ9NoUQgwxNBRCm60TYl1A6VYIdHFpf2i/hcwwl7+9LsxzLCpyNpxtT8VilzNdFgGlA0BFyJ2F0TkqrolL8hVcli3hf73mqZzjdNtHeDwJkEBPCXCQ6ilenny7CNzxpCPukUce8ZerVCpYXl5GHMcMX79dDcDrjB4Byf/lAhjTRJxYzEclPIpJ3PRN/xWPT1yKk+EYbKzhlIVyRWw8cUX0FjFrvW1DAnl0ZVPZ4UKsU/qNzhb/Dt2yn0LSC7H2mrC2EDu9NzSaTVSqFf9yTXJD5lmRlkQ2YxSicBwrxsDqFeiKQymdR/Xxh/HC/fvwbc++EbfUOrpEjN59yxqTAAkMFAEKsYFqDhZmswRe8fKvdJ/85Cd91EQRYPPz8xgfHz+PgB10Tdwscx434gScrA+LYE2KIM5wPK7gWPUiXP3q78J89RIsRlVkgeSJEiFWsDJK+7DkoRX7mIQaFyHWhRSjEOuuE/ZbiLUjJLZq4d1Y278DiJPYC7AszQDv8RAgjiLv6eBcjEYzRqYc4ikHt/gQykc/hxddeQivf8rNePIERVh3nYNHkwAJbAcBCrHtoMxr9JzAf3/7O9y73/3uVQvYwsICpqamkGVZp1fCDNbR89bhBXYiAeU0AiQwJoOKGzhaqmF+/w049LJvRrN8APWgjKZOfdLediAGo10hxEzonczku65sYhRi3XWtfgsxn7S5VYXTrKOF36K3hDVTWGMQBQHCIIC1xv9b3FxVMoUwVMiWHsRc+jhednAOr7jtWtwxHXBu013P4NEkQALbRICD1TaB5mV6S+Cjf/bn7t577/VuiRI5USxjEsJePjfeaBHrbcvw7DuVgLIBAp+w2cCES3ikMo7lG5+Nfc/8ath4H5pBghXV8GJLixuj7KlNS4jFECFntdyfRWCdTW0UYpvCtnpQn4VYyznxNJtoYRUr1JnJc0RBiCgMvFXV5BlsborUYyoAwhJUYwGzzeP4iqsvwv98xqWc03TXI3g0CZDANhPgoLXNwHm53hE4sHefK5VK3gpWrVaxsrLCYB29w80zjzgBEWLaRFCBQ1PN40vVCahnfx3GbnoOVLAbqYrQDJotIRZ6wWV06tcFhXmJQkz6TwchudPXiBUOqq1IiKss1rknygu1OPK559JmAzAWSRR7yxhsirRxCnPZMl513TX4/qfu4XxmxMckVp8EhpEAB65hbDWW+awEnnLkdnf06FEfun5sbAziniiuLRtvtIixO5HAZgiIEFNZiDBSWFGn8NDYJCZe8R1ID9yKUM0hswGyOIVRDoENASVCTMLWixArQ7kAVktYe1rEzsV/RwsxEWDeIreWI2x9Xkf/jXMQJ0Mf7MVYBFD+J88y6PoJ3LCvguddeQnefN005zKbuYl5DAmQQN8JcPDqexOwAFtF4L+88dvdhz70odXcYSLIGL5+q+jyPCRwOgHvmphHCGONOk7ioYlp7Pvm/4ZjE4cRmWmkOWBK+elCLFgpXBPzCpQLW0Ksk/vwBuTpmthdt+yja2KRM0ysYcU0pAhT73xQjuKbQoDZPEOkNcpxApcbZI0mqqUSrqgqvOq63XjN5WXOY7rrBTyaBEigjwQ4gPURPi+9tQTe8yvvcm9729u8FUysYWIVEzG2cSfvImKbLz5voa1tRZ5tWAiIoNI2QJjEWHIpHhqfw2VveCu+VNqL0I4jyyxUlPuEZ9S++AAAIABJREFUziK6vOVLiauignUln1dMEj2vpei90Jqvpva90AO3aP/1qYg3c8rO5e+tRUxCx4tr4Nr2xCxd566XjKxGohe25ZRz8Om5vZBqeRqoIiZmkZB5fTLm4krFvhKlQ6JpFj8tCeaPipMAK4unECuD8VjDLM0jzJq4/Ybr8PIjs/jaEiMjbqbn8RgSIIHBIcBZ5OC0BUvSJYEHvvAF98xnPhP1eh2zM7NYXFhYzTnDjt4lXB5OAk8gYACVYSnTsNWLEVx1B5LnvhxHy7OIyuNIG02UkEPDwiHw2XoD55BpYDFRsNpBi9Xa5xjb5LbDLWKbpHJeh0kAFRHSktetHRzDj5Mti9Tp0SzXtVGxEzId+oAskKAZToKwGITWIHQGGoXLqaQukITeIr6NCHARY6KdvH6yQN5AKYy9ZTWvA9qUUErGYJXGcmMZVjUwO50gyU+i+djncKgCfPmR6/Hs6w7ijq6TqJ0XJu5EAiRAAj0lwPlpT/Hy5NtN4JZbbvHrxEpx4l0U11vE2Nm3uzV4vZ1MwKkcTjexjAoWwkOYOvJ8xHc9F0eTcQSVCrLGCkouR2AdnM8fphEajWYAzJctEFjo3CK0XQixnQy4x3VTkDYpBHI7aEhb166zXbVKcWYbibgKkKkSrJzH/78QYFpEmQgxn5pAxJj8X0SYLqyhSiyhYgUT0ZZ6MR6qMgJVgjMJTF6M1LF2qIQGjWMPYNKewl1X7cOLn3wtXjYRcijvcd/g6UmABLaPAAe07WPNK20DgXvvvdfdf//9MFm+Gr6+WweibSg2L0ECQ0hAJtkZVpJJPKz24JLn3wt73VNwVJcRVSpoNlcQIS8CLYj1RfKOWY0sAOqJWNMc4swi7mKJ2BBCG5giiyjKdCGO1m9r/9ookJFDbBRqTbFywrdpGlifwFtyxYkVTP7zjoZW9pHw895x0f9VfsRSGrvMR9VsxhqpWMhMDtgcCAPMaYXo6KO4cXoCz7nmcnznzWOcrwxM72FBSIAEtooAB7atIsnzDASBd77zne7tb3+7f0fb3ijEBqJpWIgdR8ACLsNybQaPJHtx6Ku/BY2LrsNjeYikUkEjXYHyecIctAugbSHGZKKeRsXfkwzwv3LbdgJWAbku3AXPvRVrvM62JcahlopFE8hFiGnlBZmc0/jkzDIKyzrCQoD7H1esSysSfIvbYgoTOTQigzxIoUoKZZUjWjyJ+PHH8NLrb8DTDh7E1x6iFWzbOwgvSAIksC0EKMS2BTMvsl0EPvWpT7nnP//5GKvWfGJn2SjEtos+rzNKBJQTC0YTCxMzOLrvMA581TdiZfwgTqSBt0Y38gZc1LKq2LBlEZOJv4MJCyEWGCUeitz6QEDGRWG/tkJs/WhZFGgtqKJXVqdtEoRFEnTL1rZ2iuAW66cEmhd3VPmUK8j3oVHeihb5T7GiOWTTMY4tHYUKcsxOxHCLj0GdfARHLt6LF952I755f5VzlD70DV6SBEhg+whwkNs+1rzSNhG4+uqrXdZMIRHH5IdCbJvA8zIjRUBbIMwtHqtN4tjtd2LPs1+KNN6LpWaAOAjQRIYsccVM34TeItIODGEkf5iSYB2F1YTb9hOQICmyPk+SJXvR5f8vbVG0RxFOfu3vxfqxtbYy2qIZyjpBaccAgQkQSG45L8ZEgAUt50QRasWPWM/kmvIpIu7x+uOYuWgOVbOCpQc/jUsSi5c85WY87+Z9OMJgHNvfKXhFEiCBbSfAJ+C2I+cFe03gta99rfvLj3y0CNSh1qZ57Oy9Js/zjxKB0IQoN0t4qDwB8/KXIbjxDjg1hzyNIMHq88BiKTGQ2AtxHnkhJnejWNKUyvxU36i1yfoosRuEuvrVWj5ipQRTaYuxQoitaq7T8owVOxVuhRJvI4dSqV/jlSvt21ICeIgIE/dDcUMUw6dEypRAHhJBMdcGIuCkbwTOYG+lgpUHH8DBJMTLb78V//WGEofpQegcLAMJkMC2EeCgt22oeaHtIvCud73L/ejb34FGo4E4jmkR2y7wvM5IEQhMglI+ic/FY6h+02uwfPBKhG4WKosQGuPX/pyKJaGzQiSJn61YScQyIg5rqRcAuQq9Cxu3PhDw3gKFX+h6Ibb2u5dbhehqmcYKId1OtmwQIPN54nKtfeAPaWsfnt67I4rlqxXO3mVefEukTauLn2qW46AN8BU33Yx7rivjbs2cYH3oBbwkCZBAnwlQiPW5AXj5rSfwL//yL+6FX/GCYoJB18StB8wzkoCEWnAlJMk+fKY8jv3f9QY8mIyhmuyFbmrEeY4mUiyVxSdNA3nsXde8EINMzpstu0vsXdjOtXVKaNzrhujkHddt+Xp9/o34iN3Lr/OD85neZLNiIZP2WnVVBEQfSYxDEWBOUg2IO6N4GiiF3NjWGKugtIYKlCwRQ64MjFg9dYZKSSNRGfL541ALp7CnUsL1lx7ErXv343sPT3AO0utOzPOTAAkMNAEOggPdPCzcZgncfddT3UMPPQQtk4PWSdjZN0uTx5HAEwlkqKCuZ7FwyRWYeNUr8GhSQ6gmEeYBStbICjEsyxoxL8QSv45IJvM+1xQKIaYQt9YTnZ1wt0Kn23brtVDq9fk3rr+YtlpCTARYaz2Yd1b0OZflDw6B0giUJH4WISaLuyQrWHunAIEO/D5aQtY7A+vS1k8DztRhV06h6lJctXsWd119BY5cth8vKdH61W3f5PEkQAI7gwDnpjujHVmLMwh842u/wf35n/85LWLsGSTQIwINVcPJcA92Pf25ME+9E4+Vx2CzGAliVJxYRHLUo2IdmLgx+oAO3kKdA7pRrBFzsprs3BaxTkKlR1VbPW0nIdht+Xp9/o34SPRKH8GytUbMB6r3YqwIWS91s3nmRVYkYsu7G4p2K7KB+YiL/nfAwCC3GUzeQOQy1JTFuMtxcbWMmw7sw51XHsQL5yi+et1feX4SIIHhI0AhNnxtxhKfB4Hf/+CH3Pd+7/ei2ZQ378XGzn4e4LgLCZwngcVgHEeD3bjmFd+A+UsuwXxlHPWmQhLGKNsczmbIIglXH0DZkhdioQ8OkcEGDR+0wbhoNbLe2S7brdA5z6qcc7deC6Ven3+j+heWr0J0tV0T5d/eECYupGIVE8Elv4vgErfE3ECZIih9BOsFl8sayE2KABZTtRIu27sb1x3Yh8MzFbxyhuKr2z7I40mABHY2Ac5Nd3b7jnTt9u7e40qlEoXYSPcCVr5XBE7Ekzg5cyWu+dpvxsnyBBrVSZzKLKIoQmyaUCaDCiUqYgDnRIiFiKxE6MuQRnVkgUUuQmyDYB0UYr17RItFK7JFWHm/NkzklxZLmPQYWQcmpi7j15FpcUc0xn/GWiMOQlRVhrmwgYMzY7jy4otxeN849o0BTwkpvnp1z/G8JEACO49A70b5nceKNRoyAl/z1a9wH//4xynEhqzdWNzhIHAqqkFdfweuuueFWMoT5OUJnJI4D6FGkNZ9xLxYiwgLYVGCciFi42B1inqygjwwcIauiRu1di+FqAgxSbDsLV0tl8RCiBUiTCIqVpIEpSjCZKWCmYlx7Jqcxp7ZBLNTwHQZmAHwlF4WcjhuBZaSBEiABDZNgEJs0+h44DAQ+OIDD65mwmFnH4YWYxmHhUAz0HjM5HjyJQdXb637nXO5uAEboALgSS3ryD80nXi94ZZWkIa/cc7H65NYHkc2CFv+D5k31fRtuzXa2LrTbfl6ff4Nwa1P5NxO3NyyiN3GUPJ963O8MAmQwGgR4Nx0tNqbtSUBEiABEiABEiABEiABEhgAAhRiA9AILAIJkAAJkAAJkAAJkAAJkMBoEaAQG632Zm1JgARIgARIgARIgARIgAQGgACF2AA0AotAAiRAAiRAAiRAAiRAAiQwWgQoxEarvVlbEiABEiABEiABEiABEiCBASBAITYAjcAikAAJkAAJkAAJkAAJkAAJjBYBCrHRam/WlgRIgARIgARIgARIgARIYAAIUIgNQCOwCCRAAiRAAiRAAiRAAiRAAqNFgEJstNqbtSUBEiABEiABEiABEiABEhgAAhRiA9AILAIJkAAJkAAJkAAJkAAJkMBoEaAQG632Zm1JgARIgARIgARIgARIgAQGgACF2AA0AotAAiRAAiRAAiRAAiRAAiQwWgQoxEarvVlbEiABEiABEiABEiABEiCBASBAITYAjcAikAAJkAAJkAAJkAAJkAAJjBYBCrHRam/WlgRIgARIgARIgARIgARIYAAIUIgNQCOwCCRAAiRAAiRAAiRAAiRAAqNFgEJstNqbtSUBEiABEiABEiABEiABEhgAAhRiA9AILAIJkAAJkAAJkAAJkAAJkMBoEaAQG632Zm1JgARIgARIgARIgARIgAQGgACF2AA0AotAAiRAAiRAAiRAAiRAAiQwWgQoxEarvVlbEiABEiABEiABEiABEiCBASBAITYAjcAikAAJkAAJkAAJkAAJkAAJjBYBCrHRam/WlgRIgARIgARIgARIgARIYAAIUIgNQCOwCCRAAiRAAiRAAiRAAiRAAqNFgEJstNqbtSUBEiABEiABEiABEiABEhgAAhRiA9AILAIJkAAJkAAJkAAJkAAJkMBoEaAQG632Zm1JgARIgARIgARIgARIgAQGgACF2AA0AotAAiRAAiRAAiRAAiRAAiQwWgQoxEarvVlbEiABEiABEiABEiABEiCBASBAITYAjcAikAAJkAAJkAAJkAAJkAAJjBYBCrHRam/WlgRIgARIgARIgARIgARIYAAIUIgNQCOwCCRAAiRAAiRAAiRAAiRAAqNFgEJstNqbtSUBEiABEiABEiABEiABEhgAAhRiA9AILAIJkAAJkAAJkAAJkAAJkMBoEaAQG632Zm1JgARIgARIgARIgARIgAQGgACF2AA0AotAAiRAAiRAAiRAAiRAAiQwWgQoxEarvVlbEiABEiABEiABEiABEiCBASBAITYAjcAikAAJkAAJkAAJkAAJkAAJjBYBCrHRam/WlgRIgARIgARIgARIgARIYAAIUIgNQCOwCINJ4C8+969uYaKEehTAKA1tNWITwEGhGWg4BQTWQg9m8VkqEtiYgAMUikeAg/zD+d9bH/4bZx2sMVDOItABkjhGGARyAJw1SOLIH73ZzVq74aFKbfyIcm7ja2vd3d3ZqXzdnr8Tt0716/R9t+XrVP9u20daT1pYzqOlrR38p/8bFMZKNdyqQs5TOnUUfk8CJDC0BDjADW3TseC9JvCjf3Cfu++fP46TJY1Uh1AIkGQBlNNIAw2rZNIgsuzcW6eJUqeJTKc6djp/p+P5/QgTeIIQa7Hwfy8ETqgDmCyFhsL4WA1zM7OYGB9HoDSsyaGwsZDqRLeDzkInIdBJaHTQaZ2Kh07l6/b8nQrg3MZ8+13/btpHxk2bWz9+tuWylhdeLSj+N/8CQCPUIeIw9C8CSqUSyuUKxlSIw5NzGA9j1CpV3DQ5xvlMpw7F70mABAaOAAeugWsSFmhQCPxtc8F9w8+/A4+WNZqlBI3UomJjJEEJ8/UVhHF0HhO1jd/YdxJinYRWp+M7sex0/k7Hd/q+U/kG/frdlr/T8Z349ZzPmvZaV5SWZawweyEKQtgsx0Sthov3X4RSEiNrNBGGAUQotEVbp7rwexI4k4D2or8wqhZWsNMtsqvW2XXft/e18mUpRG5zqNwgUQEmkzLmauPYMzaB6biEqw8cxO1BwnkOux4JkMDAEuAANbBNw4INAoHX/vXvu/s+9THk05NoLDcQJxNIl1MgjBDHCfI823Ai2mki3Wmi3u3xnRh2On+n4zt93239Op2/0/fdXr/Xx3cqf0/bx7UdE1vOhe1Zry+UWHqdt04EUIh0gJnJSeyankYchDBZjlDcc2E6VYHfk8BZCax/RXVOAXYuYQYgDRwWghyZdgisQ2gcSk6h7BQqVqNiFRqPH8dMUsHesUnsn5rB/ulZ7J/bjdumaD1jtyQBEhgMAhRig9EOLMWAEnh/44T7gV9/Fx7IV5DGJSgXwuYyT9WIShW4prhtnXvrNJHe0RP91tqPjZq2E59uu0Wv+XYqf6frd6pfp/N3On7D79e5JrZWiRW7t0wUyjmEWgHGYGp8HLtn51CJYmi/LrIQcc6Lt82vEeuq/Dx4qAmIa7fRWHVubVvE1lvH2r+3KyrdrT1pMQrIAgcXiGujOI4Dyjogz+Fy461kU7UatLG+z7o8931ZXiqUkgQ1rXH7ZZdh/8QEnjW+h3Ohoe5NLDwJDC8BDj7D23Ys+TYR+JaP/al7/998FOHuXTg2v4jy9BxWTi4ApQq0dRD3mnNtnSbSnSbq3R7fCVGn83c6vtP33dav0/k7fd/t9Xt9fKfy97x9JOKMF19FJ179v5I/Sd+2PlDHvl17sH/3biDN/CQ3CUO/fqsQYtxI4MIJiBCTn3YXXNcNV8XWmd3rzAmLscYrs3YvlPcG/p6VgB8KWFlZQRBoBPJF642Z/F3W1pWcQ7WxAl1fQSmMcMnefbj+iitx2fh+HFFyADcSIAES6D0BDja9Z8wrDDmBP1qed29977vwYNbAozZDadcuLK2k/u0qIokat8HWaTV/t9EAOh3fiX2n8nU6vtP3nco36Nfvtvydju/Er6d81s1g18+CVyWZA0yOMAxx8b592DM9g7zRhEtzlOLICzFZp9M/KdZ+fG32MdYueb9q0G35O3WeTt/3t/7aKf8SS61TYp1acv338qJA3GbhHKxzkJcW3j4rOizQXoz59WNaQ4faCzHZzzjr94U1CGyGsVKCWGk0lpbRODXvg38c3nsRLt+9Fzcduhx3qnKnYnUCze9JgARI4JwEOMCwc5DAeRD44b/8C/e+v/wznJyq4lQcIKiNI63XAQnlTSF2bgKdhEhPhYb3jWT7nIuAnwC3+azz+Sqms8WPs5gcH8f+uV2olcqFK651iLT2k1lv1TiP+6d3u6yvw4VeZRDcKrsp/4XW98z9+1t/v/7Qihg79z26kUSWo0LoItx96z6X/a2zMNI3fR9W3morAsy2e6rft7CQaa2QZ6l3W4yDANUkQUlC6TdTqJUGysbh4Mwsrr/4Ulyxdz9uiSqcM3Xb7Xg8CZDAaQQ4qLBDkMB5EPjbhQX3tt98L/4xX8QjEZAnMaA0kMtC8XOfoJNr2Y53fesyD9R5NM2Gu/Sab7ft26l+nc7f6fhO3xeTYAnL4bwlYf2aL+0ckijARXv2YnpsHMhyBMYikolqK/+XFUHWt6fIGX5tnSp7tu/7usZtC8q/mTqvP6bP9d84+ce5Vx+2+1xTBJPPQaa9u6HPRebz31lvGpNw96K/jMm95azYlPfElVWOcZj4XHliOTPOwNocItkkLYm45ZYUEFmL2FiMBSF2j0/isosO4KqDl+FuJd9yIwESIIHuCHAg6Y4fjx4hAm/9iz91v/apj2FhZgyPnXwcmJlFkBqEdi2A9+ob3NadtTqR9l888XYr1jOc+71vp4l4J6HRqXk6nb/T8Z2+71S+Qb9+t+XvdHwnfj3l42ez60PNiBgroiXKujARYtVSCYcPHUIlTrCysIhYayQ+nH1WTHiDoI9CrHVPbdaz0N+Omz24U8ud7/dnuIee72FbsV+f6++tVxu8qDlzLG1Xec2hUkH7FAoo8s1JoA7p0Ur5PHcSwCPPcv/Z/pvkJPOtbpz/yVODIAi966K42eYwMCLEAoUg1HB5hhAOgayXzIsXEZU49qkc9oQJXnrTk3BTWOU8aiv6I89BAiNKgAPIiDY8q705As/8hZ91n0UTJyohFpsrSHTs1zkUri/r1igoP51tXaSwOhTzntNdkWTi280qm55O1DeH6LSjOgmRQS//FiDo6yk25q+LuatMRH28DlMk0JUAHdZAmRzXXnmFj0YnkeZCpf2anMKIUjh+iTG431Kmr4B58U0TOB9Laqe+VXy/loZhfWHaOvPMSc7qv1fTN6xZhAtpvi65mb8vijQO8ulH79ZnIqKsvoIr9uzD9YevwFfPXcz51KZ7Aw8kgdElwIFjdNueNd8EgZ/7j/9wP/mB92N5toZjzQaSMPYTAS/EWp5G69/YKnFfbE8VVkXY2m3nVFu+baIwMmno9RqrzRVr9SgKsS4Bdnn4Rvyd9E3pk7q1zrElvrQ1KIcapTDAoYsPIJTQ4CLC/E9hwSkCI8jLh7MaerssNQ8ngcEnIK6Lu8ZrWD52DG6pgUumZnHk8qvxmoOXc141+M3HEpLAwBDggDEwTcGCDAuB5//me90njj6IZqWEhnEwMqHVygsx/9l6YyqTXBFixVvUYsbatpI575JTLJanRWxYWn74ytlRiMm7fh/TQCxdFi5teGvYRLWC6fExzE5Nrgox7+JVmAxWhZjvx3yKDF/HYIm3gIDF/MIJzExOYDKpwMwvIT+xgN3lKo5ceQ1uvfxKPCnmOrItAM1TkMCOJsBH6I5uXlauFwR+9fgj7m3v+WU0x6s4lhukQXiaEPOLFloBybQKWgvDi5L4FTjtZSFei3UXuYwWsV608M45Z0chJi8RTBFtxjtopU1oOMxNTWLfrjlvFWu7I8o6G3HD9dYw8Wn0FmAKsZ3TW1iTCyEga8pUrH0gEJUZRNah5ICKBUq5QykzuGbfAdx53U24ozrGudaFwOW+JDBCBDg4jFBjs6pbR+DrP/Rb7qP/8X9xolJFPY4La9hpd1OhtvyScfmUCWxLgK1PYurDfHThXkghtnVtuhPPtKFrqF/H6JMrrb4QkHVhpVBjz+wM9szNQhnTyvVUdO8i2tyaSyyF2E7sNazT+RAwyqFhcx/oIwwCH9xGcktKUI/EAhWnUE4NplSIq3bvx+1XXos7xic45zofuNyHBEaIAAeFEWpsVnXrCPze4190b/9/fw0PlBKciiLk7aAb7ShgrYh0IsCKpKXFyjERYcav/C7sY35dOIXY1jUMz3QagY3X6Il1tuWaaI2fRMaBxmStil3TU5gcq8Hm2ROEmIj/9oODQowdblQJiB1ZRSGaWYZc7h8FhJFGJFZk6xDkBmEjRdUqlBoZphDhlkuvwOtuupnzrlHtNKw3CZyFAAcEdgsS2CSB77//z9z7/ukfcTyJ0XQGWTvalkxu/QRXQ8kDWaJuec1VBPTwQkz+4JUZhdgm8fOw8yCwkRArYs0pn39JEtpKSPpauYRds9OYGqshCcPiDb/3npWQ9sUFi3MWj44i7xg3Ehg9AsopiOOurK90khhaWWQ2Ry7RR8Vt0TmMJSVgpYGSBapOQ9ebGAti3HL1tfjWw1dx/jV63YY1JoEnEOBAwE5BAl0QuO5//qR7LIlQdwYrzrZEljycRYwFULmEAxfdVawFM16IeZ/FwiLmhdjmC0DXxM2zG4UjOwkx6XviViUizOSZt4bt270b49UKnMla68N8fobVIOFyznY0UFvETeRGAiNHQFuF0AZFPjKJfhsoqDiAC4DMGuQ+ibQFxFVRBaiEESLjgDRDogPMhBFeduedeF55mvOwkes9rDAJrBHgAMDeQAJdEPjJhz7nfuK+38aCy+EqZTQCBasVcGoeyf4DSJdWENiWAUyJEHNbKsS6KPqWHNpJCHYbvn6nH78ljbDJk4hFTCy2kdZoNiQVQ4CL9+/DxFjNR070FjEJae/dZ+Ui6x8XtIhtEjsP2yEE2kJMLGPiiS7BO+Sn/bt/9dZyWW/fOUXc3MIlPZZ7rFnHrQcvw1MuvwZflkxxPrZD+garQQIXQoA3/oXQ4r4kcAaBv3bO/dgH7sO/PvQA5pXFcqTRlNRMlSpsmkNZhcApaL+ggELszA406kKunzeUGGUlSbPLDWyeY7xW8dawsUq5SOjsbJHI1nfdM0WYn052Z87tZ+V5bRLokoDcE1rcz0+7N1rJSHxgpnZuybUck16seYEmL+cMxpMA+bETuCQZx7OuvhmvvOhSzsm6bBceTgLDRoA3/bC1GMs7cATe88jD7p2/+9t4JF/BozZFODuNZQkJnhpAR16IiXuiPJrlQZxvoWtiv2GMupDqtv79bD8RWeIi1Viuo5zE2DU7g+nJCVSS2LvSps0GQt3Kg+e77+nv9X3Zu/Gr7WfleW0S6JKAheSOlGQPRVoHuWfa64Hb0UWLMb8I0uR/JFtE63clkixvogSHaCXDuNW4bvdFeOpVN+BZE7SOddk8PJwEhoYAhdjQNBULOsgEvucv/sR96O/+BierMRrVMhYaDSAqASqEuLCIEJOHswgxWSPmilCKXa8R6zeTboXIqB/fz/YTIRZDIa3XMTM1hX1793j3xChQ3lKWNhoIA7+YcTXI51pS8nb+sC4WOPaz8rw2CXRJQARVrkWMKe9+LmO8j5bYipTbjsckl2mnLGmLMJ/uRASYuLHbHLDWR1nUKw3sjiu48/A1eP3hazk/67KNeDgJDAMB3ujD0Eos48AT+Htn3Pe98+fxGVPH5+uLiObm0MwNIOEOrEZoi7em7XUExpvI2uHrB7565yzgqAupbuvfz5b3LweyDJFSXoTtmp2FzVMfKTGJQu+u6ANzFHPGVsrndQnz1r7oZzV4bRLoCwFZ75tLcFzvZtj+KdzQ2y/e1t0tvoytFWKrxmURcBJl0SSB+AkjTetAfQX74yquGJvGl11zM542wWAefWlgXpQEtokAhdg2geZldj6BX/7cv7sf/q1fxalaCWpmGkv1FSBIfBj7yBRCrL2Q27sn+hDH7UnucPLpVoiM+vH9bHU/WUxTTI+PYe+ePahVysjThg9lH4chtISpl2ifq0avItRAa9VY0XHpmtjPJuS1+0igWAO2dg+014rJZ7Gu8vQk6DL4t15rtEqtkKU54moFaeCwlNbFkx1jSYJwpQHz2HFcN7Ubtx44hFdddQPnan1sa16aBHpJgDd3L+ny3CNH4Pm/+x73z/PH8UiewojqEvdE2xZiEl2rnUtMHuOtxLhD7N016kKq2/r38wYRIRYZgwN79mBqagqBd5UtgnRIDiS88666AAAgAElEQVQJa++sPYsQK9wV/aYYvr6fbchr94+AdpKapLhXxD2x+Gm/bGsFs/GvLZQXZdoH9ygEmnwapRCPjeP4qVNQ1mJyYtwH8FicP4FQA3NTE3j8iw9irlTGzZccwt1XXIenJbSO9a/FeWUS6A0BCrHecOVZR5TAH7ncvfHnfwwPK4d6HMHJK05oBKYdsGPdOrHT1t4MJ7BuhcioH99Nq59r8D4jiNtpQedX9ZM4zVqHslK47JKLUalUkKcp4iiALFvJmimiMIC1EpKg2FatYf4Crb9SiHXThDx2iAlIcI5I7o9VISY5ItuBOXwojuI2WRVgykchXV0erBQakscviiFPCZfJWrEcWtwdAwfjMiRJBFNfRrmZ4/DELO45fD1euOcSztuGuN+w6CRwJgHe0OwTJLDFBN7+z59yP/fHv4+VyRpOSVLPpIRYR8hWxO0rRVQpwUUa+Urduy5u5N3VSahscdG3/HTd5gHb8gJt8wl7Wf9CDq2ZU9upvtYbWCXxchH3UHLLFtatQGv/u8pyXH3oEiRaI4oiBIH27ojOWUi/O/vDgY+Mbe5CvNygEnDOC6vCZFzcifKOon3/rX8h0s7Dtxp3dNVtsXVvto5dn4vMR1w0OcbiBKrehJ1fxkXVSTz5mhtxy8GDONJpcBlUbiwXCZDAaQT4VGWHIIEtJvDxpnW/8td/it/++F/BzE3DVsponpqXV59ISgmajRVALA9hCJevd/16YkEoxLa4cbb5dJ3mSt20b1uI+Zfua/E01kkzQITYaiht6wqBJclkw9ALsMMX7UOkgDAMfWAOP610xX6ydSr/NuPk5UhgxxAQy5gE65C7rh1NUYJ/tN0bpaJ5M0UljDEWlRDmDtnCMipBhGsuvwJ3XXYYz5EQp9xIgASGmgBv4qFuPhZ+UAn83vyC+4H3/BIeRAo1O4X5hQUgjpGUymguLEIHEUqlEhpZ6teKnWvrZqI+CGw6TeSHvX6dGPey/udnEVNwxkK3BJk1sgYMqFWqmB6rYd/0JEI4aLGStQRY+9NHTGyJs0715PckQAIXRkDuw7YQE/G15tbYtrEBoQ68J0VJh6hFJdiVJlbmFzFZqeHw3Byefd3VeNYY141dGHnuTQKDRYBCbLDag6XZQQR++B/+3r3zz/8QpyoR8vEqGuIalsmamxBBLm4tChLG3kfeOsc27EKl00R+2OvXqbv2sv5tp6a1NVzFmpTTXRMVnOQnkv8kmID8rhSmJ6ewd3YGY3HohZhs0hayJky2tgjb6e3Tqf34PQn0ikA7aIe/99oJn9fnTUchxGyWw6YZIqdQTUpIdIi80US6OI/L9szgGdffgJdPH+BcrlcNxfOSQI8J8ObtMWCefrQJfO0H3+/+4P98EnbfHJZlFXY9RTI+g+zksmQYg0sUzAYBD4Z9ItxLITIMPauX9V8vxNrrw/ykbh0YEftiBfNuUEqiADgkUYy52VnsnplGaDIELTdEOcwH52hZwsRKZozkwuNGAiTQCwLtd3Dt9WRnvpJrNhoYr435BOuN5TqUdaiUy/4l3kp9Acau4MD4OO4+cCW+8VImgO5FG/GcJNBrAhRivSbM8480gd879oh76/vfi3/P6lipVQAVIalMoPn4kl+nYyNLIbaDe8h2CDGP7wxLWOtPPqKbd2G07bVhESbGxjA9NY3JWg22WUfYsoCtF/0iwqTsFGI7uHOyan0lcDY/iPUTMp9NwlpEYehfosi9mGWZt1zL33SkkCEFlpdxSVDBUw9ejW+66nrO6fraqrw4CVw4Ad60F86MR5DABRF466f+xr3nf38UD5oMamIaea6AhvIPVxfkcOrcVgdaxC4I9cDt3HMhts6t9cyJXVuEhbLOy1jAOoxVq5ibmfVv2SMfpz6FLPc/M1AHXRMHriuxQDuMgNyvsjZs7aXJGQmgASRJgnq9jjzPEcUxdBggy3MYa6EDIIwDhPJ7vYlZFeH2iy7Fd153C+d1O6yvsDo7mwBv2J3dvqzdgBD4it95j/vrL34edmYOi0sNhJVJ7+evQnkcU4gNSDNteTF6KcSKGdwT36uvBsT2yWMt4kCic5oiaez4BPbt3oNqpQKTplDWnCbE5A38+oiJncq/5cB4QhIYEQJtISZuie3cYn7dmNS/Fd7eB85pWbt9NEV5eaJbofKtgbYWodbIJf9Yo4k5FePWvRfjnkuvxZMnxji/G5G+xGoONwHeqMPdfiz9kBD4cLbo3vQLP4cHncFSnECXaz5wghdhbi1AwpnVGXaL2JA0z3AX04/ia4KsnVtMLGJ+HaK1CACMV2vYNTOLqfEJbx1rrtRRisLTcpENNwiWngSGh8BGQmz9+5XVQB7tgB6tT4m4WLEaaZoiT7S3jtnlOiZShzv3X4p7rrgeT65WOMcbni7Bko4oAd6kI9rwrPb2E/jZBz7t3vwrv4hd11+Lzx89CpRK4hPmAyicy/JAIbb97TRUV1wdwU8XYmtuiRomy1COIsxNz2B6YhJxGHlLmYgxrc6VuHmoKLCwJDB0BM7qmtiyiK0P4tHeTyxi7R8RZyLEqibwbotprIEkQGNlGViq42BpDNdO7cKLbn4yboskUyA3EiCBQSXAG3RQW4bl2pEEvu5//Z7743/9FOzcNE4uL0OXKthoKkwhtiO7wdZU6qyjt/QmCczhvLuTlhxhzmGiVsPeXbtRKxcuiSLCSknsJ3F8CGxNc/AsJHAhBHwS9vYasZYrYluAtZO0e1t3S4C19/cuigACScyeSZ5ABxcqIA6QwSBtriA2FlPQuHF2L1566114khKfRm4kQAKDSIA35yC2Csu0Ywn8lXPujf/jHThW0pjXCg2EyCWs+BkbBdiO7QJbV7FzCTERYS0xJmvDxsplzE1PY2ZyEpEOirVhziGOo1ZURD4Gtq5ReCYSOH8CbTv2ue5AL77WCbb1Ye6VUwiMQuCVmYOT7BSJBiINC4MgTVFZbuLq8Wm88s57cIsStcaNBEhg0Ajwxhy0FmF5djyB9x19wP3we38Z6dQEjiFAQ4erARL8G9B1eZ12PAxWcPMEzkOISbTEPbOzXoiJe6Iyxq8bEyHmc4YF8hKAj4HNNwKPJIHNEzhzLVhbmLUFl38enHH6tbtVwTmNSIcIcguTZl6M6VKINHAwpomqUghPLuLG6d3473c/jzf65puKR5JAzwjwxuwZWp6YBM5N4Ds/8iH3gU/8HY6PTWI5jPyOPkLWehEmv8saMm4kcDYC5yHEqkkJe+bmMD0+BkhwmCxHIjmIFPwifx1J32MfYwcjge0m4CMktlTWaZERW66H68XYqstiy4VRjrNKoWmBOIpRMgoqy31gHjF8NbVF5jIkSQis1DHtgEuSGn766S/gzb7dDc3rkUAHArwp2UVIoE8EXvL/vcd99LHHMR8nTxRibUFGIdan1hmCy3YQYrI2bP+evZioVlBNEmhjfRh7ySsmURSts3CSy459bAgam0XcaQREXMk6L5+4+YyIiG1h1q6z3OrtEPd+7WdLiC1LZNQgRAkBYuMQWRT3NgwyZXGiuYA9+3fh8Ue/hFqa46kHLscP3vIMzvt2WmdifYaaAG/IoW4+Fn6YCXxg/hH3Xb/6XhxLYqSBQqYcTDuBTBHR3ueM8RYL/8BW/gHso2itX1ZGV8Zh7gYbl/0CR+giSEexRkw+r7niCj8xi7VCpLVP7CxpE6RbhWGIzEpHu8CL7FzarBkJbBuBthCTC66PjLg+OId8558ALcEmw35bkIlFLA8jWOsQiggzDrE/kbxgcchDwCQKi41F1GplJGmOiaUUt+w6gDcfeRpv+m1raV6IBLb0MU+cJEACW0ngFz/7GfczH/pdfEk10KzGiCZqqC8uAs0MqFRa4e3ldalGaJR/42mh0JSIxP5VahEhj9sOJNCaKm3YuqKojOSjUwh1ACuBOHKD6fFx7J2bQ61chnbSY4poisW2/owtob8D8bFKJDDoBM5cI7b+7lx1TWy5I7ZFmf/0L+QUjAqgnUJkxLpWqLVcW79GLNcOcRJh6eQpTJcqmEkqWHz0cUTW4ciTnoQvu/hK3MqM7YPeRVi+ESDAtyIj0Mis4mAT+J6/+kv3ax/7U5Qu248HHn4AGBtDeWwCK6cWgDCGX4FtFUJbRMiSN6GZmDl8jGNLITbYzbv50p2PEGuJKq20zyvksgyx0tg1NeWDdES6CMxRiDDn35R7GdYe+Z2S0B2bLyOPJAES6AuBIu2JhvbPBrmlHawXYg4NsYZ5/0WDkgoQNw1iA5QkamqeozJew8279+LNh2/gzd+X1uNFSWCNAG9C9gYS6DOBj+XW/dSH78Mf/+c/oT5VgYVDVBlHttRE7EIoaBglbz/VurwzMn1uTa6fEFerzxXi5beOQCcxJomZg8C7HyIzCJ3DeLmC3TMzmJmYgM0yCrGtaw2eiQQGioA4IbeDfhRDhbyogxdjRgHNPMX4WA3NpUWEmcHu6jiax09CNVLcuvci/ODTnsU54EC1KAszigR4E45iq7POA0fg9xaOux943y/jS2WFhVDDLDcQxTWUUnnQKr+GLA0A62fcgDbOL/SWh23LxjFwdWKBtojARmKsHVnTGGhrMZaUMDs5iZnJKR+gI282WxbT1iKTdm+hRWyLGoenIYH+EyisY7J+rFg8LP8W65gE7FDyPLEpqkpjLHOwR4/j8MQsXvSkJ+MZu/ZwDtj/5mMJRpwAb8IR7wCs/uAQ+LVHH3D/7b5fw8lqjPk0h9YJxrIQgdPINLy7SRYVCwZ0vl6IDU4dWJIeETjHSC0BD62sEctzxEGI2ckp7JqeRi2RtWEOzuSrltNWali6JvaoiXhaEtheAj4yh/eSMMqH8YAS93VXuCvK3/PQoZ43EJYCVABEx07hYhXjhdfdhhdfdgXnf9vbYLwaCZyVAG9EdgwSGCACb/rfH3Hv+5uP4FS1BBPGKGUBQqu9u4mIsRURYloWA0lUPHn1KfHxuO1EAuczOIsQM1kKmYZN1mrYNTOLyeoYIqW8W6JWay6s7SAd3oJKi9hO7DKs00gRkCA8xguuTMtzIIDyIkwjaoXVTZEjQ4YgAqJGA7tzh2ccvBLfdu1t5zO8jBRNVpYE+kWAN2O/yPO6JHAOAq/8wH3uI8e+iMcksILV/g1nnPvIHEhDhzSwcOKXKJst3oJy23kEOrVqEe9QwtHnKMcxds3OYmZiCnEQeAuZhKoPJFiHR1OsJ2z/5heW+H8wWMfO6zms0SgQkHtfIfcBeDIVtKxioXdPDIz2L2eyPEU5CWGbyxgzOe44cAjPvfp63BrWOg0vo4CQdSSBgSDAm3EgmoGFIIE1An+bW/eWD/w6Pnb0i2iUEskIhXKmEErIYlUIsbTloggTUIgNc+dZtUytVWL9oHzaAH2G6dOHpHcGylq/IH/v7j2YqI15S5hJM4RawrysF2It7XWGDZVRE4e5A7Hso0pArGHaFUIsl2iIIsZ82B6JoCov8IAgzzEZRzAnTuDiagUvveNOPGt8F+d9o9ppWO+BJMAbciCbhYUadQL3Lc67H/yd9+H/Lh2Dnp5ClDqEmUPkFE4tzSO+aBbpqZNAWPGh7Qd165Smxo1yDrQzm60ltNp/XtVoEn5evAnFD7G1Bbp4491YPIVdu+awa24OSRR7d9UwCPx3kthVPp/YO9bCuxTfDW7/GdR+zXKRQL8JiEUscDnyPENUKiNXGvONJsJSGXEUI11Yxr5KDc0vPozrZnbhy297Ep45M8ebvd8Nx+uTwBkEeFOyS5DAgBL46Yc/737kD34L80mAbLmJOEyAeoa5PbvxpYe/gNLFB9CYX6YQG9D261iss42+ZyRvtdb6RM1eV0lkRK0RiOuhdcjTJsqRxq6ZaUxNTfn9XGt/WRsmvxcx1Ci1OrYFdyCBISOgnEUcAFmzCR1E0EmMxSxDw+SI4gTjOoR67CSuGZ/Bsy+7Gi+89CDne0PWxizuaBDgjTka7cxaDimBN/3n37uf//AHoCYnUG9kqIVlNBpNROM11FdW4FdhD3C0DlrENuh454qEuM4yZrMcYRT5oBt5lnurWBSGEIGWN1ZwYO8uTI3VUK1WIdZFL9agIBYz2Wf9CjAO9kM6CLDYJHAWApKoPdSAsg4mN1BhACQh6mnTjwNTQYzy8QW86MYjeM0VV/P2Zy8igQElwJtzQBuGxSKBNoFX3f8H7oOf+DjG9+/HIw8/DuM0pnftxvFHj0LVqoOsw05zpztbi9I18YlU2nE0/KdEx/SRD4uVXCKuvJUsCFAKAxzctxvVcoI4jmGMgWmJNRFiba/P1fPxliIBEtg5BBx8oJ5KqYSs0URuUlTGqj6kfbq8hGpqcfelV+JZh6/DLUmFc72d0/KsyQ4jwJtzhzUoq7PzCHzcZe7HPvSb+LsvPoClIERThbAqQJCU0MjSgU7oTItYFxax1nqvPMu8DIujCFmWIU9TVCtV75I4N1FFEijvsigCTcSYUtr/WxwSRehSiO28MYE1IgEhYHKHkk/c3hBVhljGgrSJcaVweHoOL779ThxRFGHsLSQwyAQoxAa5dVg2EmgR+Kitu+979y/js1kTp5QkeI6AMIQxOYXYsPaSTq6JDt4NMUslT5hCKC6JxsAZ69eE7d+9CwlyROKeJGvCJIFzywymWuvKCiG2diEO+MPaWVhuEjidgIOCDhL/ciaARTlUcEuL0EuLuPmii/GcW27DMysMzsF+QwKDToDP5UFvIZaPBFoEfvfk4+6//c5v4ES1jIcXlmT2DQQacHZgGdEi1p1FLBC3RElbICLLWkRBiLGxMS/EJqoVhHkDQbv9Zd+WIBM/Rpmo+c3nClvbOOgP7O3CgpHAeROQtCYISkjTFGHoUIZFUq/jUK2GZ111LV68+xBv9fOmyR1JoH8EeKP2jz2vTAIXTOAnH/qs++kP3IdTYYCVsJXE0ykEtnBBE+OHRLNfZwQpQp+v5e897btigVnvon1QiJ1HE6+Owm3hVEQ59GvCcoNKknhLWKNeR61cwf59ezExMQEl0dEkj5gz/iLijii8rQTtsNYL9UKCnT7Mc9A/jzbhLiTQcwKnj9lFFpLixYukofDjdqsMfoRe9w9xPJZQPA0Z+2W9qHLeErY/jPCcG27EK/ddztu85+3HC5DA1hDgzbo1HHkWEtg2Am//9793933kT/AlZ/B4XAEQoZTJ2oAcTZcjGqsgK4UwSwuAjhBY+B8nkffEgLZ617fV2c4VYoMsBKUZokDDSdQzsXjJTEv7NM1FX3IWodI+QbPLM1STBLumpjE3NYk4CmHEJUmfPR3z6S1K18Rtuzl5IRI4TwIS9VDDwSiHNJCxubj3tVNIcoVQxm15uQYgV0XuP3GCCCWHYG6QO4tTponpiXG4Yyexy2m86Nbb8bUXXcp53Xm2AXcjgUEgwBt2EFqBZSCBCyTwg5/4E/f+++/HZ6MS8tIYSqlFKBP4MMCSSeGUASploJFBWyDy3ovKP/TNqhijEOtn1EYZfLWs4Wq93RahDKXXhLJziIIA2coKIgXMTkxg19QkakmCQHYV8eaTPHMYv8Dbh7uTwAAQkPHXeg8GEWHG38vaC7HIiJdDIcRkE9El/4ksE2tYIPe8slBJALO8hP1BGXddegW+9fLrOBgMQMuyCCRwIQR4014ILe5LAgNC4B9c6n7nb/8a7//43+N4EMCUI6QakAh7CCNoHcJKnrE49q9UQ1NYxbxLi3JoyhNe/tEKkd6ravXbItXv62/E1Q++PsqhKgSVkqgb64SYFSGmYRpNjJVLPjjHdK3mXRLluCgMkPvgHBzGe9V/eV4S6BUBGYdz8UEEEFoRXoU1TF7NiChrey7ILlpyAorLcUu4mQCItUKSZqg0Mxw5dBjPufZW3Ko0B4NeNRjPSwI9IsCbtkdgeVoS2A4C3/Znf+z+8F/+EQ9HOdz0ONL5BaBUxVhlAouPHAWqkldGyctTRDKxlzxUIsRC59/E+q13nol9zyM26ELM2UKISch5EWGyvqvdJv4FuTGoxDHmJiexe3oalTiCTZv+70GgKcS24ybjNUigBwREhKVBsRaskikk/mWZglUKzUAh86YvcV22ftyOfUoKILU5moFByTpMLjRw+8HLcNc1N+CpcZXzuR60E09JAr0mwBu314R5fhLoIYG/y3P3C3/4IXzoc/+EpckqsigCmjngEiRhCc1mtnr1oPVAF1UmkwBxUxSzWA91GIXYBm1fDL5uVYiJBvNBNsRdUanCepnl2LdrDrtnplEOZb2fhXby42CdgfMWNA7jPbzFeGoS6AkBWa/bDMQ9WaGWAqW8sIz5IByh8iLNRAq5D8rjkOgAylpkJkUKg7Hc4M7pfXjBzUdwa8xcYT1pJJ6UBLaBAJ/g2wCZlyCBXhL4SLrs/seffgh/+G//CDs7gzyMgZMriMZmkIkok82LLgstPxJpD9YLMCtWmB66tvXbItXv63dqd28I89ENizffbSEWKI1IB0jC0Aux2clJuCyDbaaIgwChBrI8L96YU4j9/+29abAlx3me+WbWcva7997YG+gGSRDcAIgwKcnayJEtWbKtsOWwZ345wjMxEzF/J2ZiIsaOiZj5MT8mJjgaexSyTdke0qIoiaZMCgLFFSRIAgQIgRuIrbE0gEavdzvnVFVWTnxfVt0+t9HgbXT37b51z1vg4b23z6mqrCez8uRbX+b7bYWZ75PAjiPgDNSkQ4RYJ4dGxGIXpinLNPMsBnJ5lYX22yLGbF4gciX67RYOJW384/f/HD7an+c4bsfVLgtEApdPgDfw5bPiJ0lgxxL47PnX/B88/AV8583XsNpuY130VwaYqKVTE31YaKALvOEdkkIEmbhx2WqR+PZc2o0WQjf6/D+TatX71rbzkqi5dDLoMmglCdIoxr7FJQw6HXSSBF6EVyEJnC0kv5hExEpxWqMQ257Gy6OSwDYS0OW5GvcOlvWybFemJuozMwM46zG2YfZCGZWwRYF0lGPJprjnwM34wP7D+O29BzmG28Y64qFJ4HoQ4E18PSjzHCRwHQg8PDrv/9dP/zs89voJJAcP4ewohymriJd+y4sYczL/DVHu1B65MJKLbPu6gRsthG70+bcUYjINUfJ/ychLpiWWJWJr0E5StJMER267DT4rVIQlxqhbIjRnnIeVNWIQ58Tr0Lh4ChIggWtLQPOFydRwE5xs1UU1pKOINJ2FxxiFuHLAJEAkxhyrYxzpzuPXjr0Pf+cARdi1rRAejQRuDAF+hd8Y7jwrCWwLgYeXz/lP/OfP4aFnf4zk0EGsl0C2vgoMeuJ5DKycBfp9DNIOVl59DXYwe1VTE7cSOltd5Hbbx29Vvq3Ov937i5gqXSnpw4KNfZ4jBrBnYQH79+zVBfpqca+DtpB3qE70GqaWbk7evRVvvk8CJLAzCMh93DIJ8sJhiBDdNpHVxOz60MUarKwvo9/rILFAeeY8bk/7+J0HfgG/NrPAsdvOqEaWggSumgBv5qtGyAOQwM4i8JkXjvs//O438PCzP0I2N4DrdXTKmz5zTcXMYwQUDp3BDIZro6sayW8lVLYis5UQ2mr/rd7fqnxbnX8795dn37ImzIoK82WwpLcWc/0+FufmMNvrbYiwkHNMJ5lqNcrfEgmr0sNthYHvkwAJ7DAC+nDFBcdUFxlkKNVASe5ruc99WaCbxoiyDNnpMzi2sA9//76P4OMzSxy37bC6ZHFI4GoI8Ia+GnrclwR2KIH/ePxl/wePPIwvv/Y8yqU55KUHshxx0laL9LKU1eEpkIlV35VfxFZCZasjbyWEttp/q/e3Kt9W59/O/VWIOYc4ioEyTD8U8bV/zx4VY+KOKC5pdQRs87WqJKtMWLaiwPdJgAR2HAHpep1HGqcaERdTjsJ4lLFBYUuURYa5JMX4xBs41l/Ab33oQfztPYc4ZttxFckCkcDVEeBNfXX8uDcJ7FgC//HU6/4TX/sCvvXSc8hshJnZBWRrY5RxjKyXAufPAWmXQuxn1OB2CzHj1S9RBVc7ibE4O4s98/P6e5lniELsa1MJxZxD1pWE7cJvO7YhsmAkQAKXJFA6IIljWFeicLlOT4zaMZys580zxMtruKM7i996730UYWxDJLBLCVCI7dKK5WWRgBD45PnX/L/88z/F0y+9hO7CEkZFiRXnUMx0w3S4Qh7LXnkmsa2Eyla1sFVEaqv9t3p/q/Jtdf7t3F8iYpEYU+e52tTvmZ/D4tws2nGMqMoVFuJesmxfol+SdEB/2ZBfk5JsKxZ8nwRIYIcRkAcxkr6iLDV9hTxfMVYerpRoZTkORS383fs/gl+f28ux2g6rOhaHBK4VAd7c14okj0MCO5TAH556xX/qy1/CIz/5MbJ2GxgMsB5FQBoD40wTCF/ptpVQ2eq4Wwmhrfbf6v2tyrfV+bdzf/VKdMGEQ6Yi7t+7hJlOB0bW87kCaRzp2r66dtSYQ4Zo6nIZum418tgKAt8nARLYeQRkjZg8VJHpx2rSYeCKTPvkGWOxz6b4nQ//PD42u8hbfOfVHktEAteMAG/wa4aSByKBnUvgD0++6n//4S/i8TdfhxsMUPoI49EYJpGJcVe+SGwrobIVka2E0Fb7b/X+VuXb6vzbub9YVUtqt9luD0sL85jpddGKLFDkGhHTXGEyd0kFWHBIFBFWi7ELTopbUeD7JEACO42AmO8k3iCXGQotC5tauNEYvczhvfP78cD+W/A7t9zKMdpOqziWhwSuMQHe5NcYKA9HAjuVwL8996b/vb/4PJ586TjavRmMPDAWISbTYcSJbyO64itb9MqeTy5I37/QXdS/qlC58oAathJCV8tyO4WUTC28uPxhCmFdao/J82uiVt3CL7IMpGUiHFjaq0JMJLHPc80yEIl7mnNqZe3ld3VJlGhYiIrJ77UQYyd+ta2E+5PAOycQ7uJw9+njEf0H7Sj10Zbet9X9qp+RBy+SJ0x/hj2T2GKUj+FjgzSyiFvU4BoAACAASURBVIYjHLAtfPzovfjdm2/nrf3Oq4V7kEDjCPBGb1yVscAkcOUEPn3+Tf+v/uQzeOK5n2Jwx+04vroG9AaIHeBHIyQGSNopRqZAPl4D2mkVjgFMKcYSYdWSTo+rfSSuQohd+ZXc+D1FiAVxGrrRMOgKA7EwOvOwMr2wKDRRs4gqfcuXKuASDxy75TbNGZREMeI4CutFJEbpZM1IEGL1sS9IuFAHdefNTvzGtwWWYPoIhJVc0iNWOf7E5RQO3pRw1qOwHqOygBEzDiuGHAaxi5CWEVJnJXMYVqIRktigW5SIz6/i1lYPv3Hfh/Hrew/ztp6+JsUrnlICvNmntOJ52dNL4E/OnfR/9FcP4QvffxLFTbdgRQw7XIlOEkNmxo3ykdonoyW26i6ACo949YmuSACJzGxIgatYY9bkWghCTFd6VRGr2lQjGGyEkJXR9V6ypVEMVxRweY5Ou4WF/gCHFhaRiGlHFGn0TF4i0iS/mPyshViTObHsJLAbCejqzOr+DzY68nLw1mk+sFJMN5IY6+MxvJPutI0UIWVIVBhYsalvO8QuQ3p2FfcuHcBvfuABfKQ3x3HZbmwwvCYSeBsCvOHZNEhgCgl85vRr/tNf/is8cvwVrKYpilaELPIoJL+YCAdrEactuCyICK+Bmaq7EH1RivwI65Yq+TF1FGshphOTqumDG9Gwyu1QIbkCkfCMInVIlIjY/Nw8Du7Zg34kDoliiFhF1bxXAVa/KMSmrlnxghtCQKLhURki1hIBc1YSMpcaEavdTH3h9AFMbBOUpccocyi8R5S20E4iJNkQOHsO795zAP/FBx7Ax/oLHJM1pP5ZTBK4VgR4018rkjwOCTSMwJfysf9/Pvun+OHpN/HC8CxG/RRlrx2iYJk83Y10yqJEwgpZuKS9hde/o+C0rE9+p1mIie9ZRaWKgl34q1rNFaYl6vo7j9hG6Pe6WJxfwMLMDGLnVIhNiq/JZrTVGreGNTkWlwR2DQE123BBcuWRRy7TEaPwYCoSsVXKdO8x5roDRMZibTjEWNJSdFrIYwOsr2PPKMex2UX88vvvw8cHdEfcNY2DF0IC74AAhdg7gMWPksBuI/DltaH/1Fe/hM99/9s407Ew+5cwknw26zlgEliZQiOpxtSxL6x7kk2MPcI2vUIsSNHqteHEcWHBXDA/8Wq+IdMRjS8xN5jB/n170ev2YMsSiSZzDhEwpSn7VNExirDddrfxenYTAXm4ImJLtsIa5FYiY0GYiRCLS6BrY3VCdFkGG0WIuqmKtbUyQ7q2jo/MH8Rv3/cg7k+6HIvtpsbBayGBd0CAN/87gMWPksBuJPDw8nn/p48/gi88/QSeG60CMwOg3QNyUWDRhstXcO4TJ7DakKJaCzWla8QkwfKEReKGMNVIWOWKJiJMY2alC0mbFxawd88exFGM0foaUiMGKJWkpQjbjbcXr2mXEqgftOjtrY6mYsAhd3N4eCWRbln/OV5dQRpFmBn0MB6v49zKWQzmBrj34M34e0ffh5+zHY7Ddmkb4WWRwOUQYAdwOZT4GRLY5QQe97n/1Ne/jM8/9QRedjnWex3ISgeYVENhkQsDixIy/UZGGTI3Uf6heu1yPpe8vLcRYvUATQdjajNfopumWJyf14hYmiQhiatMU2JC5mlsObzmXUBA5gKUYmqkroniiGqDeYeXRBThGU2eZxoR77USdCRF4PIyWt7h3ruO4m8efR8+asSnlhsJkMA0E2AnMM21z2sngYsI/G9PPe4/9c2v469XzsIvzKs9swwubBGEmER7ZD0EYgn5lGISFsTYNG5vEWJ1JMwHgSXTk0SIlQ4Ls3M4fPAguq021tdW1RVx0OuhyDO1rFeyE9MT6zVjnJ44jQ2L19wEAqUJBh2yiWmHlZe6GokQEwMfwEYWsfXw62swq6s43O3iQ0fuwv13HsP9psXxVxMqmmUkgW0mwI5gmwHz8CTQNAL/xw+e8n/0ve/giTdOwCzMIxO7+iwHCgmLRbCtBKV18rgXsLGucZrKTazmC4e400FkDbLhCL4o1B0xlkTMRQHjHA7s3Yu9S0v6b6U4KBpxULSVTb27kP95KiHyokmgmQREiEniRU01kctaz5DOQkJhxoZ0FNZ4tMWkZzjEIgw+fPsR/Nd3v4/jrmZWOUtNAttCgB3CtmDlQUmg2QR+7+Xj/j989a/wxImXMGqliHodxO02xnmGYriu+bFst4syKy44tjf7kt956SXaJeJKEja7Up9+i8iSKYlwTs049i4uYmFuVqNf8m95nqtoEzt7Sdps6gVi7/zs3IMESOAGEpCpiaNshHa7jSiK1Z7elRIPC2tHTV6gIw9rlldwy2AGv/ze9+Ef7r+JY64bWGc8NQnsRALsFHZirbBMJLADCHzq5Bv+X/2nP8EJn+HlbA1rMg8xSWCTFLbwKMYZbNoK6yGmcjMqvsQVTbY0TXU9iAizGAb9dhs3HTyoyZslGlbkuU5FFBEmHa8mbJYM2txIgAQaR0CdYwuHJElQRAYjV0g6Z6RxgtiViIZjtFZHuOfgYXz0rnfhN/bu53ircbXMApPA9hNgx7D9jHkGEmgsgb9cX/X/4at/iT/7/new3IrQWpjHWJI8ZyXa7Q5GTpKYTmc3ogmtJQ9YFCGJYo2E5dlY14ctzs5qNKyTtpBYEVteRZiIL8klJshkShOFWGNvDRZ8ygnI/R57q/dxbkoxmFWLVFM4tPMCg8LjXYv78cvveR9+aWZ+OjvJKW8jvHwSuBwC7BwuhxI/QwJTTOArq2f9Z594FF/64VM4vrYC3+nARinGeYkySaZbiBUF2q22RsKy8VinKM7PzGD/0hJm+324vNBcYvIqS6fTEq0KsyDEaMYxxTcWL73RBIwkus+chLYRJzHarRjleKiJmg+0uzgyt4j/+YFf5Bir0bXMwpPA9hNgJ7H9jHkGEtgVBP6n737Ff+6xb+Pl4TqyVoo1sWdvVTb3u+IK39lFSOcZSc4gYzRha1k4zA9m1JxjploTJu+JCNPcYvKSjACSc8iLMCs3HBPf2Zn5aRIggRtNQO9oG6MsSiSSJ9A5JOvr2JemuP/Infhnd7+f46sbXUk8Pwk0gAA7igZUEotIAjuFwP99/Bn/r7/yEJ44+wZa+/ZifS1Te/tp3KTzTGwEJ46SvkS/08W+pT0aEZMIWTEeo1XnDBMxZoIQExE2ubETnsbWw2tuOoHCWPheD+U4R7o6xELucGdvBh84fBP+0dFjvK2bXsEsPwlcJwLsLK4TaJ6GBHYLgX97+hX/me9+Aw899ST83DxyG9ZHyUum68hWStRHXxeuWtye1dy5SmIsckTer3bRqNHkdrFcUS8yLxGm+jw+7H81diEX9YBSxrfb6nLWH5HrTcS6vyjQbbexZ2lJ84WpFYe4JgZHDpmDGK5NzxVKK9MT5aXTE3dLw+B1kMB1JlDfi5e8h7ZyETJVz6E/6yOIBX24iLqvuXBJXvsq+XT4CRTeI3Ues3mJO3pz+KW73oW/c+Agb+nr3A54OhJoMgF2GE2uPZadBG4QgW+cfMV/7gdP4vd//D2cSSJgLcOg1UM3bmN1fYjMGrg0QRkFUaKjFsmrU3iYokDLxkg7bSy7cSXWSo0YhS1Ej8JoKFhBh5GP1Vw9kb5kVbxHYcUsZKsR19tAqoRRsDCsB1+VXgpnhStKREkMJ2LKFUASI2q1Qg6w9SGwuop98ws4sH8f+v2+Ci9XyFowiziO4ZzkCXtr+X7mAPIG1SlPSwJNInDxXTV5O1/OwEbygJVisqH9R1jJKY+KrDcbL4l2qRFPZFH6UhM4+9iggIfNRpgvcnRHGY4evAm/+L4P4ZdaNOVoUhtiWUlgJxC4nP5qJ5STZSABEtiBBP6Hn3zXf/KrX1InRbG1P3V+Ga3BAL7VxkhEiE7N8yp0EmMRSaKd3ME4GQABeWJRauItjY9diBxtCDFVY2H6YyXE4tIGIQaPPBIhJvtdwRZCaxvaT89UB64qISYCsKyiWEaSMIsw9KUKLnFHXIoTLPX7mJubQ6sSaCK+JNolboqF5BjjRgIkcM0JXL0QC8JK+qFw31d9jPQzVUSs2+5ibXUFWTZGu5UiSSIULocrHQZlgf3ZGA/edRQfPHoP3m/6HE9d81rmAUlg9xNgx7H765hXSALbRuCJ5TX/7GgNn/jCH+Pbr7+I4eIAkChYuw8MJdGxQeyMztBToROFKXniLpgXBWwcqcypDS3qaJg8pd6YsrgRFQsRMestbDV6EhEWnmhfwVY/Qp/YdaNDrA4pZXVFAWMjzRckIsuJO2JkMeh0cNvSEnpxrCJMP+tcMOGoph7K39xIgAS2h8AlI8sTD1N+1lml3yiqh0CxRNk1EmbDIyEx4DHA0OWIWwlimWecZYizHN3SoG8jzJXAr7zn3fgHN3M92PbULo9KAtNBgEJsOuqZV0kC20rgC2vL/g+++TA++4Pvwi3MiCOFWFkAmfx/LIspUBQOPjKIWil8FGkOLuskshQmBoWoWHh5nTYkMxLr9RthiqKu29B1YvVatDpedQWXdwkhdvFRxOHQi7DS/0w11RDo9XqY7/VweGEeycTUQ5myKK96oz39FdQLdyGBa0Fgi+cz0re4MMMZiU53lnWuYV1rYYE88igSi/XROrpJgj3dHuyZFZgzy3j3gZvwi/fci48t7OUY6lrUFY9BAlNMgJ3IFFc+L50ErjWB//abD/t/98iXkC3NYd3lQNKCNSnS3MBnThe3lxIFS8Jqd5MbxGW9VH6zEJMRkv6LOA1OLKYPZa5XXtX7vPMrCZ1fHaqrfru4R3QlbBzDlB5unKkYm5+ZxcLcPPrtFrqJROfC1MhJ0aVryMpSpydyIwES2CYClwiJvZP4uHxW7ukgwoIok1nPuS1ViJWxQRJbmNEI8co6Dkcd3HfTEXz4yN24v93l+GmbqpWHJYFpIsCOZJpqm9dKAteBwP91/Bn/Lx/6T3i1GGFZFrgbGeokiOMU3lpd6B4WZciIR6YubizIektkTKVSFRWrRZnKtsme6yI7+Mu9xBBjC8O22gXtLRaGrkCUpLqmzWcFemlbLerFHTEVQZmPdM2YiDB51cmaayHGiNjl1gY/RwLvnMCmJZ6Vk2F9P291NO2CKmOOTY91TGXKYUqMx0PMttvo5AXmnMGDtx7Ff3OU+cG2Ysv3SYAELp8Ahdjls+InSYAELpPAX62u+k/88afx3HgFLw5XcA4OGPSBVju4KBbikhgDeRgMidiSTb3LVFh5yGqNSav7EBkL6zfUB19HXJVF/GWWa/Jjm4RYJcY2Bd4qgSdlSGFVhC30ZzDfn0E3lUifXEo24fa4OSqmxbtCkXgFl8NdSGDqCOgSr7obqITYxWkmLgVF/RElnUYZjDlkPZiYBomLovQy1pdIyxKzUYzizDncubgXv/7Ag/iV9gLHTFPXynjBJLC9BNipbC9fHp0EpprAf/+5P/OPn3wVf716Cmu9Fly3gzIXEw+ZC5RC9JmGoza5ZASXRRFAUSmCrBppVevGZNCkg63adv6dzEWaqI1gVh12Vr/G+pgbQzvx5LA6JbEdJTiwsIi9cwtITQQr0ymr0ZxG7Kq1YbXwksiYri+jEJvq9s+L30YCVV7CDSFWR7YnImNvJ8Jqd1RTm3OICJNewJSIRYQ5h25eYpA73HfHXXjwrnfj/qTH8dI2VicPTQLTSoAdy7TWPK+bBK4TgT/80TP+U9/6Kr538hWc6yVws31k8uS5cIBpA6NxUFrttroRIss1STIkUXQJRGoVH4ZbspBeXrLIfmO7CiHmCxds5/W0WbClT2MYSbac5/DrQ8zMzePg0h7MdfsaGTOSW0zMrq1B7vONaN51wsnTkAAJVOprU2D8EkJMU07IQxJJl6GmO0YfrlhJNu89cl8iThONbhfjEWyeYyFtYSCpD8+cw3/1t34TH+svcZzEFkcCJLBtBNjBbBtaHpgESKAm8Ogw8598+Iv486cfx9m2Rb7Qw1DE1sihNbeIXETW8jnoiGh+HnAeePM00O4hrsSYdFZBiHmdSrRhb38VQiyJY+QiuAoxFokRxbEKPid/Fw5zM7OY6XQxPxign7Z1Ub+sFxMLDjHiyFSIsZ5JgASuO4HLiIg5X6WS0Cxh4rgqbhzBHEgSwft2jPXhGqKswN5uHz1xd33zNN5z8Gb885//Vd7Z171SeUISmD4C7Gimr855xSRwwwj83tM/8P/+63+JJ8+dgFmYQ5x2sTbOkUUGptOCF6fF4VCjYegNgPVMxY+IMRlEqRCzIsTqPGNbzEP6GVcqnV+aphjL+bxH0mrpdMM8G6vQaqct3HzwINIoQjuOERurdvtGnqyrMYdB4UsKsRvWmnjiqSZwGUKs5qORMLm5xXTHlcEFNfLI2gbeZVhEgs7KCEuFwd98z/vxu3fezbHRVDcuXjwJXD8C7GyuH2ueiQRIAMBnTp7wn3/sETz605/g5PoI6PdQtFOsQdzKJKlPXDkqlhoCs5IUWoSYpn4OQkwTseoasSsXYmF/DxtFSKJgUZ+NRyq05gYD7JmfV3dE60PCafn38DT9gt2+GtfrYjFuJEAC15XAZQgxiVq7vAjrTWH0YYrc5/K7tyXO58uY73bQXR7jzv4CfuP9D+Ajs4u8oa9rRfJkJDDdBNjhTHf98+pJ4IYQeGx91X/jqafwue99B8fXV/FmNkTRa8HMDZAnMTIx9MhloYbk6TKIKsd70V0i1kSM6Xa1QqzIYdsdpDZCPhrDOIfZbg/7Fhcx1+/rgA2lZDGbSDitvWYw6Aj29OxGb0gj4kmnm8BlCDFNwp7nKr5acaJGO/K7vGI4xGaMaLiOnz92L/67ox/kjTzdLYpXTwI3hAA7nhuCnSclARIQAp9943X/Z48+gm/88CmstiyyQQdnxyNZgIVkdh752qiymQ5yZ8OooxZi8g9XuEYs6Cev5xLRJ06I870+DiztwUy7ExI1S0JnMXWsp0JalWAX7Pa9kZUnrEwSIIHrTWALIRZcUY26tMoDFXnYIve5uKDK3zORwW2DDj7+wAP4lc4e3sTXu/54PhIgASXAzocNgQRI4IYS+Lr3/qs/egpffPxR/ODUa8j7HeRpC+OhCLI0CLFKbKlJh1il1XZpIe3PlW06UqsiXsaqK+K+2Xks9AdIZA3JeIxI1oWJ17UIMON1TZiYhSAKyZtNIdMU2Y1eWQVwLxK4CgI/Q4jp4KbKMaiznWE1ql6Oc8Qw2Lu4hLvmF/A/HnsPb96rqALuSgIkcPUE2AldPUMegQRI4BoQ+H9ffd5//vFH8b2XXsBZX8K1Wihk8GRUBcGL5XQtnuqeqww5x8JjpYnQWLWETJJFq4irkoSFmYzVcXRHp7nEZnt97F/coxExcUU0eYFYDDnU7lrOXaIoHfLSqRAzcQRxXCyzgkLsGtQ9DzGNBCRh+0XXfVGAe/Pbm4cr+nykXipa3eJyb4Z7PKzjLLIMLRuhayK0SqCVe+yfXcAH330P/st5rgWbxlbHayaBnUaAQmyn1QjLQwJTTuBf/PW3/H/+3nfwozdOIJqfx5nxGF6mFbU6QCT28lU4LJO8X5IY2gCxDUJMfheBJevLxgXacRtxaXVOoy8NnLFw1iK3IrIcWm6EfQuzWFxYQCtJ9XiaI8yI1bV4edRrwyq9Vw3yJquIEbEpb7C8/CsiIAYa8hBELeWrnO11Kgi1xKlEmTyAqZ60TJwnPGBpIUYu/QA8bBKhjKApJUpTIkliuPEIbW/QGRfYG7Xw4O1345/eySjYFVUYdyIBEtgWAhRi24KVByUBErgaAp8+d8J/7YdP4bNf+QqixXmsWYsV5+DiBF6MPGS60bysIVsDSkkMXQkmLwYfHogTtNM23DCDKcLiMmslUXMEbyzkn4zLccvSDOZ7bXS7XTXekKSv9XbBjONqroT7kgAJXJqAxqZVRIXI2ORwJPwegtnBEGcyOiZ7Wm9QjMYYSBQ7MlhZX0WOAu1uC9aU2jekhUPfAR+4+Tb82r334W+YLsc8bI4kQAI7igA7pR1VHSwMCZDAJIFPvvay/6OHH8J3n3sGo14bea8DDHrI4wjZufNIZxZQjgu1lk+TBL50GI1HKL2DaYW/EYWpjWK8IYmiUxujn3bQTWLcvG8JrSTS9V5OhJ5zmyoguCJyIwESuNYEZBqhpKGQ/3TZpxjf6HTDEO3SaYcTAq2OkqlAq6Jl7XYb55bPYb0Yo9vvotNtSyJA+JU1tIYZjs3txS/cfQ/+3oFbeCNf6wrk8UiABK4JAXZO1wQjD0ICJLCdBP6Xb3/T/8k3v4Y3kGHUSXHWZUBLBl0GGt6SpM9xgm6awliLocuQlRmQWiCJwoguz4EsQydt4/D8EvbOLUAmOupkRkkWXZYblvQUYNtZmzw2CUCTsudRcEKthVdUpaqQJO6TJj11RKwWYGqWKuvBLJAVY8RpjFYcY3h+GeXyKo7uPYCfu/0oHrjlCD5gYo5z2OBIgAR2LAF2UDu2algwEiCBSQJ/vr7sP/nQ5/Hosz/GsB1hxRhknRmYpA2blSjWR5CBXLvVgrcGQzeGS+RRu4zqwvTFXppgodfD3pkZzHb6GK9lMLJ+rMoJNinAKMbY/khg+wiIA6oIMQl6BdFlIAJM3A3rvIEb6QInomBBhImA8xiXI3RaCdKiBJbXMW8SvOfgzbj/9mP4+ALNOLav9nhkEiCBa0WAQuxakeRxSIAErguB//PFp/0XH/kaXhkN8czqOqKZObTiFNkox3iUwYjLYiRrwTzKyKN0Yx3pzc/2sH9xDrPdDqKyQDEukNoOvDO6PkymJ8pWR8bqv6/LRfEkJDBlBNSztFr/pavANpxO5XYNrocXb2Gmokxm1DsVVlaFra6glwHH9hzEzx97L/7u/kMc10xZW+LlkkCTCbDDanLtsewkMKUEvl2u+c9+7av44o9+pIJsJc+AThu+3UEugztjEEWJ5gLrRhHmum0szvQx12+jlVgU+QhZViBJeijLC0JMImNFUagwi8WefsK8Y0pR87JJYFsIaDq+0kJSTOiUQ41yhUhXMOnYbM8RrOqDsYcMXFLn0M8zHOoN8N7Dt+P9h2/Hh9ptjmm2pbZ4UBIgge0iwE5ru8jyuCRAAttO4CG37v/0W4/gy088hjPeoZjp45wr4IoCiFNA8gbNLeDwwgIGaQKfDeGLDHFikLbbWBs7fa5eR8REeIlhRxRFaLVayNQamxsJkMC1JiDTEBNndUqiTFN0FmreUWi2CckHFgSZxKmj0iOWlw8/Zd9e7nDfwcN44MhR/MIspyFe6/rh8UiABK4PAQqx68OZZyEBEthGAp8584r/zCNfwTee/ynOpTGydgvZOMP+Q7dgcTCH+aSNKMthswwxPGT5fuFLjCV4lshCMvHyyPVnkiQqxCQ6drGL4jZeAg9NAlNFQA05xiU6rQ7K2GA1G2LdF0ArgkkieHlEIrn8xhl6iDAXt2CHY8TjAkcO34IPHzmK35id5xhmqloNL5YEdh8BdmK7r055RSQwtQQ+ceLH/lMPP4SX1law/44jaA1mUDgPNy6AwiGFQRpFiAAUpUMZGZg40oiYiC75Wf8u0bA0TaeWJS+cBLaTgE41zELePknE7JMIppPo78PREMO1FRzeuw9YHaI4fR7tUYGjew/hw++5F7+z7yDHLttZOTw2CZDAdSPAzuy6oeaJSIAErheBT77wE/+dZ3+C18YjrMUW4yRCEceQLGGFK9XQQwRZMR4hmsgVJpGwOqeYRMgkOsaNBEjg2hOQiYdyv5XwKGRacVlgXGS6DqzbSjHTamP95CnMlBbv2nsYDx67B7+1sI9jlmtfFTwiCZDADSTATu0GwuepSYAEtpfA7//wSf/DU2/gmXOnsBpbmEEfLo6RFSVK5xBLFKwMpgAyFVG2WoxJZIxmHdtbPzz69BKQdWBRGmGUjVR8tdMUqSRWH45gRmO0XYkD3QE+eMdRfPCWO3GfSTlemd7mwisngV1LgB3brq1aXhgJkIAQ+PbKGf/kyRN4+uRrePbMKZySKFivh9n5BQzX1mGr6Yj1mjARXxIV06f1dE1kIyKBbSHgTYnc5zAo0TIWbRhd/9UrgcOz87h1fg8eOPZu3G/phLgtFcCDkgAJ7AgCFGI7ohpYCBIgge0m8LVi1T/2/HN4+qXjOL2+jixJsOIdXGQvadAhYqyOkm132Xh8Epg+Ag6lz2CLQhMy90qDPXEbx/Yfws/d9S58pDfH8cn0NQpeMQlMHQF2dFNX5bxgEiCBf/PXT/vvvPgcTvQinPaF5g6TCJi8ZKMAYxshge0lEHmHji3Rdg6LSQd37z+M+247io+mPY5Lthc9j04CJLCDCLDD20GVwaKQAAlcXwL/+4+e8i8sn8EbZ05hWBTwaYQisijE1EMzzoqNtnSTRhPJSs6j8FP/SRPQiunARurZyR61Sjyre1+UjFb+DglsZXWMHONS24WDTR5Wf6/21zOzF7++jWYnna1qOJduApduVZPFr9umtMWqWWm73LxpI99oZhtvVx/UZMyagDkkYa6TMddtXu4V6z0iTeAcfpd/azmH+cjgA3feiQ/c/i48yDVgO6llsSwkQALXiQC/wq8TaJ6GBEhg5xL49DM/9E+99AJeWj+H5cRgrRVhGBlkcYS89DBlhHbUQgsRzNjB5KWOTPPIw8cGRqYxykBUco/purIg36Jq0CkDUE1Eq4PRMBAVETaODJwNYkx2CHvVWz06NkEKymBYhGD4qCa9ddbp4JfbFBJQcRQeDFz8Rb5Z3lcPCmoFX6GS/eLQjLX9yUMFaZPhZ2iQMj3Xmgi+9CjzQs+VxDFMCRSFTC0EbJzApJHazo99oeu+pG1aA5122DYWfVgk4xx+eR1db3H7gUM4dvAQ/skdxzgGmcKmy0smARJ4yzc9kZAACZAACfz753/gv3/iOI6vLeMcHFynjTVXotABa4TYR7DOPRNL1wAAFqFJREFUIDFhXVleFijlP0kQXcpvPkQUJFG0MYhkMFpFAkSAxZUQE0Emg94sMig0khAGviE6JjtvKLMwIL5YiGlEjEKMLXZztEpbjepyaUW1QJ9UaptF+6SGD5GsoIvCpwycrN+KU1gbwbtSnjQgMmH6rnMlbJIiLx3GLkchySEiIEos4tgiMQZ2nMEtryAdjnGgO4O7DxzG0YM34bcP3UoBxsZLAiRAAtWDVYIgARIgARKYIPCZl5/3P3jlOH76+gmM0wRFmmp0bK10GDkHH0foxClauUdUlnCSCwleE0SXEgpIIh3UjvOsGtLKADlEwi5MVQwnvBANm5jitRH3mnhqNjHV8cJUsc0xNFbi9BCQuGsdTa3bVCXfL0j6Cd1VK59afBUWGMch+lU/LJAI2YUphEBZOCQS8TIWhXMofFk9aLBwNpxfHj6I6EusRWwk4uvgh2PY0Rid0uPQYA5HDxzC0QM34df37KcAm54myislARK4DALsFC8DEj9CAiQwnQQeXV3133/xOTwmyaGHq/BzfWDQxYrLsba2jpm4DeuqqV8iwEyYoqjTuyQvWWQ3TffSNWXVmhoZ/KZilS/RrXqdmewnw9q3TFOsYxRVsKxarxaEHbvxaWydGoVVIVSJ+0rV1zGtScFfi6+NnwByazBKACfiqYraJiLEJHKra7mgqR1kuq20ZRFhIr58ZLVdaxQ3MvBFAVtITr4SHW/Qg8UAVl0Q77nldhzZdwC/uriHjXQaGymvmQRIYEsC7By3RMQPkAAJTDuB743H/qlXX8QTLz+H4+dPYxgBZbeNNXg4yX8EgwQWLZ266GGcR1mUsHEEV01BzCJAXrm8rNE1Y728RFJKTGHS6CCs09mIlmmYQ9XaBcOESoDZ0lKITWnjlDYiIkoF0UbbCA2nXjd28drC+nPy79IupS2K8K8NNWQKrJhp1NMa5QFBIdNvZYc4gkljlBYqykxZIF9ZxUKnh5k4BVaHsCtDHOrN4v673oV/csddHF9MadvkZZMACVw+AXaUl8+KnyQBEiABfH79Tf/Uc8/g6VdfwunUYiijW1ci9hapiZHaGLaUSAJQOIkiGBVeeSQ/gwiTaWEShejUQqwKVUxGzC64122sHKvW/9RRMem+dejMWplCAhMrwDYEej1RdXIaYjD02CzQAi6RWxdWkknj0miurnOUKYjhb1c6GOsRxbH+nRc58myMqChwoNODXVlHBxZ3HTiM++68G785u4/jiilsj7xkEiCBKyPADvPKuHEvEiCBKSfwrfWz/ivP/QRvjIc4c/4czq2vYazTtyzKOEJpxbkgrBW7YIFvq2iFDI4nzRTC77UNeEB74X09wkXryySSoeeqDBamvDqm7vJr10Od2lpbyAd9tcl9M4iwC1/1oR1JFMwglpCarjXzKKzXCFlhpQ17dT7UpuWdun9KBNfkBSJXopskWIhbmBnlePehm3HPXUfx0dYMxxNT1wp5wSRAAldLgB3n1RLk/iRAAlNN4DFf+GdefgHPvPoyTqyexzmXBev7yGCstuBh/pjxFpE3iEqj0TARZ0VlF16Hui7IsXroXEk4MfrQKWcXBFntukghNp3Nz5ayxjCs5aoFvCZOqITY5nxgE2KsEmIhpUJYYSgiLAix8LM0ulIx5P8qCrRciTQv0Sk8Ftpd3LrvAG5b3It/dPPtHENMZ/PjVZMACVwjAuxErxFIHoYESIAEHh2v+x+/8QqePP48njv1OsyghzXnkHnxv48Qx4naf4sbXVY4RGkHRpNGi7mHg3NOI2HWWMRRpGYJGsEoyxBBk5+SvEk+pdMd65xPZD9tBDQpshfrwpA2wXmvbUISeKlZjC4IC2YbYiIjzoeSFyw0HmlLMqXWw0sUVz6ts1wlJ56HtMik9Ehzh3RcYJB7HO7P4f233ol/cJRrv6atrfF6SYAEto8Ahdj2seWRSYAEppjA133h/+I738DZfIyz4yFWJdeSJG+OIhTeI/cGRWlRegMn5gfWIIojHSyXYuDhJCpRGTFoREwymYlhXTDoMJHFuMyqHGRTDHpKL12XFYqYl3xdcaQiTNIoyEvXGoq/RhyruJecX9KmZAsrC6UFhTYlgj+OrIp9cUBEliN2Dh3ncXAwi3tuug3vvek2PNjucrwwpW2Nl00CJLB9BNixbh9bHpkESIAElMD/99Lz/ulXXsTLK2eqqYtAYcRRMYaxiQ6kIQJMx9YOeZ6rOOv1+sE+vEqmqx+YWFtmZR3Pxloywp4mAsHCRQKtIQomUa2idJpYXCNb4oqYZyrckygOgkumyZYeXtImSEQsL5CIdb0kZx7n6HiLg3PzmnT51qW9ONifxQdbbY4Tpqlh8VpJgASuKwF2sNcVN09GAiQwzQQe997/+OyrePrFZ/HiyZNYdYBPUo1qZa7AqCjgrUW710Xa7eLkqVNq9iHTFyVSZm2kU8x0AC7rd3yJ8Be3aSNQW8qLAHNeJxeilMiqtBdjEEmEVSJfVaTLiNhypUZVExuhbSK0JVfYOEc/TnD7vkO457Yj+M055vyatrbE6yUBErhxBCjEbhx7npkESGDKCfzx2ZP+p2+8hudffBHn1laBNNHXaj7G+eE6+vMLan9fRlbzPonkkrVATqIa3iOhef3UtiDNIxYZFCLCfKnCS6YiSoAMzsHnDqYo0DYWLWOQuOB8GDlZA2bQLoE7FvfgrsM34e/ffCfHAlPbknjhJEACN5IAO98bSZ/nJgESIIGKwEPnz/inn/0pXnj9hK4n8+0Uq67AWKJlFsiqJLzikihRM9mYznl6m4/MUnWS60v8N6sImLgcoshRjjNgnGGpN0CUF4izXHN97ekPcMu+g7jtppvxt+b38vt/epsPr5wESGCHEGBHvEMqgsUgARIggZrAQ2dO+mdfP4FnTryMldJhucix5nK1w/dJjChNYZMEoyzXqYvcppOA5gMzwYBDjDZM4dAyQC9K0I9iFOdXcPPCEo4euglH9h/C3+gP2Fims6nwqkmABHYoAXbKO7RiWCwSIAESEALf8rk/fvoNvPDaq3j11Js4t7qKUZ5jLPb1nTbyKETHNqV/1p49TGXUTGQTSX43rygLecrebgvvVRZ8b/mQrxwb37pGbasvFnH8k3Vxtbvfz6rprY51pa3kQoLsC2fYdCWXOPHk+5qZa3Oyrgur9RTZW7ls/IsqpyCg3nqan7Hnxoe9TjXsZA4dsaYX442iQFR6LA1mcOu+/Ti0sITfPXTrduG7UuzcjwRIgARIYIIAO2k2BxIgARJoEIEn18/6V06cwPNnT+OxU6/hvIG65UmuKEhOMmuRuxJ56ZG0O8jLErkTW/OQe8zY4NAoSiAVESd5pJxDKeuKxCZfcpjFCZI4RpEXwSpf3fbko2XISyWbJLKKRFCFf1NtIe/J/yb+3hA8E5E7+WxpJel1sFq/1PZ2X05q2z6xXaSF6tzYG5+Y0C6b9rPeaEJj+VlvFx/LyfWKWNKwUyVLKzMMEWG2NPDCVpwKVVUJ3+Bi6I1HLlGqSExWwv6ylqus+OnHXcCoctma6nOBn+SV05xyatQi+zoURYGydPr3bOGxdHoZh1s9HNy3HzcfPIhDe/bhQ/1Ffq836H5mUUmABKabADvs6a5/Xj0JkEDDCfxFueZfeOk4jr/6Kk6dO4e1PEMu1uUiyIxBYSP4JNEpjWL6UUAcGiW3VAGXZUijCGmaqtGDCC4Z7Od5gaIQISCaTVaiBcdGTTCtYsNq4t+izDUhsGwqrioBFkJxvtp3Ilw3EQFSt79Ikg+/fVTuYtFVV1X9xfV2fpGbvtiqyFNdxknVZb3dLNwuCv4lSaLXJP9JWgHJxaXiTAUpMDeYEx0b8r5JDi/9d7GRLwILdbwUZrW4CsfSssi6LhHPaifvYMRwozJfETONRN5XseZQ5jm8c0jjCHODARYXFnCw3cWvHrkL95o+v8cbfg+z+CRAAtNLgB349NY9r5wESGAXEvjuyop//uTreG35HH7y6stYN6WuM1tHiTwycHGEUsWBQb/VRZ5lGI3HGhWT6E0UJ7BRHCI5It48VGCoW6MIuCqqI9PhxAZdDSIqYaGRMxEfl+BaR9LqaJmILIkG1WLrWn4Z6bEmVNrksevfxYVSEmy/JSJX7yeuhMKkFp+VAK3FqFznmZVzmgMuspFGEEOKger6y1KjjLK/xB8lKBYijhL5kuilwVo2RBRZze+VSPqvrECSO7QKj04JRKMcBwbzuHXvfty29wA+dvNN1xLTLmz9vCQSIAESaBYBdurNqi+WlgRIgATeEYHHfOlfXTmNl0+dxGtnT+PU+fNYXl/FukRZ4hhOol0iwNIEkUTODHQN2ijPMHYFNlwaIwsTRyrQRITIlL7ERzo9T7YwiW9yrdpb1zpNRrBEhMUbU/M2X9LVZka71BfbxdE1J26UEpELS+yCmLxIvPkqTcBGBK6elll6lNbDtmUqaIjo6bo3md7pSs3dJa80ilWEaS6vjaTcXpMsS/43azWcpsmVJbHybNLCgdkFFV0HBnP423sP8zv6HbV2fpgESIAEmkWAnXyz6oulJQESIIFrQuDR5bP+qTdO4PW1FZw6cxpnl89jmGcqTEK0COjOzCCXSJqsI9N1XRZOpul5ERZAVMYwsk6qWh8Wkgp7FWXybzLlUYSd6hsJCanakfVTwehCBMik4YV+bmJ64MV/X+6FT0bELhUNC8KxMguZ+EAtqOqfGv2qxFl9TP03uV5TIvNDDetpGgGZiigJkyW/m7FITaQGGio4JfInObwkCijTDqNII153Le7Bgdk5HDxwAB+d38fv48utYH6OBEiABHYJAXb8u6QieRkkQAIkcDUEHvfeL+drOHX+LN44cwpnV1fw8uuvYexFcDhIBEkEmgTA1ACk9LBxB96EtWV1pEx+iimICK7heKQiTINmYmChAiasjxLFZUQNTUSharOM+nP1T7muy42SXfylVpuFXIrNJnOO2sVQxVIV4Spk7ZYUPQgy+amaUlfNOcQmRyQSVaJhRVE5F0JFWMtaFWC9VhsLg1nsmV/A3vlFLM0v4JfaM/zuvZrGyn1JgARIYJcQ4JfBLqlIXgYJkAAJbBeBr+XL/szyMs6trGjk7NzKMs6Nx3hD1pdZq2ufZO2YGFpItEyiZvLqdLsqvOq/1bJeHQHDdL4I0UZEbDL6dbEQu2Sk7BLW7xevDasCbG9j0V9PnazWuFXiS9etVaaQsVjDq5KUqFf4WUfLElegvbaG2TTBzGAGc/Lq9zE/GGC+P4NBu4uPdub4HbtdjZLHJQESIIFdQIBfErugEnkJJEACJHAjCHzTe7+KEuvFECtrqzi/vIzltVWsjYYYF7lOeaxFmAq0yuhD3QXVtCIOec4m15ZVUxPrKY2TPzc+t7FoK1x1/eelhNjk+5s+K8YZlSCso2a1eYhGv1QoGrSTFN12B7P9AWbkNRig1+2iZy1uG8ziQybl9+iNaHw8JwmQAAnsAgL8AtkFlchLIAESIIEmEPjW+dN+fThEJkYgZYk319f0p1jmj+Xfsgx5niMrcnVqHGXjjTVnwbkx5CyrX2GK42aTjZqDvNNqtdQYI45iXa/WSlOIJb1Y9acwWEjb6NjwXqfVRq/dQbfTwX29Ab8bm9CgWEYSIAESaDgBftk0vAJZfBIgARIgARIgARIgARIggeYRoBBrXp2xxCRAAiRAAiRAAiRAAiRAAg0nQCHW8Apk8UmABEiABEiABEiABEiABJpHgEKseXXGEpMACZAACZAACZAACZAACTScAIVYwyuQxScBEiABEiABEiABEiABEmgeAQqx5tUZS0wCJEACJEACJEACJEACJNBwAhRiDa9AFp8ESIAESIAESIAESIAESKB5BCjEmldnLDEJkAAJkAAJkAAJkAAJkEDDCVCINbwCWXwSIAESIAESIAESIAESIIHmEaAQa16dscQkQAIkQAIkQAIkQAIkQAINJ0Ah1vAKZPFJgARIgARIgARIgARIgASaR4BCrHl1xhKTAAmQAAmQAAmQAAmQAAk0nACFWMMrkMUnARIgARIgARIgARIgARJoHgEKsebVGUtMAiRAAiRAAiRAAiRAAiTQcAIUYg2vQBafBEiABEiABEiABEiABEigeQQoxJpXZywxCZAACZAACZAACZAACZBAwwlQiDW8All8EiABEiABEiABEiABEiCB5hGgEGtenbHEJEACJEACJEACJEACJEACDSdAIdbwCmTxSYAESIAESIAESIAESIAEmkeAQqx5dcYSkwAJkAAJkAAJkAAJkAAJNJwAhVjDK5DFJwESIAESIAESIAESIAESaB4BCrHm1RlLTAIkQAIkQAIkQAIkQAIk0HACFGINr0AWnwRIgARIgARIgARIgARIoHkEKMSaV2csMQmQAAmQAAmQAAmQAAmQQMMJUIg1vAJZfBIgARIgARIgARIgARIggeYRoBBrXp2xxCRAAiRAAiRAAiRAAiRAAg0nQCHW8Apk8UmABEiABEiABEiABEiABJpHgEKseXXGEpMACZAACZAACZAACZAACTScAIVYwyuQxScBEiABEiABEiABEiABEmgeAQqx5tUZS0wCJEACJEACJEACJEACJNBwAhRiDa9AFp8ESIAESIAESIAESIAESKB5BCjEmldnLDEJkAAJkAAJkAAJkAAJkEDDCVCINbwCWXwSIAESIAESIAESIAESIIHmEaAQa16dscQkQAIkQAIkQAIkQAIkQAINJ0Ah1vAKZPFJgARIgARIgARIgARIgASaR4BCrHl1xhKTAAmQAAmQAAmQAAmQAAk0nACFWMMrkMUnARIgARIgARIgARIgARJoHgEKsebVGUtMAiRAAiRAAiRAAiRAAiTQcAIUYg2vQBafBEiABEiABEiABEiABEigeQQoxJpXZywxCZAACZAACZAACZAACZBAwwlQiDW8All8EiABEiABEiABEiABEiCB5hGgEGtenbHEJEACJEACJEACJEACJEACDSdAIdbwCmTxSYAESIAESIAESIAESIAEmkeAQqx5dcYSkwAJkAAJkAAJkAAJkAAJNJwAhVjDK5DFJwESIAESIAESIAESIAESaB4BCrHm1RlLTAIkQAIkQAIkQAIkQAIk0HACFGINr0AWnwRIgARIgARIgARIgARIoHkEKMSaV2csMQmQAAmQAAmQAAmQAAmQQMMJUIg1vAJZfBIgARIgARIgARIgARIggeYRoBBrXp2xxCRAAiRAAiRAAiRAAiRAAg0nQCHW8Apk8UmABEiABEiABEiABEiABJpHgEKseXXGEpMACZAACZAACZAACZAACTScAIVYwyuQxScBEiABEiABEiABEiABEmgeAQqx5tUZS0wCJEACJEACJEACJEACJNBwAhRiDa9AFp8ESIAESIAESIAESIAESKB5BCjEmldnLDEJkAAJkAAJkAAJkAAJkEDDCVCINbwCWXwSIAESIAESIAESIAESIIHmEaAQa16dscQkQAIkQAIkQAIkQAIkQAINJ0Ah1vAKZPFJgARIgARIgARIgARIgASaR4BCrHl1xhKTAAmQAAmQAAmQAAmQAAk0nACFWMMrkMUnARIgARIgARIgARIgARJoHgEKsebVGUtMAiRAAiRAAiRAAiRAAiTQcAIUYg2vQBafBEiABEiABEiABEiABEigeQQoxJpXZywxCZAACZAACZAACZAACZBAwwlQiDW8All8EiABEiABEiABEiABEiCB5hH4/wH+X3RmEQtEdgAAAABJRU5ErkJggg==;" vertex="1" parent="1">
          <mxGeometry x="408" y="130.05" width="166" height="124.6" as="geometry" />
        </mxCell>
        <mxCell id="kVjLwYkVu-goS-ta3FMh-5" value="" style="shape=image;verticalLabelPosition=bottom;labelBackgroundColor=default;verticalAlign=top;aspect=fixed;imageAspect=0;image=data:image/png,iVBORw0KGgoAAAANSUhEUgAABQAAAAUACAYAAAAY5P/3AAAABGdBTUEAALGPC/xhBQAAACBjSFJNAAB6JgAAgIQAAPoAAACA6AAAdTAAAOpgAAA6mAAAF3CculE8AAAABmJLR0QAAAAAAAD5Q7t/AAAACXBIWXMAAA4sAAAOLAH5m+4QAAAAB3RJTUUH5AMNEyc1Zt06VgAAgABJREFUeNrs/XmYnWd9J3h/7+c559SqkmTJKtnG7GB2DN6wwTadvN2T6e5Jz0zP2zPdPd39ZrqvznT3dDppwAuL2bIHEgh7VgIxawKGBJBsbJNMQkhCCCH7wm4MGPCmtarOee73D9lggsGSLempU/X5wCUkuVT6Vl1G9Zyvfvf9SwAAAAAAAAAAAAAAAAAAAAAAAAAAAAAAAAAAAAAAAAAAAAAAAAAAAAAAAAAAAAAAAAAAAAAAAAAAAAAAAAAAAAAAAAAAAAAAAAAAAAAAAAAAAAAAAAAAAAAAAAAAAAAAAAAAAAAAAAAAAAAAAAAAAAAAAAAAAAAAAAAAAAAAAAAAAAAAAAAAAAAAAAAAAAAAAAAAAAAAAAAAAAAAAAAAAAAAAAAAAAAAAAAAAAAAAAAAAAAAAAAAAAAAAAAAAAAAAAAAAAAAAAAAAAAAAAAAAAAAAAAAAAAAAAAAAAAAAAAAAAAAAAAAAAAAAAAAAAAAAAAAAAAAAAAAAAAAAAAAAAAAAAAAAAAAAAAAAAAAAAAAAAAAAAAAAAAAAAAAAAAAAAAAAAAAAAAAAAAAAAAAAAAAAAAAAAAAAAAAAAAAAAAAAAAAAAAAAAAAAAAAAAAAAAAAAAAAAAAAAAAAAAAAAAAAAAAAAAAAAAAAAAAAAAAAAAAAAAAAAAAAAAAAAAAAAAAAAAAAAAAAAAAAAAAAAAAAAAAAAAAAAAAAAAAAAAAAAAAAAAAAAAAAAAAAAAAAAAAAAAAAAAAAAAAAAAAAAAAAAAAAAAAAAAAAAAAAAAAAAAAAAAAAAAAAAAAAAAAAAAAAAAAAAAAAAAAAAAAAAAAAAAAAAAAAAAAAAAAAAAAAAAAAAAAAAAAAAAAAAAAAAAAAAAAAAAAAAAAAAAAAAAAAAAAAAAAAAAAAAAAAAAAAAAAAAAAAAAAAAAAAAAAAAAAAAAAAAAAAAAAAAAAAAAAAAAAAAAAAAAAAAAAAAAAAAAAAAAAAAAAAAAAAAAAAAAAAAAAAAAAAAAAAAAAAAAAAAAAAAAAAAAAAAAAAAAAAAAAAAAAAAAAAAAAAAAAAAAAAAAAAAAAAAAAAAAAAAAAAAAAAAAAAAAAAAAAAAAAAAAAAAAAAAAAAAAAAAAAAAAAAAAAAAAAAAAAAAAAAAAAAAAAAAAAAAAAAAAAAAAAAAAAAAAAAAAAAAAAAAAAAAAAAAAAAAAAAAAAAAAAAAAAAAAAAAAAAAAAAAAAAAAAAAAAAAAAAAAAAAAAAAAAAAAAAAAAAAAAAAAAAAAAAAAAAAAAAAAAAAAAAAAAAAAAAAAAAAAAAAAAAAAAAAAAAAAAAAAAAAAAAAAAAAAAAAAAAAAAAAAAAAAAAAAAAAAAAAAAAAAAAAAAAAAAAAAAAAAAAAAAAAAAAAAAAAAAAAAAAAAAAAAAAAAAAAAAAAAAAAAAAAAAAAAAAAAAAAAAAAAAAAAAAAAAAAAAAAAAAAAAAAAAAAAAAAAAAANhESt8BAI7Gl/+Hn0qSmSQ7+84CAMCmVpJMkvKVJOPlvc/uOw/AfRr0HQDgGDw5yduTDPsOAgDAplWSvLeWXJ7kzr7DABwNBSAwTWaSnBEFIAAA/flYSn1dSb1zec9lfWcBOCpN3wEAAABgSnw6yXPaOvzEpI77zgJw1EwAAgAAwH27NclVg7J246TWnL73uX3nAThqCkAAAAD4zg6n5GWTpr69dsO6e+9z+s4DcEwUgAAAAPDtTZL8Uq3dq9tJWVtW/gFTSAEIAAAA3977SvLSkmbfLuUfMKUsAQEAAIB799Fa8tykfGncdH1nAbjfFIAAAADwrT6T5PK2Nn/epcvpH7i87zwA95sCEAAAAL7ZbUlesNRNbizpsnvvZX3nAXhAFIAAAADwDYeTvHzc5O23tW3d6d4/YAOwBAQAAACO6JL8Si31Zwdd1pZN/gEbhAIQAAAAjnhfSV6SWvYtm/wDNhBHgAEAACD5aE2u7JKblX/ARqMABAAAYLP7dJLL28noz1MmfWcBOO4cAQYAAGAzuzXJVd1kfGNtanbvuaLvPADHnQIQAACAzepwkpd3KW8v7bDu3vvsvvMAnBCOAAMAALAZdUl+JamvatKtKf+AjUwBCAAAwGb0gVrzkiT7uq70nQXghHIEGAAAgM3mj2pyRUpuXt57Wd9ZAE44E4AAAABsJp9Ncvlo0v7Znz/olr6zAJwUJgABAADYLG5N8oLJpLmhNpN89y/+VN95AE4KE4AAAABsBkc2/nblbU1T6+5rn9N3HoCTRgEIAADARtcleWNNeXVp6trua238BTYXR4ABAADY6N6fUn64JHcu7zH5B2w+JgABAADYyD6a5MpS6he6Se07C0AvFIAAAABsVJ9NckVbx3/WdU1Ou870H7A5KQABAADYiG5PygtW26Xrxxlk995n9Z0HoDcKQAAAADaaw0l+qtb6tuH4ztj4C2x2CkAAAAA2ki7Jm2rJq9JkTfkHYAswAAAAG8v7U8pLSrJvec+z+84CsC6YAAQAAGCj+GiS56bWLyj/AL5BAQgAAMBG8JmUXJlB+6fpur6zAKwrCkAAAACm3W1JXlRLrs9kkuXrLu87D8C64g5AAAAAptlKkpfXUt5aaqqjvwDfygQgAAAA06pL8saUvKqkrir/AO6dAhAAAIBp9YGavLjUeueXm8W+swCsWwpAAAAAptEfJbmiJF+speRJ7/9PfecBWLcUgAAAAEybzya5vKT82a1Jlvc8p+88AOuaAhAAAIBpcluSFx4ooxvGKXnsXuUfwH2xBRgAAIBpcTjJT6fkrQt1tS4r/wCOigIQAACAadAleVOSV5Wa1V3KP4Cj5ggwAAAA02BPTXlpkjuUfwDHRgEIAADAevdHSbmiNJObsjrbdxaAqaMABAAAYD37TJLLh93kT2vXZPnG/9p3HoCpowAEAABgvbo9yQsPdrl+tSnZ7egvwP1iCQgAAADr0UqSnym1vm2hJLv2XtZ3HoCpZQIQAACA9aZL8uZS84payuqpf/zHfecBmGomAAEAAFhvrkvKi7umu3P3HpN/AA+UCUAAAADWkz9JyRWp9SblH8DxoQAEAABgvfhcksvX2sHH227SdxaADcMRYAAAANaD25O8uBs31w7qJDs/eEXfeQA2DAUgAAAAfVtN8oq09Veb0tXlPc/pOw/AhqIABAAAoE9dkjfV5JWZlNXde5V/AMebAhAAAIA+7a21vKgktx/Oob6zAGxIloAAAADQl4+n5MqmlC/UdpKHXPuCvvMAbEgKQAAAAPrw+SSXl3H9ky5ddn/g8r7zAGxYCkAAAABOtjuS8sJx113XNYl7/wBOLAUgAAAAJ9ORjb+le8ugberuay/rOw/AhmcJCAAAACdLTfKrKeVnas2KyT+Ak0MBCAAAwMmyNzUvSuodyj+Ak8cRYAAAAE6Gj6fkitpOPr/lL/5h31kANhUFIAAAACfa55JcsX9l8CdtbTL/+bP7zgOwqTgCDAAAwIl0e5IXrY3H1y4Ma07dY+kHwMmmAAQAAOBEWUnyitT26mHb1uVr/3vfeQA2JUeAAQAAOBFqkqtLqa8ozXhV+QfQHxOAAAAAnAjX1uRFqc0dk4z7zgKwqSkAAQAAON7+JDVXlKZ+fnnPc/rOArDpOQIMAADA8XRTkstLN/z4eLSv7ywAxAQgAAAAx8/tSV44ztp1TdvljPe+tO88AEQBCAAAwPFxZONvaX51UEfd8t5n950HgLs4AgwAAMAD1SW5OskrU7tV5R/A+qIABAAA4IG6LsmLkty+vNfSD4D1RgEIAADAA/HxJFeUUj5f+04CwL1yByAAAAD3101JrqwpH0+t2W36D2BdMgEIAADA/XFnkhcemgz2jmuJo78A65cJQAAAAI7VapKfqcnVs+24mvwDWN8UgAAAAByLmuTqlPxM6bKyfK3yD2C9cwQYAACAY3FtTXlRkjuUfwDTQQEIAADA0fp4kiub2n3u4I6dfWcB4CgpAAEAADgan09y5dr+5o/LMHnY1d/Xdx4AjpICEAAAgPtyR5KXTGq5drBYc+r7Lus7DwDHwBIQAAAAvpPVJK+opXlzm9ot731233kAOEYmAAEAAPh2apKrS+ormjpZUf4BTCcTgAAAAHw719XkqppyeyZ9RwHg/jIBCAAAwL35k5RcXlJvStNk9wef03ceAO4nBSAAAAB/301JrqjjfDyjkt0feFbfeQB4ABSAAAAA3NMdSV5cx+Xa0iTLv2HyD2DaKQABAAC422qSV6bUN5dB1y1fq/wD2AgsAQEAACBJuiRXl1JfkZqVXXsv6zsPAMeJAhAAAIAkuT41L64pty3vNfkHsJE4AgwAAMCfJrmiaZvPjsfjvrMAcJwpAAEAADa3m5JcPntr87FJ7XLG9Vf2nQeA40wBCAAAsHntS/KSNgt7Vne02b3H0V+AjUgBCAAAsDkd2fhbmzdNukP11D0/2HceAE4QS0AAAAA2n5rkrUn56VrqyuLiat95ADiBFIAAAACbzw0p5YWp9bbdNv4CbHiOAAMAAGwuf5bkitT62WXlH8CmoAAEAADYPL6Q5MpDh4YfbdvadxYAThIFIAAAwOZwZ5KXNs3g/fPz4+x8/2V95wHgJFEAAgAAbHxrSV5VUt/YdeNu155n950HgJNIAQgAALCx1SRvKSU/nVJW3PsHsPnYAgwAALCxXZ+Uq1Jz61rc+wewGZkABAAA2Lj+NMkVXcnnSu1yhuk/gE1JAQgAALAx3ZzkyjIpf1S2Hsqp11r6AbBZOQIMAACw8exL8pIu+UBpa3a//QV95wGgRwpAAACAjWUtyatLrb/SJt0uk38Am54jwAAAABtHTfK2WvJTXSmHlX8AJApAAACAjeT6pFxVam7bbeEHAHdRAAIAAGwMf1aSK2o3/sziwva+swCwjigAAQAApt8XklzxhXzyj5pmmIV3/Ye+8wCwjlgCAgAAMN3uTPKSrssHTiuPyK5rn9V3HgDWGQUgAADA9FpL8qpSypvaNt2uPc/uOw8A65ACEAAAYHq9raS8PDWHd+1V/gFw79wBCAAAMJ1uSHJVSm4bZ9x3FgDWMROAAAAA0+fPk1yems+Y/APgvpgABAAAmC43J7lidWbto6NVMx0A3DcFIAAAwPS4M8lLxxm/f7DSZvuHfqjvPABMAX9dBAAAMB3Wkry6lO6Nw7Tdrj2X9Z0HgCmhAAQAAFj/apK3pZaX17SHl937B8AxcAQYAABg/bshyVW1dLfuyv+v7ywATBkFIAAAwPr2ZyW5okn3mZImZe/OvvMAMGUUgAAAAOvXF5NcebCMP1rTxtFfAO4PdwACAACsT/uSvKSMu/fPN212Xaf8A+D+MQEIAACw/qwleVVS3lgHbbfrOht/Abj/FIAAAADrz9ub5GVJbPwF4AFTAAIAAKwvNyS5qku5TfkHwPGgAAQAAFg//iw1V6R2nx4PZvvOAsAGoQAEAABYH25O8tzDSzN/WGrJGe/7f/rOA8AGoQAEAADo374kP1y6+r7ZO1di6QcAx9Og7wAAAACb3FqSV9eUN6ZJt7z3OX3nAWCDMQEIAADQn5rk7Sl5WUk9pPwD4ERQAAIAAPTnxlLyglqbW2cGa31nAWCDUgACAAD048+Tcnlq/UxKsu19z+07DwAblAIQAADg5PtikitKHX+0DobZvedZfecBYANTAAIAAJxc+5K8dNiO31+akuX3/VDfeQDY4GwBBgAAOHnWkrwmpfzy2mRg4y8AJ4UJQAAAgJOjJnlnSnlZaj2s/APgZFEAAgAAnBy/nZKrku5ryj8ATiYFIAAAwIn3F0m9vK3tJ7s66TsLAJuMAhAAAODE+lKSKw+uLf1+l3FO23tl33kA2GQsAQEAADhxDqTkh1fb7jdH7R3Z9f7L+84DwCakAAQAADgx1pK8uqb7peEk3e49yj8A+uEIMAAAwInxzpL8ZKnNoUFT+84CwCZmAhAAAOD4++1aclVqbrXxF4C+KQABAACOr79KcnlT88ldyj8A1gFHgAEAAI6fLyW58u9q8xEvtgBYL3xNAgAAOD72J/nRtSa/8fCmy07TfwCsE44AAwAAPHDjJK+tTf2FQc1k957L+s4DAF+nAAQAAHhgapK3l+SnSlcOufcPgPXGEWAAAIAH5rdryVWT5KtN23cUAPhWCkAAAID77y+TXN50zadK6bLz/ab/AFh/FIAAAAD3z5eSPLcdtr+/Numye8/lfecBgHvlDkAAAIBjt78mP9ql+Y261uWM603+AbB+mQAEAAA4NuMkr0+pv9BmMtm999l95wGA78gEIAAAwNGrSX6t1vxESTm0bOMvAFPABCAAAMDR++2aPD8lX1X+ATAtFIAAAABH5y+TXD6cNJ/cP7vadxYAOGoKQAAAgPv2xSTPPXhw6++vNTWPfM/z+s4DAEdNAQgAAPCd7U/yo12X35ibuyO7r7X0A4DpYgkIAADAtzdO8rou5ZfSxMZfAKaSAhAAAODb+7WU5iea5ODynmf1nQUA7hcFIAAAwL377STPT7qv1a7vKABw/ykAAQAAvtVfJ+XypPvk8p7L+s4CAA+IJSAAAADf7MtJubIp3UdqLX1nAYAHzAQgAADAN+xP8iNdV99bS8nua5/Tdx4AeMBMAAIAABwxTvL6WsovlDYT5R8AG4UJQAAAgKQm+bWU8pOl5tDyXuUfABuHCUAAAIDk/03KC9J1X1nbutB3FgA4rhSAAADAZvdXSS6vbfm7JHnQO/5T33kA4LhSAAIAAJvZLUme26zlI6XrsnztZX3nAYDjTgEIAABsVgeS/HBtynu7UbK8x71/AGxMCkAAAGAzGid5XUp+odQ6Uf4BsJEpAAEAgM3o12vy46k5pPwDYKNTAAIAAJvNbyd5fkm+trxX+QfAxqcABAAANpO/SnJFSf5u0ncSADhJFIAAAMBm8aUkz7thy4N+b5KS003/AbBJDPoOAAAAcBIcSPJjKXnPd+27KY7+ArCZmAAEAAA2uiMbf5NfSM1E+QfAZqMABAAANrpfryk/UZODyj8ANiMFIAAAsJH9dlKeV0r31TIe9p0FAHqhAAQAADaqv0pyeandJ2stWb7+B/vOAwC9UAACAAAb0S1Jnleb5iNN12W3o78AbGK2AAMAABvNgSQ/Xmr33jKp2fnBK/rOAwC9MgEIAABsJOMkP1dqfUMtzXjXtZf1nQcAeqcABAAANpJrkvLjXSk2/gLAXRSAAADARvHhlDwvpd7izj8A+AYFIAAAsBH8dWoum5T2b5pJ13cWAFhXFIAAAMC0uyXJ87/ymdnfbSZdTr3u8r7zAMC6ogAEAACm2cEkP5Z28u6djziY3dc+u+88ALDuDPoOAAAAcD+Nk7yhJj+XbjDZvUf5BwD3RgEIAABMq2tqLT9WkoOTOu47CwCsWwpAAABgGn04Jc8vyVeW95r8A4DvxB2AAADAtPnbJJfXte6vd13w0L6zAMC6pwAEAACmyS1Jed6dd3ztd9KWlJf8b33nAYB1TwEIAABMi4NJfqKW7t1L23Zk97WX9Z0HAKaCOwABAIBpME7yhjTlDaWW8bKNvwBw1BSAAADANHhXan48k3pg+drn9J0FAKaKI8AAAMB69+GUPL8OJrc0K4t9ZwGAqaMABAAA1rO/SXLZuCt/23ZNTv2t/9R3HgCYOgpAAABgvfpKkuft2nLG79aymlP3WPoBAPeHOwABAID16GCSHy/d6N1fuePLedB1z+07DwBMLROAAADAejNJ8gul1NenXZnsuu6H+s4DAFPNBCAAALDeXFOTH0ltDi7vfXbfWQBg6pkABAAA1pMPp5bnluQW5R8AHB8KQAAAYL34mySXldr+TTdY6TsLAGwYCkAAAGA9uCXJ8w/XAx/umrWc9r7n950HADYMdwACAAB9O5jkx2tp3j1bFuvyHkd/AeB4MgEIAAD0aZLk55L8XKndWPkHAMefAhAAAOjTNUl+rNZyYNf22/rOAgAbkgIQAADoy4eTPLckt6TUlLf9aN95AGBDcgcgAADQh08muSLJ3+za+5y+swDAhmYCEAAAONm+kuS5u7Z8+f8dVy9JAOBE89UWAAA4mQ4k+fEuedeX9y3njGuf1XceANjwFIAAAMDJMknyC6Wpb2iS8W5HfwHgpHAHIAAAcLJcU1N+rHY5oPwDgJPHBCAAAHAyfDgpz2u67svdaNR3FgDYVBSAAADAifa3SS7v1vLXGSan/8Z/6zsPAGwqCkAAAOBE+mqS5+86Zf/vlGGy6/2X9Z0HADYddwACAAAnysEkP1ab9l1fvn0pu/fa+AsAfVAAAgAAJ8IkyS80qW+o3Xi8a6/JPwDoiyPAAADAifCemvzIJOWA8g8A+qUABAAAjrcPp+S5Jbll997n9J0FADY9BSAAAHA8/W1Jrsgkf+3VBgCsD74kAwAAx8tXkrygW2l+JyVZ/oDpPwBYDxSAAADA8XAoyU90dfLrZWZSl69V/gHAemELMAAA8EBNkvx8KXlDU9rx8h7lHwCsJwpAAADggXpPan601uw3+QcA648jwAAAwAPxkdT63KYpX550k76zAAD3QgEIAADcX3+X5PLU8teT1Jz+wSv6zgMA3AsFIAAAcH98LclV+8ef/O22nclu9/4BwLqlAAQAAI7VoSQ/ma79tcX2Udm55wf6zgMAfAcKQAAA4FhMkvxiSl5bm25t+dpn9Z0HALgPCkAAAOBY/GZK+dHU7N+999l9ZwEAjoICEAAAOFp/kJQrU+sXl/e68w8ApoUCEAAAOBp/l+Sy1bXmL5um9p0FADgGg74DAAAA697XkrxgNJz/rZJDOfUDl/WdBwA4BiYAAQCA7+RQkp9oav218eqB7HLvHwBMHQUgAADw7UyS/GIp9XW1yfjUa03+AcA0cgQYAAD4dn4jKT+cWvZP4t4/AJhWCkAAAODe/EGS56XUL+/aY+MvAEwzR4ABAIC/79M1uTxd+YuMxn1nAQAeIAUgAABwT19L8vy15LdqU7P83iv7zgMAPEAKQAAA4G6HkvxUqfWdM0ndvdfRXwDYCBSAAABAcmTj7y+l5DW1KWu7lH8AsGEoAAEAgCR575GNv9m/bOkHAGwoCkAAAOD3S/K82k2+NBzO9J0FADjOFIAAALC5fSrJ5WsZ/2XTtDnlN3+g7zwAwHGmAAQAgM3ra0lecMfa4d9Kkl17n913HgDgBBj0HQAAAOjF4SQva0p5x7bRXHbtUf4BwEalAAQAgM2nS/LLJeXVtWZs8g8ANjZHgAEAYPP5zZr60pq6X/kHABufCUAAANhc/iApV5bki8t7n9N3FgDgJDABCAAAm8eRjb/DyV8M1tq+swAAJ4kCEAAANoevJnnBal39rcFayY4b/nvfeQCAk8QRYAAA2PgOJ/mp0tR3juqwLu+5rO88AMBJpAAEAICNbZLkl0otr8ukrC1fa+kHAGw2jgADAMDG9r4kL+1Kt29Q5vrOAgD0wAQgAABsXH9YkiuT+qWkySl7/0vfeQCAHigAAQBgY/pMksu75C9273XnHwBsZo4AAwDAxvO1JM9v963c2HS17ywAQM8UgAAAsLEcSvJTSXnHZMtsdl1n+g8ANjtHgAEAYOOYJPnlJvW1NVnbtfc5fecBANYBE4AAALBxvC/Jj3Qp+5R/AMDdFIAAALAx/EGS55ba3dw1w76zAADriAIQAACm36eTXFEH5c9TS077wA/2nQcAWEcUgAAAMN1uS/KC+Vv33VjWqqUfAMC3UAACAMD0OpzkJ2tp3nFgx9YsX+vePwDgWykAAQBgOnVJfjklry7p1nbveVbfeQCAdWrQdwAAAOB+eV8peWmtZf/y3mf3nQUAWMdMAAIAwPT5w6RcWWu+qPwDAO6LAhAAAKbLp5Ncnjr58zQe5wGA++aJAQAApsfXklw1Mzj8oaZJlj/g3j8A4L65AxAAAKbD4SQvL6W8fWU8W5f32vgLABwdE4AAALD+dUnemFJeU5M15R8AcCwUgAAAsP59ICUvTeqdy3ss/QAAjo0CEAAA1rePJvWKpjY3d3XSdxYAYAopAAEAYP36bJLLU5s/q5nktL1X9J0HAJhCCkAAAFifbkvJVV9dOHjD2mCcXXsv6zsPADClbAEGAID153CSn66ZvG3Hwdns3nN533kAgCmmAAQAgPWlS/IrJfnZUtvVXTb+AgAPkCPAAACwvuypyQ/X5E7lHwBwPCgAAQBg/fhYUq9ounrT7Q8d9p0FANggFIAAALA+fCbJZSs1f1qakrPe8IN95wEANggFIAAA9O+2mrzwUFtuGDYlpzr6CwAcR5aAAABAv1aSvKy2eetsrXX3HuUfAHB8KQABAKA/XZJfLsmr20nWLP0AAE4ER4ABAKA/e2rJSyfJncWTOQBwgpgABACAfnwsyZWllpt3731231kAgA3M3zMCAMDJ99kkV5RSPtF1te8sAMAGpwAEAICT67aavGicwQe7mpx2nXv/AIATSwEIAAAnz0qSn0mpVw+yVh39BQBOBncAAgDAydEl+ZVa87MlZW3Zxl8A4CQxAQgAACfHB2rykpTcofwDAE4mBSAAAJx4f1STKwdd+cLqYNJ3FgBgk1EAAgDAifXZJFc0ZfKn45I8+H1X9J0HANhkFIAAAHDi3J7khaurk+snk5Ld11r6AQCcfJaAAADAibGS5Ke7NG8djJp62t5n9Z0HANikFIAAAHD81SRvrqW8sklWl/co/wCA/jgCDAAAx98Hkry4pN6p/AMA+qYABACA4+tjSbkyyU3Le57TdxYAAAUgAAAcR59JyuWlKZ+ote8oAABHuAMQAACOj9uSvKibdNeXWrL7WtN/AMD6oAAEAIAHbiXJT9dS3toMSl3e8+y+8wAAfJ0jwAAA8MB0Sd6UUl5Val1V/gEA640CEAAAHpi9tZQXp6t3dDOjvrMAAHwLBSAAANx/f5zkilLyhaTmtPf+t77zAAB8C3cAAgDA/fP5JJcn+cTyBxz7BQDWLxOAAABw7G5LclXafDCl7ygAAN+ZAhAAAI7NSpKfSclb0qUu73lO33kAAL4jBSAAABy9LsmbasrPpmZV+QcATAMFIAAAHL09SV5SUu9Y3qv8AwCmgwIQAACOzseSXFlSb+r6TgIAcAwUgAAAcN8+l+TK2a77xCRNTjP9BwBMEQUgAAB8Z3ckeWFZnb/ucB3mtL3P7jsPAMAxUQACAMC3t5Lk5TV5Szc6WJc/+N/7zgMAcMwUgAAAcO9qkjfXlFcmWd3t2C8AMKUUgAAAcO/2pJYXldQ7lX8AwDQb9B0AAADWoT9OcmUp9Qu7lH8AwJQzAQgAAN/sc0mu6JrmT0rX9Z0FAOABMwEIAADfcEeSlza1+2CZ1Jx63eV95wEAeMBMAAIAwBGrSV7RdPXNNU2369rL+s4DAHBcKAABAODIxt+rk/KKrmlWdl3r3j8AYONQAAIAQHJdSl6YUm9f3vvsvrMAABxXCkAAADa7j5eay2ttPt9MLP0AADYeBSAAAJvZTUmuSJOPp3aWfgAAG5ICEACAzeqOJC/qRqvXdmWS3e79AwA2qEHfAQAAoAcrSV5ZS/nVsjZTd+9x7x8AsHEpAIGpMDgOA8v1GN+iHtVb1qN83wCsIzXJW2rNz5SaleVrlX8AwMamAASmwm+s/O0D+vUlqSVlnLu6upKkSZmUlO6uH6akdG0pkzala1K6Nk3XllLblLRpaluaDFJKmyaD0jSjNM2wtINR2uGwNKM2pUlKLUktpdz1eybl6/9JaVJKSUpSyr2Vh3f/jEIR4IS6LsmLS4mNvwDApqAABKbCqw589Hi8m+buYq1843++qX8rKe1dxV0tKbWkpDny/TSlpElJk1LalDIoTRmkaQalaYdpSptm3JSy0qasDNOMh6UZj0rbzWSQ+TIsW5rRYLGMZhbLaH6uDNphmtVRaVdHpZ2M0taZ0ma2DNq5DEazZTDbltKWuwvFIwXiXd/mrhLxG+Gr0hDgaP1JUi6vmXx2Jkt9ZwEAOCkUgMBUaO6u7O6/kqT9ez/Xfrs3rrl7Dq9mctePv7lhq3f/95tjJsMki/cVJElXUpomZdCW0gzS1GHazJS2mSuDZr4MMyzNyiDtgbkyOLxUZsZLzahZKjOjrWVmfqkZzcyWwcpsBmtzZVDnyrCdL4PZUWlHd5eF+XppeOQH3ygLE1OGwCb1uSSXd2X24009mO17/1PfeQAATgoFIMBRKN/mZx5ALdkkme1S09Wa1XRJxkm9u3ZMcqSgHN39+/y9Um/SpGR0ZGowC2WUpTLKQhmuzpbBvsUyOry1melOaeZGO8rc4pZmNDtbBqtzGazNlWGZK4PRTGlnmpR7/RCUhMAGdEeSF3eD8bXN5GCW917Wdx4AgJNGAQiwDpR7fK98u390DzUZTFIXD9VxDtZxvpZD97hRsAzvLgzLXUeWm5TJoDTjuQzWtjSjsq2ZbbeVmbX5MrpzazM6vL2Zy65mfn5HmVuaLYO1uTIcz5VBM1vamTbN4F5+/ygIgSmymuQVpW2ubrtR3bXnWX3nAQA4qRSAAFPuHncD3vWjb16Z3KWmSx2Ma7d0KOPcOjmUz0zuSE2tSdneJLU5suikGZSmG6ZZXWxGKzvKXLuznWu2ldmDS2Vm/85mru5uF7dsb2bnZzNYmyltnS2DwTDNMPdyxPgb3wL0qib51VrzijruVnZf+5y+8wAAnHQKQIBN5J7HiI/sEjlyD2JNMk6Xce2aw8nWOycr+UL2pY6TJKMmmWvT1FFp21Ha1bky2L+9mZ2c1i7O7yzzdWszc+dyszDe3S4sbi0zc3cvNhmVdtCmDO65rOTu3w/gJLmu1Lwopbu9jOf6zgIA0AsFIADfonzzUeQ2Sdul5lAd51DGc3fUlbkvdvvz5+OvJqldSdk6k7abLYPBbBmsLpThvp3NfHdGu2VxuVkopzRz+3e3C8OdZW5ppgzK8MikYdukaevX162oBYHj7hMluaKWfH557+V9ZwEA6I0CEICjVr7p+18/dtwkGa2ly2pdzZ11ZVCT+U9Nbk9dS0qyNkjTLJRhs3BkUcntu9r5lYe2W7fsahaG25vZ/ac2883OZn5pprRNm6YOUtrcday4qgaB++emJFeMm/rHM+P2Ab8zAIBppgAE4Lj55iPGXzfsUod31tXcUVeSZOffTm7N7+amJFkbpZ1bbEbNtjIz2dbMfu3Mdql7WLtt245mbryjmVvb2czNz5fhbJNSm5RSFIPAfbsjyYvLeG5v265lx3U/1HceAIBeKQABOCm+eVnJ1w3H6Ya3dYdyaw4lk+z+2NqXUpLapjm0WIZ1RzNftjezd+xqFvY9vN228KB2y+z2ZnZlRzM3O1+Gs/c4rlwcJQZyZOPvz5ame1OGB7vlPZf1nQcAoHcKQAB6V761Gixd6vwddTW3T1ZSJ5kpydYj24rL4cVmlOVmoZ7azN+5u1nc96jB9sXdzeLM1mZmbXszOztKO7rnOzMtCJtGl+RXk/LTtWtWl/fa+AsAkCgAAVjH7jE1+PV+cJI6d3u3Mndbdzh/ma/VkmwZpMmwNAe3ldm1M9ulwanN/L4Ht0srjxxs33ZKM5etZSZzZThX7no/d+8iVgrChvPB1PKiJLcvX6v8AwC4mwIQgKnz94rB0qVmpU4Wv1T3L97c7U+SmUFKRqXtFsrwzjPapebBzdLkjHbLvkcMti/sauZnF8uomy+DUZPSHjk6nCgFYar9SUouL133+clM03cWAIB1RQEIwIZRUnLXrs+2Jlmpk/Zwnez4ancoH8+XuzZldrYMykIZHtjdLK48fLBt4fRm8eBDB9vK6c3i0kIZ1rkyGHyjFFQIwpS4KckVbUYfHzcrOe03n913HgCAdUUBCMCGdo9pwSZJc7iOc6iOt36lO5hPjG+pTcpgvgzKYhmtLTcL+x4z3LH4oGZp9aHt1iy3C1vmyiCjtG1Jmi5mBGEdujPJi7t2cG1XxznN0g8AgG+hAARg0/l7R4hnDtZxDta10Ze7Awt/Mr6ltimDLWWU7c3s4TPaLfsfO9i5+KB2y+qZ7dJgR5lbHJY2g5Sm3nX8GOjNapKfTfLmZjLuLP0AALh3CkAANr1y17flGz+cvbOu5o7JyuxnJnds+d3Vm7phmmZ7M9fsaubveORg++pZgx1bTm8WV05vt8zPl8GoTVNKUkwJwklTk7w1JS+vtazs3uvYLwDAt6MABIB7cY8pwSRpJqkLX+kO5JbuwNyfjb+SkrK2UIbdae1id3qzeMvjh6cOH95um1luFrrtzezi3YVgkpgShBPig0lemJrblX8AAN+ZAhAAjlK5ZyWYDA/UteHfjm/N3+bWud9e/XwdlebQqc1CHtIs3fnIwSkHHzvYsXW5Xeh2NHOzo7TDu3+hQhAesE8kuTzJZx37BQC4bwpAALif/t5dgmWtdgs3Te7M5yd31g+vfWFpmGZtWzN74BGDbXlYu+2rTxicunB6u6Xd3swOZtLOJEfOMDoyDMfk80mumGvW/nj/ZNR3FgCAqaAABIDjqLlHIThON/OV7uDMl1cP1I/kC/OjMuiWyujOR7bbBw8fbL/zsYMdzYPbrQvbmpkyk3bm7jJQHQjf1u1JXtIlew92w5x+raO/AABHQwEIACdQSdKmlCTtWp20X62HdtzSHczvrX1hPFsGdWuZ2f+owSl5ZLv90FmDHeOHtEtLi80oM2mHNSkKQfi6Ixt/a/PmptRu2b1/AABHTQEIACfRXYVgkgxW6yS31IPbv7x6IL+Tz6/Nl2F3Spk9+MjhKePHD3a2j2pPqWe0W7bMlUEZphnYMMwmVpO8paa8IqXa+AsAcIwUgADQo3vcIzg8VMf5Qt03c9PKvvzWymdXt5SZbmczf+Bxgx1rTxyeOnhEu705tZlfHJW2lJTGdCCbyAeT8sLS1du6kcdXAIBj5QkKANaJcte3d20aHu2rq7lzsjL7qclt+cDKJw/vaOa605rF2548XC6PHexsH9JuHW5tZubuOmJcbBdmg/rTJFfUms+1bZfl9/1Q33kAAKaOAhAA1ql7TAemJrNf6Q7mlu7g/J+Mb6kzaQ+e1i7WR7Tbb3nKcPfcIwbbclqzODdTBsOSFNuF2SBuTnJ5KfnY6mrN7hsv7zsPAMBUUgACwJQo35gOLGvpFj4zuSOfmdyxcOPqZydLZXTwYYNthx872Hnrkwa7Fs9sl7K9mZ1vUpokMR3IFLojyYsmw+HeZjLJmTc+q+88AABTq/QdAOBonHfeeUlycZLrkwz7zgPrTU3SpdYmqcO0q6e1i4cfM9jRnT1c7h49OGX+1GZ+MEo7OvK2ZgNZ91aT/GST7odrysquvZf1nQcAYKqZAASADeCu7cIlSRmnm/3c5I7Zz0zu6G5Y+Uy31Mzsf8xgx9rjBjtvf/JgeX65XRgsltGoJBaJsB51Sd5Sa356UpqV3Xuf03ceAICppwAEgA2opKRNmklqc2t3eNvvrN5Uf2/1C5OFMlo7s92y/8nD5fZJg1O7h7bbFpeambZNGSgDWSeuT8qLSslty3uf3XcWAIANQQEIABvcPaYDB/vr6uAvxl+d+4vxV8fvKcNuZzN/8CnD5frEwandYwY75rc2s8NhGmUgfflESa5I6T5bJ23fWQAANgwFIABsIvfYLDw4VMf5/OSO0Wcnd9QP5JMru9r51ccMduw7Z3ja8DGDHYOdzdz8MG1Tk6IO5CT4QpIr69zkYznYZvk6Sz8AAI4XBSAAbFLlrm/bu+4NvGmyb/amyb6lG1c+d/jUZm7yiMEpX7tgeProsYMdZXe7sDhM2yQpNgpzAuxL8uLxZHVPc6DNade59w8A4HhSAAIASZLmrkqwps5+qTuQL60eWPi91ZvWdjRzKw9vt99+wej08vjBzsHp7eL8MG0bZSDHx2qSV6bkTYPBqFveo/wDADjeFIAAwLe4uwxMMvxqd3B4S3dw4Q/Xbu62NbMHHz04Zd+5w9MmTxycOntauzgapR0liTKQ++ltqXl5alaWr1X+AQCcCApAAOA7umujcEnS3tYd3vJ7q1+of7B6c7e1mTlw1mDHwXOGu29/8mDXwu52cagM5Bhdn1qvKqXcvmuv8g8A4ERRAAIAR+0eG4Xb27uVpd9b/UL9w9Wbu6Vm5sDjBjvXnjrcfcfZg+WFU9v5wSjtqCb2CfPt/GmSy1PKZ5V/AAAnlgIQALhf7i4D611l4O+s3lQ/snrzZHsze/AJg1MPnzc8bfLE4amLpzRzw0GaQVUF8g03J3neuB76o1HZ0ncWAIANTwEIADxg3ygD6+Br3aGlD61+tv7u6ufXdjbzh88eLh986nB3HjfYOb+tmR21Ka0jwpvanUl+OJPB+wfNQk7d+0N95wEA2PAUgADAcVWSlJQySR19qds/ev/K/vrBlc+snNYuHH7q8LQD5w53t2cNdswvluGwpDTKwE1lLcmrU/LGtOPJsqO/AAAnhQIQADhh7l4gMkk3+7nJnbOfm9xZ96x88vBDmq2HLhidvu+c4e7hQwdb52cyGCQpysANrSZ5e0rz8qQeWt777L7zAABsGgpAAOCkaFKSpKzUydxfT74299eHvtZdc/ivDz1qcMqdTx89KE8aLo9Oaxbm2zSt5SEb0oeS8oLaTW5dHO3sOwsAwKaiAAQATqq7jggnSbOvri380dqX5v947cuTnc3coccPTr3tGaMz28cMdsyc0szOlpTG8pAN4c+SXDbpymeGg2TxN/+vvvMAAGwqbd8BAI7GGWeckSQPSfLv4s8u2DDuvi8wSXOgrs18enLH3O+t3tR8dO1Lq1/sDuyfLe1ksYzqqLSDI2/NFPpiUv5brZPfaps2u/a49w8A4GQzAQgArAvlyFxgmaTOfHpy+8ynJ7d3H1j55OFHD045eNHwjP3njk6b29UsjAZphqYCp8a+JC8ddJMPdKXJqXuf1XceAIBNyRQNMBVMAMLmcqQMLGWcbvjFbv/sx9a+NPO7qzetfn5y5+FScnCpmWlnS9s0KUURuG6tJXlFaeoraylru/Ze1nceAIBNywQgALCu3VXyDb7aHVrau/Kp7rdWP7d2ZrN04KLRg3LB6PT2Qc2WhVFp25qqDFw/apK3pZSX1VoOL++x8RcAoE+maICpYAIQuPu+wHHq4Gv10Nwnxl8efnj1pvzN5NZ9SVa2NrOZK4PWVOC68KGS/PckNy/vdecfAEDfTAACAFPlHluEB7fXw4PfXb1p/vdXbz58Zrt0+OmjBx28YHT64CHt1oVRTAX25C9qcnmt5VNlOOk7CwAAMUUDTAkTgMC9ueuuwNRkcFs9PPuJ8S2zH169afI341sPlJKVpTLbzZXh0FTgSXNzkh9c/rNdNx5YPpDdH3DvHwDAeuBFNDAVFIDAfbl7cchKJqPPd3fO/d7qF5o/Wvviyh318P4tzajb0sw0gzT+/Dhx9iV5QWnq2w7sOlh3O/oLALBuOAIMAGwod98V2KXOfGpy+8ynD93e/cbhvztw9nD5zu+aeUjz2MGOuS1lZqYmpcZc4HGyluRVKfWNtZZueY/yDwBgPfG34MBUMAEI3B93TwUezmTmM5PbZz+8dlP7ibVbDh2s4wNbm5kslGFp0zR955xyNclbUstVqWW/pR8AAOuPCUAAYMO7ayqwWavdzJ+PvzrzV+Ovja85/NcHLxiefuiSmQc3j2i3L86VwcDSkPvlQyW5qqa7rR0M+84CAMC9UAACAJtKc9fSkFu6g0vvXfnbyQ2rn1197GDnnd8985By9nB5bmuZmUlK43jwUfnzJJfX1M8sX2vhBwDAeqUABAA2pbumAtsDdW3uD9dunv342pfXHtIuHbh05sEHLho+aGZ3uzjfprSdIvDb+WKS507S/OEw476zAADwHbhHC5gK7gAETpS7l4bU1PZr9dDcx9duGX5k7QvjL03275tvhmvbm9nW9uBvsS/JVU1T3tIkddde038AAOuZh1lgKigAgZPhyNKQtAfq6sxfT26d//DqF7q/Ht+6f1jalW3NbJktgzYppe+cPRsneWVb84qasrZr77P7zgMAwH3wIhqYCgpA4GS6e3vwarrRTd2dc7+3elP5xPgrh1czObCtmamLZTRoUjbjwpCa5C019YVdKfts/AUAmA5eRANTQQEI9OEbx4Mz+Ep3cPaP1r40+v3VL67c1h3av62Z7ZaambZN0/Sd8yS6MSk/VJIv7lb+AQBMDUtAAACOQpOSJIMvdvu2vuPwX06uW/30wacNz7jju0cPHTxisH1utgxGNRt6d/CfJ+WKcdt9ZmbV38MAAEwTT2/AVDABCKwXdx0Pbg7VyczfTm6d/fDaF/LJyW0HZkp7eHsz286UQZMjw4MbyReT/OBMM3Nj142z6zrTfwAA08SLaGAqKACB9ebu48Gr6Yafm9w595G1m5s/XfvK/iY5tKOdK7Nl2JaNUQTuS/KCtHnrJJO6e4+NvwAA08YRYACAB+DuInClTmb/dHzL7F+Nv7r60MPbDn73zEMPPn30oNmdzdxcUpopPRy8luS1pSu/nC7druts/AUAmEamaICpYAIQWO/uKgJTk/Zr9dDsx9a+NPzo2hdXDtS1A9ubucmWZjScws3Bb0/K82up+5avdewXAGBaeRENTAUFIDBNypGTv+3tdWX2E+NbZn5/7ebVW7tD+7Y1s93WZmbQpmmmoAj8UEl+sCQ3L9v4CwAw1byIBqaCAhCYRncvDDlQV2f+YvzVuQ+v3bR282T//qVmZrytmW0Gadbrn2d/keS/JPlz5R8AwPRzByAAwAl2pAhMc3u3suUDK59c+J3Vzx86b3j6Hf/j7MOHj253zM2UdlSzbm4JvDnJlWvbR384/NpK31kAADgO1uvfOgN8ExOAwEZwj83Bo09Pbp/78OpN9dOTOw5sKaOV7c1sOyxt33++7UtyVdK8rT08qe79AwDYGPp+yAQ4KgpAYCO5uwgcpxt+dnLH3O+tfSGfmtx+cL4MD5/SzLWj0jZ3vdnJtJbklW3qK0vq6i5HfwEANgwvooGpoAAENqqSUtbSDT83uXP2I2s3l78b37Z/rhms3F0E1pNXBL4tNVfVlDt3XXtZ358WAACOI3cAAgD07O6JwMN1PPuRtS/M/Mn4yyuPH5y67x/PPKKcPVxenC/DYZd6IovADyW5qqT72qQd9v3pAADgOFMAAgCsE98oAiezH1374uyfjb9y+AmDU/f9k9lHNmcPlhfmymDUHf9VIX+Z5PLU+qnaNDntA/+9708DAADHmQIQAGCduasIzMpdReCfjr9y+ImDU/f/09lH5uzB8uJsGRyvrcFfTnLF6szkD3Z8eSHzv/9f+/7QAQA4ARSAAADr1N1F4No9JgKfPNi1/5/MPrI8cbBrYe6BFYH7kry0K+37hquN8g8AYANTAAIATIEmJat1Mvv7azfP/Mn4lpUnDXbt/6ezjyxPGuxauB8TgWtJXptSfrHJZLK8x8ZfAICNTAEIADBFmpSyWiezf7B288wnxresPGWwvO97Zx/dPG64c3Em7fAo7gisSd5RUn+q1hxe3qv8AwDY6Nq+AwAcjTPOOCNJHpLk38WfXQApKWWSOvh8d+fcR9a+kM9O7ti/rZlZ3dHMDQZpmu9QA/5WUn4oKTcr/wAANgcTgAAAU6xJKQfreO63Vj83+7G1Lx26aPSg2//JzCNHDx9sWxikaf/eROBfJLk83eRTGXgMBADYLJq+AwAA8MCUHCkC99e1+b0rnzrlhft+u339gY/d9qnJ7XcmmZSUJPlikufu+vnn/EHTJssfeFbfsQEAOEkcowOmgiPAAPftrq3B5XDGo7+Z3Dr7+2s3r93Rrezf1SzsW2xnXrr8xduvvvW678nO667sOyoAACeRsx8AABtMSUlJmq91B7e88/Bfzdzw+IUvrz3jtIfcuXDKQ4f/8/d9+oJ3Pzi//7/+m75jAgBwkjgCDACwQZWa2jzyIePbznv06Qea7jnt4ZX31nf+/A+0Ge+68Nd+se94AACcJKXvAABH47zzzkuSi5Ncn2TYdx6Ada/WlNOXV8r3XNJm25ZB6l3LQEpZK6X5SGmb19TB4P1ZW9v3kf/9+/tOCwDACWQCEABgo6k1ZeuWQ+WS8+o3lX9H/tmwdpOLu/H4l7K6+iulaf7Bhe9+4+jCd72x79QAAJwgCkAAgI2k1mR2ZjUXn1tz+qkz31T+ffPbzdfJ5H/p1tbeUVdWfibd+AkX7nlbc9H7ru77IwAA4DhzBBiYCo4AAxylQTspTz9nrZz92JmUcrTPejVN86nSNL+YtnnTcOvszZMDq/XD//O/7/ujAQDgODABCACwcUzKE886VJ541vAYyr8kKem6R9TJ+KV1bfyutVsP/p/dOFue+tqfyD/50p/0/TEBAPAAKQABADaCWrvy8AcfKuc/eTbDQXv/3kfadN35dTJ5fdZW3zyzc/s/uP0jnxhe+Laf7/ujAwDgAVAAAgBMu1pTTt+1Vi49bzbzs4Nve+/f0b+/+dp1/6wbj98xOXzgp9PksU/7q+vyjBve3vdHCgDA/eAOQGAquAMQ4NuoNWVpy+Hyjy9NTt81+4DLv3tTyt+WpnldMxi8Zf+BQ1/evXxKrv2ef933Rw4AwFEyAQgAMK1qTWZGK3nGOZOcvmvmhJR/R36fR9XJ5Ce7tbV3LsyM/vn+Ow/PX/h2x4IBAKaFAhAAYFoN2klzwdm1PPqh86n1RJ/sGNSuu7jrJr/cTVZfX2t37tN+7Rfap71TEQgAsN4pAAEAplNXnvDolTz5rNExbvx9YGrdUrvu39Ru8q6srb0gXX3QGT/+g/meD/1m358PAAC+DXcAAlPBHYAA91BrVx525sHyj54xk4W54Qk7+nvfxqWUj6VpX5nSvqf9yy8eGD/lwfn9f/bv+v4MAQBwDyYAAQCmSa0pyzvXyqXn913+Jcmg1np+7SY/V7u1n5+cdep5zcpqe+Hbf67vzxIAAPegAAQAmBa1Jlu3rJRLz09O2dp3+XfPXAvpun9Za/fr3WT8/DqpD/rut78h57zl9X0nAwAgCkAAgOlw18bf5ulPHeeM5dG6Kf++OeOZ6bqrksm7DnTdvxw0ZeGCtyoBAQD6pgAEAJgGbTtpzn9Sl0c/bD7r+x7nptZ6Xu26n083+YWUnHfO21/dnPeWV/edCwBg01IAAgCsf115wqNXc/ZjZ07qxt8HZiG1/h/pul8fTNor26Y57fzXvDVPe4ciEADgZFMAAgCsZ7V25SFnHCxPO3uQ4XD6nt1qPTO1e3Ht6tuaU2773jpu5i54y2v7TgUAsKlM30MkAMBmUWuya8dqufT80TrY+PtAtKm5pHb1V5L8dEl97IW/9nPlaW93PyAAwMmgAAQAWI9qTZYWV5tLz2+yY9v6XPpx7Lal1u+vNb/erY7/767LtvOvNg0IAHCiKQABANaj0XClXPTUtTxo9zRP/t2bkuSxqfXlpZv8Skm99KK3va696G2KQACAE0UBCACw3jRlUs594qQ85uFzWd8bfx+IuSTfm+Stk0l31aTL6Re95ZU57y2OBQMAHG8KQACA9aWWxz96rTz18bNpms3wrHZakuel1rdP6uCflkxG57/lNX1nAgDYUDbDQyUAwHSotZaHnHGgPO3sNqNhs8GO/n4nbZJnJPmVUvOTpebhtSYXvuVVfecCANgQFIAAAOtBrcmppxwul5w3zOL8Rrv372idkuQHkrzzaW95zb8cZzB//lsdCQYAeKAUgAAAfas12bKw1lx6fpud22c2afl3t5LkqUneUGr3qnSTx1/01jeUC69+Xd+5AACmlgIQAKBPNclouNpc9NTVnHnaZp38uzdbSvJ9JXnnpBv/+y7d0kVvflXOe6siEADgWCkAAQD61JRxeerj17KxN/7eXyXJY5O8MsnrJk1zdp2knH/1a/vOBQAwVRSAAAD9qeVxjxyXc54wl3ZTbPy9v+aT/Mskb29L9x+bki0XXG1TMADA0fKgCQDQh1prOfO0Q+XCp7SZGTVx8ve+lCSPTvLTtdbXp+bJ3/XOn89FbzENCABwXxSAAAAnW63JKdsOlUvOa7Jlwb1/x2Y+yb9KydsPrK5+Xy11/vxfNQ0IAPCdKAABAE6mWpPFhbXyzAva7Noxq/y7385K8qquyytLySPPufpn8zR3AwIA3CsFIADAyXJk4+9ac9FT1spDTh8p/x6whST/IcnbBmn/5y515nx3AwIAfAsFIADAydKUcXnK4w7nsY+YjY2/x9M5SX6pJC9sm2b5wre8Nhe87fV9ZwIAWDcUgAAAJ0ctj3nEWjn3ifM2/p4Q25M8p+vqL3fJBW3blqcpAQEAkigAAQBOvCMbfw+Xi54yzMyotfH3hBkk9X9Mrb86WV37d5Muc+e++dV9ZwIA6J0CEADgRKo1ZfvWQ+Xic0uWFgfu/TspHpnUn21K/YnhaHDGhe94Q995AAB6pQAEADhRak3m59bKM89vs7zTxt+Ta0u67r90k+7q2pVLL7rxveWC97+t70wAAL1QAAIAnCjD4bhc9JRJHvogG3/70aTWS2s3vrq75Yv/uTl4YPHCX/uFvjMBAJx0CkAAgBNjXM5+7KHy+EeNYuNvv2o9o44nL6vjtdfU5JEP//Gr8sw9V/edCgDgpFEAAgAcb7XWctbDV8t5T5xP23reWhfqbJ1M/m3Wxm9dfsSD/+nquA4uvOaNfYcCADgpPJACABxPRzb+rpRnnDPK7Ezr6O/6UrvJud147Ze7gwevbAbtzqe9y5FgAGDjUwACABwvtSbbtx4qF58XG3/Xsa7bWcfj508OHvrFthk++ftrzXd/5Nq+UwEAnDAKQACA4+HIxt/Vcsl5Jbtt/F33ah3VtbXvnRw+9NZPvPuX//Wh274yc+FvvqnvVAAAJ4QCEADgeBgOJ83Tzu7Kwx6k/JsidTJ5bLey8tp64PBLBhnuvujnXp1LPnRN37EAAI4rBSAAwAM3KU8+61Ce8OhhSrHxd9p03VK3uvLfxwf3v6nu2nL+aNujytPf/46+UwEAHDcKQACAB6LWrjzqoYfL+U+ezaBt+47D/VTroFtb/Yf18KG3Hvjk739faTN70Xt/te9UAADHhQIQAOD+qjXljN1r5eJzZzI7Y+nHBlAnk4fX1ZWfnezb91NlUM688Nd/ue9IAAAPmAIQAOD+qDXZtnSoXHpezdYtyr8NpHbdQre68p8n+w/+ahm0F/+Tv/uz8l2/a0swADC9FIAAAMeq1mRudqW5+Lya3ada+rER1drUtdVLusOHfvW2P/3o96/tu23+4ve/te9UAAD3iwIQAOBYHdn4W/OIB88p/za2Oh4/uDt86GXj/ft/stZ6xikPTS790Pv7jgUAcEwUgAAAx6KUSXnSWYfzhEePUmLj7yZw15Hg/zQ5eOBXHvPKN104nJmUZ7zv6r5jAQAcNQUgAMDRqrUrDz/zUDn/SaMMB56jNpNam2519bu7w4euPvilr/27ZnZu7uIPOBIMAEwHD64AAEej1pTTd62Vi8+bzdzs0NHfzamOxw+bHD70yrXbb/+xyaQuP/3db+w7EgDAfVIAAgDcl1pTti4dLpeen2xfsvF3s+u6pW7l8H+thw68MYPBued8z7/PJZ/e03cqAIBvSwEIAPCd1JrMzKyUZ5wzyWm7Rso/ktx9JPh7JgcPvHXm+5/xL7pPHho+fe+v9Z0KAOBeKQABAL6TwWBSnnZ2zaMeOp9aLf3gm9Tx+JHd4cOvn9xx6/Pr6uFTLnrvm/uOBADwLRSAAADfXleedNZKedJZNv7ybdWu296trDy3O3ToDbWrZ33Pof15+t539h0LAODrFIAAAPem1i4PO/NgOf9JQxt/uU+1Dura2j/vDh+6+o4PvPMfd92h5sL3/HLfqQAAkigAAQC+Va0pp5262lx63kzm52z85SjVksn4nLpy+Jeyf+X/adrhlgvf/Yt9hwIAUAACAHyTWlO2blkpl5zfZPtW5R/HrHbdcre29mOTAwd/utZyxoXv+IW+IwEAm5wCEADgbrUmM6OV8vRzxjljl/KP+6/W+Toe//usrr45pZ7/3X95XXnG3l/tOxUAsEkpAAEA7ta2k3L+k7s8+qHzqZZ+8EDVUieTf9CN195y4BOf+lfjO/cNL3zn6/oOBQBsQgpAAIAjuvLEs1bL2Y+ZSSnKP46frj6iTiavqeM8LxnsuPAdP9d3IgBgk1EAAgDU2pWHPehgedqTBxkOPR9x/NW6NV333Doev77rukef97OvyIXv+fm+UwEAm4QHXABgc6s1ZXnnarnk/JGNv5xgw9p1/1u67urm1Jl/1K3U9oK3v6HvTADAJqAABAA2r1qTpS2r5dLzm5yydaT846So9dzU+suZTP5zOxnPP+0tr+07EQCwwSkAAYDNa2a00jz9qWs5Y9nkHydXraen6368S34syelPf8vrct7VikAA4MRQAAIAm1PTjJtznzjOWQ+bS2z8pRfztea/1OSXJqnnNF3K05SAAMAJoAAEADajWh7/qHGe8ri5NMXzEH1qU+v/UGu9Ok39F11Xhuf/qhIQADi+PPACAJtLrbU85IyD5cKz24yGTZz8ZX04K8lrStNdmXSnnH/1a/rOAwBsIApAAGDzqDU59ZTD5ZLzBlmYd+8f682OJM8vpbymJGc99R0/m2e88fV9ZwIANgAFIACwOdSaLC2uNZde0Gbn9hnlH+vUMMn/keTNw9XmH62Uw+35b/rZvjMBAFNOAQgAbHy1JqPRarnoqWs5c7fJP6bBeWnblw8Wtz6imZ3rOwsAMOUUgADAxtc043LO41fLWQ+fjY2/TIOmyWBp62OG27c/e2bnqadfesM1ueSGa/pOBQBMKQUgALDR1fL4R43LOU+Yt/GXqVBKBguLaefmB0n+r5q8vkt5XDua5BkffG/f6QCAKeQhGADYuGqt5cGnHyoXPuXIxl+YAu3cfNqFxa//MMn/VFJ/abIyeMZoMlMuvV4JCAAcGw/CAMDGVGuyY/uhcsn5TRZt/GU6NDOzabdsScq3nFS/IKX+0nh46J+njgeXXP/uvqMCAFNEAQgAbDy1JosLa80zL2hz6vZZ5R/ToAyHGSwtpTTtt3uTRyV5TW2a/7s2zewlN7yn78gAwJRQAAIAG0tNMhquNRc9dZwHnzZS/jENSttmsGVrymB4X2+6K8mPllqfX0q39ZIbTAICAPdNAQgAbCxNGZezH3c4j334TGz8ZRqUJoMtS2lmZo72V2xJ8pxay8tKyumX3mgSEAD4zhSAAMBGUstjH7FWznvifNrGcw5ToKRdXEwzN3esv3CUIxuCX1trPevSD747F99oOQgAcO88GAMAG8ORjb+Hy0VPHWZm1MbJX6ZAOz+XwcJC7uewapPknyX5udrk3PHaai654Zq+PyQAYB1SAAIA06/W5JRth8rF55ZsWRi4949p0MzMpl1cSsoDfiS/JCm/NBoM/tGwLeWZN17T94cGAKwzCkAAYLrVmizMr5Znnt9k1w4bf5kKZTjMYMtSSts+8Hd2xBNr8oa1Sf0XXc3AJCAAcE8KQABguo2G43LRU7vykDNmlH9Mg69v/B3e58bfY/XQJD+b5PvHXTdzsRIQALiLAhAAmGbjcvbjDpXHPWIUG3+ZBqVJu7jlWDb+HqtdSX5k0DSXpdTFix0HBgCiAAQAplWtXXnMI1aPbPxtPdMwFQYLC2nn5k/0b7M1yZWllh8uqTsuvfE9fX/YAEDPPCwDANOn1pQzT1stzzhndGTjr6O/rH/t3HzahcWknJRh1bkk/yW1/Eyt9UGXXP+eXHLDu/v+FAAAPVEAAgDTpdZk+9aD5ZLzYuMv06KZmUm7ZSlpTurj9yDJv07y2pR6VgYll1x/Td+fCgCgBwpAAGB61JrMz602l5xXsrzTxl+mQhkMjyz9OH4bf49Fk+R/SvKGOs7Zi/Pb8vQPvqvvTwkAcJIpAAGA6TEaTpoLn9Ll4Wcq/5gKpW0zWFo6ERt/j9WlJfn5/Yduf/ptj96Siz90Td95AICTSAEIAEyHknF58mMO5fGPtPGX6VDKXRt/Z/tOcrdzk7xh598d+EeTQzPl4g++t+88AMBJogAEANa/WrvyqIetlPOeNJvBwPMLU6FdWDwZG3+P1eOTvH4ws/K/tnWtudRxYADYFDxAAwDrW60pD9q9Vi4+dyazM5Z+MBWak7vx91g9LMmrurb9t3XQDC658Zq+8wAAJ5gCEABYv45s/D1ULjm/ZmlR+cdUaEYzGWxZSjm5G3+P1WlJXp4u/7nWOnPxDe/uOw8AcAKt66cSAGATqzWZm11pLjmvZreNv0yHMhikXVrqa+PvsTolyQ+XlGenNPMX3/ievvMAACeIAhAAWJ+Gg0m58Ck1Dz9zTvnHNChNk8GWrWmGo76jHIstSZ5ban1uSbflkhtNAgLARqQABADWn1Im5UmPOVwe/ygbf5kOpaTdspRmdt1s/D0W80melVpeVLtm+8XXmwQEgI1GAQgArC+1duURDz5Uzn/STIY2/jId2oWF9bjx91jMJvl/Sqk/mtRTL7nhmr7zAADHkYdqAGD9qDXl9OW1cvG5s5mbtfSDqdDMzmWwsGW9bvw9FqMk/6GUvCzJaUpAANg4FIAAwPpQa7Jt6+Fy6fnJtiXlH1OhGY0y2LKUrO+Nv8dikOT/TPIzSc5UAgLAxrBhnlQAgClWazI7s9JcfM4kp506Uv4xDcpgkMHS1pTBoO8ox1uT5F8keXVSHq4EBIDppwAEAPo3GEyaC59S88iHzKfWqT9HycZ3ZOPvUsp0bfw9pg8xyfcm9bVJHn3p9e/NxTYEA8DUUgACAH3rypMfs5InnmXjL9OhlLSLW9LMzvWd5GT4H5K8tpbusTVNLjUNCABTSQEIAPTnyMbfA+X8Jw0zaD2XMBXa+YW08wt9xziZvjvJ65qaJ46bmktveE/feQCAY+RBGwDoR60pu09dLRefN5u52aF7/5gGzexc2sUNsfH3WF2a1Ne0XfOUOlNyyfXX9J0HADgGCkAA4OSrNdm2tFouPb/J9iXlH1Ph7o2/ZeNs/D1WFyf1tVnpzs0kueRD1/SdBwA4Spv26QUA6EmtycxopbnoqWs5Y1n5x1Qog0HaLRty4++xelqS19VBnjZcGeei3/6NvvMAAEdBAQgAnFyDdlzOf/Ikj36ojb9Mh6bJYHEpzWjDbvw9VueW5LWrg/bCxcEgj3/nL/WdBwC4DwpAAOBk6soTHzMuZz92Ns3mu0SNKVRKBgtb0sxtio2/x+IppZTXHjp0+MKdO0/pOwsAcB8UgADAyVFrVx525sFywZPaDAdNnPxlCrTz82kXNtXG32NxdinltV2Xi575oWvyDItBAGDdUgACACderSm7d66US88bZX7OvX9MhWZ2Nu3i0mbc+Hsszi4lr6uTPKOUcS69/j195wEA7oUCEAA4sWpNtm5ZLZde0Gb71pHyj2lQhqMMtmzdzBt/j8WTaslrSwYXd/W2XHKDEhAA1htPNADAiXPXxt/yjHPWcvouk39MhdK2GSwt2fh7bJ6Y5NWl2X5xV/crAQFgnVEAAgAnTtuOy3lPGpdHPXQuiXOUrH9Nk3bLUprRTN9JptGTkvqqpiw8Y99im++69t195wEA7qIABABOlFqe8Ohxecpj59IUzxysf6VksLCYdna+7yTT7MlJXrW4b+3CuS2zOff97+g7DwAQBSAAcCLUWstDzzhYnvbkNsOhjb9MhXZuPu3ColnVB+7sUsqr7zy0cv787EwuuOHtfecBgE1PAQgAHF+1ppy641C55LxBFubd+8dUaGZm027ZYuPv8fPUkrw6qeeO6qjvLACw6SkAAYDjp9ZkaXGtPPP8QXZsn1H+MQ3KcHhk6UfT9h1lozkvyatLKWc/44Z359Ibruk7DwBsWgpAAOD4OLLxd7V5+jlredBuk39MhSMbf7emDIZ9R9moLkjymiblyaV2udh2YADohQIQADg+mmbcnPvE1Tz6YbNxixrToDQZ2Ph7MlyU5FW1NI9PU3Pp9df0nQcANh0FIABwPHTlCY8e5ymPm7fxl6lQSgaLi2lm5/pOsllcXJNXli5nTdqSZ37wmr7zAMCm4gEdAHhgjmz8PVwuPHuQ0dCzBVPhGxt/DaueRN+d5Gfarj68a5N/eM01fecBgE3DQzoAcP/VmuzcfqhcfF6ThfmBe/+YBs3MTNpFG3978j01eXmpOXNlqe8oALB5KAABgPun1pTFhbXm0gva7Nw+q/xjGpTBMIMtW1NaG397UpL8s5r8VE057RKbgQHgpFAAAgD3z2i0Vp7+1HEefNpI+cc0OLLxdyllaONvz0qS/29J/YmSbuelH3x333kAYMNTAAIAx66UcXnq4w/nMY+YiY2/TINS0i4upZmZ7TsJRzRJ/lVN8yNpyvZLb7gm3/Whd/WdCQA2LAUgAHCsanncI9fKuY+fT9t4lmAKlAwWt6Sds/F3nWmTfF9NXtSlLq11/i4BAE4UD+0AwNGrtZaHnHG4XPSUYUaj1tFfpkE7N5d2fsHSj/VpmOT7S8oVXVcWnv7Ba/rOAwAbkgIQADg6tdbs2H6wXHxuyeKCjb9MhWZmJu2WpcSw6no2k+QH2ib/ddBmxmIQADj+PAkBAPet1mRxfq155vltTj3Fxl+mQhkMbPydHgtJrqg1/7EmQyUgABxfCkAA4DurSUajcfP0c7o8+HTlH1OhtO2R8s/G32myNclVJfk/m0nTXnr9e/rOAwAbhgIQAPjOSsblKY89lMc8fNR3FDgqpaRd3JJm1sbfKbQzyY90bfe/1PmVconNwABwXCgAAYBvr9auPObhq+XcJ86nbT03MBXahcW0c/N9x+D+Oy3Jy8qh4f/41dma7/6gSUAAeKA8yAMA967WlAefvlaece4oMzb+Mh2aufm0C4s2/k6/h9SUn9l5qL1kXPzZAwAPlAIQAPhWtaacsu1gueS8mi02/jIdmtFMBlu2pNj4u1E8OjWvqMlT/8EN780zPug4MADcX56OAIBvVmsyP7eSS84r2bXD0g+mQhkM0i4tpbSDvqNwfD0lJT89SffoNm0uvvHdfecBgKmkAAQAvuHIxt9JueipKQ97kPKPqVCaIxt/m6E9NRvUpUl+qpbuQSVN/sGed/SdBwCmjgIQAPiGpozL2Y89VB73yGESl6ix/tn4u1n805TyI7XWneORohcAjpUCEAA4otauPPqhh8u5T5jNwMZfpkM7v5B23sbfTaBJ8q9K8oKSunTJDdf0nQcApoqHewDgyNKPM09bK884dzazM5Z+MBWa2bm0i1ts/N08Bkn+Y1Ke1U4y+8zrr+k7DwBMDQUgAGx2taZs33qoXHJ+srSo/GMqNKNRBktLNv5uPrNJfmjS5vtTmsGlN7yn7zwAMBU8MQHAZlZrMje7Ui4+r2Z5x4zyj2lQBoMMtmy18Xfz2pLk+V26/300OFSeeeO7+s4DAOueAhAANrPhYNJc9NSaR5w5p/xjGpSmyWDLUopFEJvdziQ/ujKe/UerJflnH/iNvvMAwLqmAASAzaqUSXnyY1fy+EeNYuMv0+DrG3/n+k7C+vDgJC8bds35t8+Mc+n1jgMDwLejAASAzajWrjzyIYfKeU8c2fjLtDiy8Xeh7xisL0+oyctrylmTkjzzBseBAeDeeOAHgM2m1pQzdq+Vi8+dzdyspR9MBRt/+Q6ekeTH29qdXmuTC294Z995AGDdUQACwGZyZOPvSrn0vGTrFuUfU6EZjY7c+2fjL9/e99ZSXtI12T4sw76zAMC64ykKADaLWpPZmcPlGeeOs/vUkfKPaVDaQdotW1MGNv7yHTVJ/m2peU7bNXOX3uA+QAC4JwUgAGwGNclgMG4ufErNIx88n1qdo2T9a5oMlpbS2PjL0Rkm+a+T0v2H8dqkvfiD7+47DwCsGwpAANgMmtKVJz92LU88ayY2/jINSsnAxl+O3WKS57XD5p/P7ZvLpR80CQgAiQIQADa+Wrvy8DMPlPOfOLTxl2nRzs/b+Mv9tZzkRw9vPXzpuK35Zx/4zb7zAEDvvAgAgI2s1pTTdq2WS86z8Zep0czOpl1csvGXB+IRSV7W1jzx9tm1vrMAQO8UgACwUdWabFtaLc88v8m2paHyj2lQhqMMtmy18Zfj4dwkP15TzrjkxmtyyQ3X9J0HAHrjyQoANqKaZHZmpTzj3LWctkv5x1QobZvB0pKNvxxP35OaF6cr22L3EQCbmAIQADaiQTMuFzx5Umz8ZVo0TdotS2lGM30nYWNpkvyblPpDaevMJR+6pu88ANALBSAAbDSldOVJjxmXJz1mNo1L1JgCpWSwsJh2br7vJGxMoyT/LV3+zWTSlotvsBkYgM1HAQgAG0mtXXnYmQfL+U9uMxw0cfKXKdDOzaddWOw7Bhvb1iRXtWXyPe3g9lxy/Xv7zgMAJ5UCEAA2ilpr2X3q4XLJeaPMz7r3j6nQzMym3bLFxl9OhjOT/Hg33vaUWmq+60Pv6jsPAJw0CkAA2AiObPxdK8+8YJDtSyPlH9OgDIdHln40bd9R2DyelNSfaFIfMu68FAJg8/BVDwCmXa3JzGilefo545x2qsk/pkJp2wy2bE0ZDPuOwubz/6nJC0vNtktveHffWQDgpFAAAsC0a9txOe9J4zzqIXNJnKNk/St3bfydsfGXXpQk/7qW/Pekmbn0hmv6zgMAJ5wCEACmWy1PPGtcnvK4uRSXqDEFSslgcTHt7FzfSdjcRkl+oKb+668d+Ep52t539J0HAE4oBSAATKtaa3nogw6WC548yHDgazpToZ2bS7uwYOkH68HWJFedsrDzu0ajUS5xHBiADcyLBQCYRrUmu3YcKpecN8jC3MC9f0yDZmYm7eJSUjyCsm48JCk/muQxtSSX3vjevvMAwAnh6QsApk2tydYtRzb+7tg2o/xjGpTh8MjSj9bGX9ad81PzI6nl1K52fWcBgBNCAQgA06TWZHZmtXn6OeNyxrKNv0yFr2/8Hdr4y7r1vSW5vNTMX2IpCAAbkAIQAKZJ26yVc5+wmkc/dCY2/jINSkm7uMXGX9a7QZL/OyXf13Wlufj6a/rOAwDHlQIQAKZHLU84a1LOftx8ikvUmA7twmLaufm+Y8DRWEhyZdPU7yldcsmN1/SdBwCOGy8eAGAaHNn4e6g87cmDjIa+fjMV2rn5DBYWbfxlmpyR5EfS5klxwwIAG4gXEACw3tWasvOUg+Xic5sszNv4y1RoZmbSbllKGo+bTJ2zk/xwTXZfagoQgA3CExkArGe1JlsWVsszLxhk5/ZZ5R/ToAxs/GXq/eOSPKdLnbv4xnf3nQUAHjAFIACsZzOjtebp53Q5c/dI+cc0KG2bwdKSjb9MuzbJfyy1/Nv5yaR81/Xv6jsPADwgCkAAWK9KGZenPv5wHvPwUWz8ZRp8fePvbN9J4HhYTPL8Q037XWuDJpd+0CQgANNLAQgA61NXHveotXLOExbSuESN6WDjLxvQg5LyI80kj66l5B/c+J6+8wDA/eIFBQCsN7XW8tAzVstFTxlmNGwc/WUaNHPzaW38ZWO6oCYvSppTJp1/vwGYTgpAAFhPaq3ZecrBcvF5yaKNv0yHZjSTwZalFMOqbFz/PKX7rynd6JIbruk7CwAcM09pALBe1JosLqyVS89rbfxlWpTB4MjSDxt/2dhGSX4gyT+fWdiWS298b995AOCYKAABYD2oSWZG4+bpT+3Kg09X/jEVStNksGVrynDUdxQ4GU5JctXKgdvP7eok//C3f7PvPABw1BSAALAeNGVcnvK4uzf+wvp398bfWRt/2VQek+TFTcrpq+Nx31kA4KgpAAGgb7V25TEPXynnPGEurUvUmA7t/ELa+YW+Y0Afvqcmz+om3ezFH3x331kA4Kh4kQEAfao15SFnrJannzOTmVEbJ3+ZAs3cXNrFLTb+slk1Sf5DaZt/3Ww/XC75rXf1nQcA7pMCEAD6UmuyY9vBcsl5yZYFG3+ZCjb+QpJkKcnz6x1zzyid/y8AsP75agUAfag1WZhbKZeeX3LqKZZ+MBXKYJB2aSmlHfQdBdaDhyZ5Sa158CU3vjsXX/++vvP8/9u7tya7zvw87P//Wmufeh8aJxI8AQTBAwgCIEGgAcwM0A3McKQZHyTPxCPZli3JsmTLduJDLCsqx65yvkBufBPf5C5XljMDSkkcZ4bgKHFVLlyVKn8Bu5KKU5WqVMUVaYhDd+83F01SoxEPAIjutdfev98neC661l7v03u/DwB8KgUgABy0EhH9/m51/XLki88r/+iEvcXfWVQWf+HH3YyIf1B263GU3bazAMCnUgACwEH7aPH37Mu9iHCJGovv48XfUdtJYNFkRPxSVvNfjLKdm3eMggCwmBSAAHCQSpnnmZfu5eXzg6hrn8N0gsVf+ExrEfFbWdebUSK23r/ddh4A+GMcPADgoJQSeeK57bx+eRjDvtEPOqEaWvyFh3AqIv5xZp6w5g7AIlIAAsBBKCXyyKG7efNKxGyi/KMTql7f4i88vFsR8ZulKqOt9/0UGIDF4m0OAPZbKRGj4b3cvFLi6aMD5R9dkPWHi7+NxV94SFVE/OWc5y/EPHPrzu228wDAxxSAALDfer3d6vrliNMvjJR/dMHHi7/9QdtRoGumEfGfR8aX2w4CAD9OAQgA+ylzN99+436ce6UfFn/pgo8Wf0cWf+ExnY6I/yJKPLf1np8CA7AYFIAAsF9Kmecrpz7IjfN9i790hcVfeCLeiYzfKFEPN9/7nbazAIACEAD2RSmRLzzzILc2RjEcGP2gEyz+whNTRcSvZs6/vRu78fXf++/azgPAilMAAsCTtrf4ez9vXq0s/tIVFn/hiVuPiH/YZHVhZ74b17/vm4AAtMcbHgA8SR8t/t7Y2Injx3rKP7rA4i/sm3MR5R/uxvxw1ey2nQWAFaYABIAnpUREr9mpvvR2idMn1qIUv6Nk8WUV9XRq8Rf2z7ez5F/dqR5U13/4z9vOAsCKUgACwJNS5TzfOrsdF14dRFr8pQMyo5lMoh6ttZ0Ellk/Iv5Oszt4p573YvOOZWAADp4CEACehFLm+fLJH+WVN3vRND5f6YR6tBb1eNJ2DFgFz2XEP44oL/n/EABtcEABgC+qlMjnjt/PrSvDGFn8pRuq4TDqqcVfOEBfiYi/H1Gtbd15t+0sAKwYBSAAfBGlRB5ef5C3rtaxPjX6QSdkr/fh4m/ddhRYJRkRvxgx/7nf+Oqfius/+G7beQBYIQpAAHhcpUQMB/fyxsZ2PPOU8o9OyLqOZroe2fTajgKraBoRv/Vfvv+7b9eVoxgAB8enDgA8rqbZqb50cR4vn7T4SzdkFfVkFtXA4i+06GxE/lYpcWjzvdttZwFgRSgAAeBxZM7zrdd34s0zQ4u/dMLHi7+jtpMAEd/KjF/Nwbza+qFVYAD2nwIQAB5VKfM8feKDvPJmY/GXrvh48dfoByyCQUT83XhQ3Ui3RwBwABxaAOBRlFLimafu5+aVfqwNLf7SCdVgGPXE4i8smBci4h/N5/nMzfdvR/y1f9p2HgCWmAIQAB5WKRGHZjvVrWt1HJ71lX90wceLv7XFX1hAX8uMv1V2s7f1555tOwsAS0wBCAAPY2/x9351Y2M7nn1K+Ucn7C3+ziJ7Fn9hQdUR8etRlW9m2Y3N999tOw8AS0oBCAAPo6538uqbO/HKSQsKdENm1JNpVINh20mAz3Y0Iv5BqapT6Z9LAOwTBSAAfL55vvX6Tr51dhTpEjU6IDPq8STq0VrbSYCH86WI+DtRYrD13u22swCwhBSAAPBZSil5+uTdvPpWEz2Lv3RDPRxFY/EXuiQj4i9Hxs/ubt+Lm+//Ttt5AFgyDjIA8GlKKXn82Ae5udFY/KUrqv4g6uksovKaBx1zKCJ+qx4MXysxbzsLAEvGmyEAfJJSItan23nrWi+OrA+Uf3RBNr1oZusWf6G7LkWJv1fmOdp6zyAIAE+OAhAAflIpEYPBg+r65d14/nhP+UcXZF1HM7P4Cx2XEfELmeU7/X4vbvzgu23nAWBJKAAB4CfV9XZunH8Qr50aRCkuUWPxWfyFZTKNiN96sP3gXFU7rgHwZPhEAYA/ap4XXtvNS2+sRZU+J+kEi7+wdM5FxG9GicnWndttZwFgCTjYAMBHSil5+sT9vHaxiV6vCr/8pQPq0VrUFn9hGX0nIv5szHdj63/9l21nAaDjFIAAEBFRSomnjn6QNzaqGI8s/tIJe4u/00iLv7CMxhHx90tVn8379+Pav/hnbecBoMO8LQJAKRGzyXbeutbE0UMWf+mEbJqoZ7PIumk7CrB/zmfEb5T5fG0w6LedBYAOUwACsNpKRAwG23nj8jxfOK78oxOyqqKZzqLqKQRgBfx8RHx7NyPcBwjA41IAArDaqtzOy+fu5WsvaVLoho8Wf4ejtpMAB2MaEb/ZlHImXU4LwGNSAAKwyuZ5/tXtvHTO4i+dUY/HUa+N244BHKy3SuTfm5dqtPXe7bazANBBDjsArKZSSp564UF++VI/+r3alyrogmo0ino8tfgLq+kvZJZvPWiauPne99rOAkDHKAABWD2llDh2+IPc3EiLv3RF1e9HM51Z/IXVNY2I3+jt7LxS/BMAgEfkDRKA1VJKxHT8oLp1rY5jh41+0AnZNFFP1y3+Apcy429F5GDrzrttZwGgQxSAAKyOUiIG/Z3q+uWIE88OlX90wceLv307NUBkRPyliPk3Son42g9/u+08AHSEAhCA1VFVO3np3L0481Kv7SjwUCz+An/ckYj8zSrLC7tz3woG4OEoAAFYDaXM8+wr9/PSuVHULlGjG+o1i7/AJ/pKifhrmaW5+b5BEAA+nwMQAMtvb/F3O69fGsagb/GXTqiGo6gnFn+BT1RFxK+VUm3Oi2cEAJ9PAQjAcisl4tjhu7m1ETFZq937RxdY/AUewrMl4j+LKMc27/gWIACfzVslAMurlIjx6F5182rGsSMWf+mErD9c/G3c7QV8rncy8pcno6Px1R/+921nAWCBKQABWF79/m5e34g4+ZzFXzrB4i/wiHoR8Td/dPf/vTSf78TmnXfbzgPAglIAArCcMnfy0hv38uzpfkS4IInF99Hi78jiL/BITkeUvzvP+Thy3nYWABaUAhCA5VPKPM+cvpeXzw+irn3W0Qn1aM3iL/C4vp0lv3U3m7h153bbWQBYQA5FACyXUkqefO6jxd/GT3/pgmo4jHpq8Rd4bJOI+Dtr893TvgMIwCdRAAKwPEqJOHr4fm5diZhNlH90Qvb60UzXI6u67ShAt12OiF+fZ9XbfN9dgAD8UQpAAJZDKRFro3vV1pV5PH3U4i+dkHUdzWxm8Rd4EqqI+OWqzG9Wuxlv/+v/uu08ACwQBSAA3Vciot/bqa5fijj1/Ej5RydUVdTTWVT9QdtJgOVxPCJ+Y17Nn5r8/tG2swCwQBSAAHRflbv59rkH8cYrFn/phsxoxpOoR2ttJwGWzzsZ8Zemf1Di5nu3284CwIJQAALQbaXM87WXPsiN8/2oK59rdEI9Wot6PGk7BrCcehHxN340yTeLf4kB8CEHJQC6q5TIF555kDcuj/YWf9sOBJ+vGgyjnlj8BfbVqyXiPykZo833b7edBYAFoAAEoJtKiTx66H7evFpZ/KUrstfbG/2oLf4C++47WeKn/KsBgAgFIABdVErEaHgvr1/eiePH+so/uiDrOprpemTTazsKsBoOR8TfLSWOb965HVsPbredB4AWKQAB6J5ebye//HaJ0yfXlH90wkeLvwOLv8CB2syIX/pfvvpn4v6/HrWdBYAWKQAB6JbMeV48u5PnXxtEWvylAz5e/HX4Bg5cExG/fvP9d9/q378XX//+b7edB4CWKAAB6I5S5vnKiz/KKxeaaGqfYXRCPRpFPR5H6KuBdrxcIv5Wxnx0v27azgJASxyeAOiGUko+f/x+bm4MYzgw+kEn7C3+ziLSKxfQqu9E5DcyI7buvNt2FgBa4G0UgMVXSsSRQ9t561oT69Oe8o8uyF4vmqnFX2AhrEfE344SxyPmbWcBoAUKQAAW24eLv9Xmxk4cP6b8oxM+XvztWfwFFsaNiPyLMWhy633fAgRYNQpAABZb0+zkly7O4/SJkfKPTsiMejK1+Assml5E/NW4t3Muim8BAqwaBSAAiytznm+9vpMXzgzDggJdkBn1eBL1aK3tJACf5PXI/PXMGGzdud12FgAOkAIQgMVUyjxfPvlBXn3T4i+dUQ9H0UwmEamvBhbWnyslt9oOAcDBcqACYPGUUvLZp+7ljY1+jIYWf+mEqj+IemrxF1h4T0XE345SDvkWIMDq8IYKwGIpJeLQbCdvXevF4Vlf+UcXZNOLZrZu8Rfoiq9H5ndKRHxVCQiwEhSAACyOvcXf+9Xmxk48+5TFXzohqzqa2cziL9Alw4j4j7PES7uu2AVYCQpAABZHXW9XV9/ajpdPDkP3RxdkRj2dRjUYtp0E4FG9FRm/Um9ndfP777adBYB9pgAEYDFkzPPi2d1468xapAUFusHiL9BhGRG/PO+VS1FH3Hzve23nAWAfKQABaF8p83z5xXsWf+mSarQWzdjiL9BpJ0uUvzGfx3BefPwCLDNPeQDaVUqJ48fu5o2Nem/xt+1A8Pmq/iCa6TSi8ioFdN63qqp8Lap53HrvdttZANgn3loBaE8pkevT7Wpv8Xdg9IMuyKaJejaLrJu2owA8CUdKxN+sSh7xKQywvBSAALSjRMRwsJ03Lu/G88ct/tIJWVXRTNej6vXbjgLwJH2tRHyrHo1i8wffbTsLAPtAAQhAO+pqO69cuB+vnhpEKS5RY/FlRj2ZRTW0+AssnVFk/PXdu3dfrNIREWAZeboD0IZ5XjizkxffWAsnDTqiXhtHvWbxF1hal0rGL0bU1dadd9vOAsAT5tAFwMEqpeTLJ+/nl97qRa+pjH7QBdVoFPVkavEXWGZ1RPxyqXYvhA9ngKWjAATg4Owt/n6QNzaqWBs17v2jC6p+P5rpLNLiL7D8XokSf6WaV/2b7/kWIMAy8SYLwMEoJWJ9+qC6dbWJI+sWf+mEvcXfdYu/wCr5uXk1v1bS5zTAMlEAArD/SokYDrarGxslnjuu/KMT9hZ/ZxZ/gVXzbET8eokYb9653XYWAJ4QBSAA+6+qtvPy+fvx6ouaFLohM+rJNKrhqO0kAG3401niHbeeAiwPBSAA+22e517dzrffGFn8pSv2Fn/HbccAaMt6ZPz1qPLw1vvuAgRYBg5iAOyfUkqeeuFBfuXSIPq92qggXVANLf4CRMRXY16+5doOgOWgAARgf5RS8qkjd3PrSsZ4VDtA0AUWfwE+NoyIvxYZz229f7vtLAB8Qd5uAXjySomYjh/EzWtVHD1k9INOyLqJeroe2Vj8BfjQRpT4+Sy7sXXHT4EBukwBCMCTtbf4u5M3NiJPPKP8oxuqKprZLKq+nRqAH9NExK+UrE5HztvOAsAXoAAE4Mmq6+28fP5evvZSLyJcosbiy4zG4i/Ap7kQJX+h9Er6KTBAdykAAXiS5nn25ft58Y1R1BZ/6YZ6tGbxF+DTZUT8Ym5XZ9sOAsDjczgD4MnYW/zdzuuXRjGw+Es3VMNh1NOZxV+Az/ZalPilah71zTu3284CwGNQAALwxZUSeezw3dzciBivWfylE7LXj2a6bvEX4OH8hXkVF33CA3STN14AvphSIsZr93Lrasaxw0Y/6ISs62hmM4u/AA/vZJT4tSw52HrvdttZAHhECkAAHl+JiH5/t7pxOePUc0PlH51QVdFMZ1H1B20nAeiab5cs10x8AXSPAhCAx1flTl4+dy9ef7kXxXGADsiMZjyJarTWdhKALjoeEb9aShlt+hYgQKcoAAF4PCXm+frpe3np3CBql6jRDfVoLerxpO0YAF32pyLzhu0kgG5xYAPg0ZVS8sXnHuT1y8MY9Bs//aULqsEw6snU4i/AF3M0I/5KiRhvWgQG6AwFIACPppTIY0fu59aVKqZj5R+dUPV6e6Mfdd12FIBl8M3M2PLvFIDuUAAC8PBKiRiP7uXWxjyeOtJX/tEFWddRT9cjm17bUQCWxaEo8asZZXLzzvfazgLAQ1AAAvBwSono93aq65cjXnx+pPyjE6oq6sksqoHFX4An7KdK5FdtgAF0gwIQgIdTVbt56dyDOPtyP8LbPh2QGfV4HPWaxV+AfTCLiF8r8zLb/IFvAQIsOgUgAJ+vlHmeeemDvHy+b/GXrqhHo2jG07ZjACyzr2WVP1XVVdx4TwkIsMgc4gD4bKVEnnj2Qd7YGO0t/rYdCD7f3uLvzOIvwP6aRMSvznfjUBZHS4BF5ikNwKcrJeLo4ft586rFXzoje71ophZ/AQ7IZlblnZIlbt253XYWAD6FAhCAT1ZKxNroXrW5sRtPH7X4SydkXe+Vfz2LvwAHZBIRv5IR67teFQAWlgIQgE/W6+3kl98u8dILFn/phvxo8XfYdhKAVbOVGe9UdcaN77sLEGARKQAB+OOqnOfbb+zkuVeHYfGXTshoxuOoR6O2gwCsomlE/EqZ765Xbl8AWEgKQAD+qFLm+cqpD3LjfBNNrfyjE+rRKOrJxOgHQHtuRuQ7Weq48T//dttZAPgJCkAA/lApJV945l5ubgxiODD6QSdUg0HU01lEeq0BaNE0In+l5HxW7biHFWDReFMGYE8pEUcObefNq03MJj3lH12QTRPNdN3iL8BiuBUR72SVsfHuf9N2FgB+jAIQgL3ybzS8V21u7MTxYxZ/6YSs6mhm6xZ/ARbHJCJ+JeZltjadtJ0FgB+jAAQgomm280sXd+OlExZ/6YbMqKdTi78Ai+dW2fsmIAALRAEIsOoy5/n2G7t54cwo0uIvXZBRjydRj9baDgLAHzeNiF+KjMnW+7fbzgLAhxSAAKuslHm+8uLd3LjQRFP7TKAT6tEomrHFX4AF9rUo+ZXwowKAheGwB7CqSin57NP38sblXows/tINVX8Q9XQaUXmFAVhghyPKL0VWo60777adBYBQAAKsplIiDq9vx1ev9eLQzOgHnZBNE81sFlk3bUcB4PN9I+bzq+FrgAALQQEIsGr2Fn/vV5sbu/nMUz3lH12QVRXNdD2y1287CgAP51hk/NI8q/6NH/5O21kAVp4CEGCVlIho6u289tZ2nD45VP7RCZlRT2dRDS3+AnTMn6zK/HJV5nHzB7fbzgKw0hSAAKukypJvvbGbb55Zs/hLV9RrY4u/AN30TET8xXkpzW7ln44AbVIAAqyKjxZ/r17oWfylK+rRKOrJ1OIvQHf9bBXVhSoytv7Vv2g7C8DKcgAEWAWllHzmqbt5/XIdo2HtPm66oOr3o57MIi3+AnTZiYjy89FkFdv3284CsLK8UQMsu1IiDs2289a1XhyeDdz7Rxdk00Q9XY9sLP4CLIH/KHbKq1F8mxugLQpAgGVWImI03K5ubMzjuaf7yj+6YG/xdxZV3+IvwJJ4NSK+/cEgcvP9221nAVhJCkCAZVZX23nlwv145aTyj27IjHoyjWo4ajsJAE9ORsTPj+6XE64hAWiHAhBgec3zzTM7+dbZtajS855OqNfGUa+N244BwJN3PiN+ZlyN4svv/fO2swCsHAdCgGVUSsmXX7yf1y72o9dU/ttOF1RDi78AS6wXEX/+g/ndp3vpfleAg6YABFg2pZQ4fuyD3Lxcxdqw9tNfuiB7/WimFn8BltzlKPGNzIgb37/ddhaAleItG2CZlBK5Pn1Q3brWxOF1i790QjZNNDOLvwArYBQZv1BKHqpq3/YGOEgKQIBlUUrEcLiTNzZKPPe08o9OyKqKZmLxF2CFXI8oN8L9JAAHSgEIsCzqejuvnL8Xr76oSaEbPlr8HVn8BVgh04j4C1HKaOu9221nAVgZCkCA5TDP869u58Wzo0iLv3RDvbZm8RdgNb1TMi+GXwEDHBiHRICuK6XkSyce5JffHkSvV7cdBx5GNRxa/AVYXccz4udLr6q2fu/dtrMArAQFIECXlVLi6aMf5NZGxtrI4i+dUPX60UzXIyt9NcAK+9O5Mz9Tdr27ABwEBSBAV5USMR3fr25eq+PIIaMfdELWTdSzmcVfAF6JEt+OeRM//Xv/VdtZAJaeAhCgi0qJGA52qs0rGSeOD5V/dEFWVTTTWVT9QdtRAFgM38lq54V7u8+2nQNg6SkAAbqorndy48L9eO1UL3R/dEFm1OOJxV8Aftz5iPhmyQiLwAD7SwEI0D3zfOOVe3nx7DAqi790Qz1ai3o8aTsGAIulFxF/rip5qDIKBbCvHBwBuqSUkqdeeJBffnsU/V7t2390QTUcRj21+AvAJ7oaUa7Po8RXf2ARGGC/KAABuqKUyKeO3sutK1VM1iz+0gnZ60UznVn8BeDTzErEz5Wc93fq3bazACwtBSBAF5QSMV67l1tXIo4e6iv/6IKs62im65FNr+0oACy2r2dUF9LxFGDfeMICLLpSIgb9nWpzI+PksyPlH12QVRX1dBbVwOIvAJ/r+Sjx7Z3dUm3eud12FoClpAAEWHRVtZOXLzyI10/7GhXd8OHib23xF4CH92eaujqZ4b5YgP2gAARYZKXs5tmX7+alN/oWf+mKejT6cPHXIQ6Ah3YmSvlmU5e4/oPbbWcBWDoOkwCLqpTIUy9s5/XLo+j3Gou/dEE1GEY9mVn8BeBR9SLi53Z240jtlArwxHm0AiyiUiKfOvLR4m/j3j+64OPF39riLwCP5UpEXC8R8b/9o3/TdhaApaIABFg0Hy3+bl6Zx7HDFn/phL3F31lkz1WVADy2aUR8p44Y/qdf+3dtZwFYKgpAgEVSSkS/v1NdvxTx4nMWf+mGzKgn06gGw7aTANB9X5tHnPUGBPBkKQABFkld7eblc9tx9uV+WFCgI+rxJOq1tbZjALAcno+Inx0ORnHjve+2nQVgaSgAARZFKfM8c/qDvHSuF3Xl+UwnVKO1aCz+AvDkZET8zN37d5+v0usQwJPiiQqwCEopefK5+3nj8igGfYu/dEI1GEQznUXoqwF4ss5nxFfbDgGwTLyxA7StlMhjRx7kzatNTMYWf+mEbHrRTNct/gKwHwYR8WczY3zzzu22swAsBQUgQJtKiVgb3cvNjd146khP+UcXZFVHM7P4C8C+ulFKvO3NCODJUAACtKnX266+cmkep563+Es3ZEY9tfgLwL47FhHf/v3/515e+53fbjsLQOcpAAHaUlXzvHRuN869MgoLCnREPZ5EPbL4C8CB+BPTo8OXBmPfOAf4ohSAAG0oZZ6vnvogL59roq6Vf3RC/dHib/qTBeBAvBYZ72RdYvO9221nAeg0BSDAQSul5PPP3MsblwcxHBj9oBOq/iBqi78AHKw6Ir5ddmOS4X0J4IvwFg9wkEqJPHpoO29d68VsYvSDTsim2Rv9sPgLwMG7GpmXsqriy//jd9vOAtBZCkCAg/Lx4u+VnTh+VPlHN1RVNNP1yF6/7SQArKajEfFntudRNX3HV4DH5QkKcBBKRDTNdn754m689ILFX7ohM5rJNKqhxV8AWvXNJuNk2kwDeGwKQICDUOU8L53bzfOvrYXFXzqiHo+jXhu3HQMAXo0o75R5xtYP/QwY4HEoAAH2WynzfO3U3dw430RdKf/ohGo0ino8tfgLwCLoRcS3so5JFPfRAjwOBSDAfiql5HPH7+b1y729xd+2A8Hnq/qDaKazSIu/ACyOL8V8/rZrVAAejzd7gP1SSuSR9b3F3/Vp3wsrXZBNE/V0Flk3bUcBgB93LDL+dPSqauv9d9vOAtA5CkCA/VBKxGj4IG9c2Y1njin/6ISsqmims6j6Fn8BWEjfiO35c96rAB6dAhBgPzT1dl5960GcfmHoJZVOyIx6Mo1qOGo7CQB8mtciYqtkxJ//Z++1nQWgUxSAAE9a5jwvvrGbb51Zi7SgQDfUaxZ/AVh4o4j4mSwx+r+O/X7bWQA6RQEI8CSVUvLVU/fyypu9aBrPWDqhGo6inlj8BaATtiLiTNshALrG4RTgSSml5LNPf5DXL9UxGtR++ksXVP2+xV8AuuSZiPgTuTOPzX/1u21nAegMb/sAT0IpEYfXH8Sta704NBso/+iCjxd/G4u/AHRGFRHfLE0eywc7bWcB6AwFIMAXtbf4u11tbpR89imLv3RDVUUzmUbVH7SdBAAe1aWI3IhwdQXAw1IAAnxRdb2dV9+8F6dPKv/ohsxoxtOoRmttJwGAxzGJiJ+dz3eqzfe+23YWgE5QAAJ8MfN86/XtfOv1caRnKt1Qr42jHlv8BaDTvppVfcodtgAPx9MS4HGVUvKVF+/ntbcGFn/pimo4tPgLwDJ4JSM3w48vAB6KAyvA4yilxPFjH+SNy1WMhhZ/6YTs9aOZrlv8BWAZNBHxM7ulGlx/7922swAsPCcAgEdVSsT69EF161oTh9ct/tIJWdfRzCz+ArBUrtU5P1tnia/98PttZwFYaApAgEext/i7U21eiXjuaeUfnZBVFc10ZvEXgGXzQkS8k5mxM/9R21kAFpoCEOBR1PV2XrlwL1452Ws7CjyUzKjHE4u/ACyrP1mirBcnW4DP5DEJ8PDmeeHMg3zr7CgyPT/phHq0FvV40nYMANgvF6PExZhnfPN/+m7bWQAWlgMswMMopeTLJx/kly4Oo9fUbceBh1ENhlFPLf4CsNSORMQ3mix5t3G8Bfg0npAAn+fjxd+NjDWLv3RD9np7ox+VvhqApffT81KOR3hHA/g0CkCAz1JKxHR8v7p5tY4jFn/phqzraKbrkY2rKgFYCa+XyC/NI+PrP3i37SwAC0kBCPBpSokYDnaqzSsZLzwzVP7RCVUV9XQW1cDiLwArYxwRP11l9B5U3tcAPokCEODT1PVObly4H6+d6in/6ITMaMaTqC3+ArB6bpUSz7UdAmBRKQABPtlunnvlXl48O4zK4i/dYPEXgBX2UkRcLyXjqz/8521nAVg4DrUAP6mUkqdP7OSX3x5Fv1e7T5ouqAbDqCcWfwFYWcOI+OkqymB33rSdBWDhKAABftze4u+9vLGRMV6z+EsnZK8XzXQWWVv8BWClbZYqT0b4ZxjAT1IAAnxkb/H3XrV5JeLoob7yjy7YW/ydRfYs/gKw8l6IUm6WmMfXfvgv284CsFAUgAARe+XfoL9T3dio4sQzI+UfnZAZ9WQa1WDYdhIAWAT92FsDXtud3207C8BCUQACROwt/l5580GceanfdhR4WPV4EvWaxV8A+DFfKREv+1cuwB+lAAQoZTfPvnI3L54dRGVBgW6o19aimUzCPUcA8Eccj5K3omS8+e/+SdtZABaGAhBYbaWUPPXCdl63+Et3VINB1JNZRPoYB4Cf0ETE1yLL+NC/O9l2FoCF4eQArK5SIp8+ej+3rlQxXmvc+0cXZNOLZrpu8RcAPt3VUvLltkMALBIFILCaSokYr93NzY15HDts8ZdOyMriLwA8hOOZ5WbbIQAWiQIQWD0fLv7mjcsRJ5+z+Es3ZEY9nUY1tPgLAJ+jjoivR4m1rTu3284CsBAUgMDqqevdvHx+O18/PQwLCnREPZ5EPbL4CwAP6XJkvNp2CIBFoQAEVkspu3nm9Af59hu9qCvlH51QjdaiGU8ijFQDwMN6LiI2w8IbQEQoAIFVUkrJF59/kDcuj2LQb7wP0gVVfxDNdBpR+cgGgEeQEfHTGfXo5p3faTsLQOucJoDVUErEU0ce5M2rTUws/tIN2TTRzGaRddN2FADoordLzM+UKPHGv/2nbWcBaJUCEFh+Hy7+VltXduPY4Z7yjy7Iqopmuh7Z67cdBQC66vmI+EqWiKP/+/G2swC0SgEILL9ebzu/cqlY/KUzMqOezCyJj4hEAAANuElEQVT+AsAXkxHxU7u7ZTC/33YUgHYpAIHlVlXzvHxuN994eRQWf+mIejyOes3iLwA8ARerJl+pe46+wGrzFASWV4l5vnbqg7x8vom6Vv7RCdVwFM14avEXAJ6MExHlStQZm9//b9vOAtAaBSCwnEop+cIz9/L65cHe4q+f/rL4qn4/munM4i8APDl1RHw95/N+1nXbWQBa44QBLJ9SIo4e3s5bV3sxmxj9oBOyaaKerUc2Fn8B4Am7WkqcCK+EwApTAALLpZSI8ehetXVlN54+qvyjE/YWf2dRWfwFgP1wMjKuZRVx4wffbTsLQCsUgMDyKCWi12xXX760G6eeHyr/6ITMqCfTqIajtpMAwLIaRMStecleumYDWFGefsDyqKp5Xjq/G+deWQuLv3REvTaOem3cdgwAWHY3MsozXhCBVaUABJZDKfM8c/pubpzvRVV5t6MTquEo6onFXwA4ACciYiMi4lD5YdtZAA6cAhDovlJKPn/8bl6/1ItB37wbnZC9vcVfP0UCgAMxiYjrEVG9+f5/aDsLwIFz6gC6rZTII4e289a1Xswmfff+0QXZNNHMZhZ/AeBg3YgSR9sOAdAGBSDQXaVErI0e5ObGPI4fU/7RCVlVUU9mUfUHbUcBgFXzWmS80XYIgDYoAIHuaprtvPbWgzh9YqD8oxMyo55Moh5Z/AWAFhyOiBsx342t3/vdtrMAHCgFINBNmfN8++xOXjhj8ZfOqNfWol6btB0DAFbZ9VLX6zHfbTsHwIFSAALdU0rJ107dyytv9qOpPcfohGo4tPgLAO17OyNOhR+PACvGwRnollJKPHf8R3n9chPDQe2nv3TB3uLvemRlpBoAWnYsSlxvOwTAQVMAAt1QSsT2TuSR9QfVrWv9WJ8a/aATsrb4CwALpImIzVLKYPO977WdBeDAOI0AnZBnTkfM57t5/tWIZ44q/+iGqop6OrX4CwCL5VKV+XyJ+LdtBwE4KApAoBPyGzciIqqoqr47W+iEzGjGk6hHa20nAQD+qJMl4s1QAAIrxE+AgW6o64i6zkgLCnRDPVqLemzxFwAW0DAitsbr8/jS//Bu21kADoQCEACesGowjHpq8RcAFtiVH/2H6lh/4KclwGpQAALAE5S93t7oh8VfAFhkb0TGK/5ZB6wKBSAAPCFZ19FM1yObXttRAIDPdjgiroXLpYEVoQAEgCchq2ims6gGFn8BoAMyIrYy5v2b73237SwA+04BCABfWEY9mUQ1GrUdBAB4eBdKVKdKOhYDy8+TDgC+oHptFM14HHtfJgAAOuLFiDgfEbH53vfazgKwrxSAAPAFVINh1JNZhG8PAEDX9CPiRlTzTGMgwJJzWgGAx5S9XjTTWWRt8RcAOupqlGrd//GAZecxBwCP4ePF357FXwDosJejxGtl3nYMgP2lAASAR5VV1JOpxV8A6L7jEXEx5hFbP7zddhaAfaMABIBH1IzHUY/W2o4BAHxxGRHXoyq98C1AYIkpAAHgEdSjtajHkwiXhQPAsrgUVT7ldAwsM484AHhI1WAQ9XQWUfn4BIAlciLmcd43AIFl5gQDAA8hm97e6IfFXwBYNusRcXn3fsbW+7fbzgKwLxSAAPA5sq6jmc0s/gLA8vpyPYhxlLZjAOwPBSAAfJbMDxd/h20nAQD2z4WIeK7tEAD7RQEIAJ+hHk8s/gLA8ns6orzVdgiA/aIABIBPUVn8BYBVsRYRlya9fx8373y37SwAT5wCEAA+QdUfRDOdRVr8BYBVceUPtp9fL47JwBLyZAOAn5BNE/VsZvEXAFbL2VLcAwgsJwUgAPyYrKpoputR9fptRwEADtbRzLzUdgiA/aAABICPZEY9nUU1tPgLACtoGFE2/u//825e//732s4C8EQpAAHgQ/V4bPEXAFbbxePPj47UtQEwYLkoAAEgIqrhKJrx1OIvAKy2sxHxfNshAJ40BSAAK6/q96OZziIs/gLAqjscGe4BBJaOkw4AKy2bJprZemTTtB0FAGhfPyIun6j+v7hx5922swA8MQpAAFbW3uLvLNLiLwDwh87/H/PZ0YzSdg6AJ0YBCMBqyox6Mo1qOGo7CQCwWF6PiOfcCgwsEwUgACupXhtHvTZuOwYAsHiOZMS5tkMAPEkKQABWTjUcRT2x+AsAfKJ+RFydR8RPvffdtrMAPBEKQABWykeLv2nxFwD4dBeaErNtR2ZgSXiaAbAysmminlr8BQA+12sl44V52ykAnhAFIACroaqimcyi6lv8BQA+17Ml4ky4LQRYEgpAAJZfZjTjaVQji78AwEPpRcSV4iuAwJJQAAKw9Oq1tajHFn8BgEfydsR8eOMHhkCA7lMAArDUquEw6snM4i8A8KheyjpfqGrvEED3KQABWFrZ60czXbf4CwA8jhNR8lSUjBvv/27bWQC+ECciAJZS1nU0s5nFXwDgca1FxIWqqiLnO21nAfhCFIAALJ+qino6i6o/aDsJANBtG2U+r9PPgIGOUwACsFwyoxlPoh6utZ0EAOi+10vGkShtxwD4YhSAACyVerQW9XgS4R/1AMAX93yU8nIUDSDQbQpAAJZGNRhGPZ1a/AUAnpSnI/JMiSpuvf/dtrMAPDYFIABLIXu9vdGPqm47CgCwPDIiLtYxr0txfAa6yxMMgM7bW/xdj2x6bUcBAJbPxd3I4a5fGAAdpgAEoNuyisbiLwCwf05mxHNVmbedA+CxKQAB6K7MaCaTqIajtpMAAMvrqYh41cIY0GUKQAA66w8Xf72QAwD7ZhoRZzIiNu/cbjsLwGNRAALQSdVgEPXE4i8AcCAuxDz6VWk7BsDjUQAC0DnZ9KKZrkfWFn8BgANxvlQxLv7vCHSUAhCATtlb/J1F9iz+AgAH5vmIONF2CIDHpQAEoDsyo57MohoM204CAKyWwxFxtu0QAI9LAQhAR2Q0k2nUI4u/AMCBG0XE2Wqnis33v9d2FoBHpgAEoBPq0SjqtbHRDwCgLW/s1vO1cBEg0EEKQAAWXjUYRD2dRVQ+tgCA1rweVU7bDgHwOJykAFho2TQWfwGARfBMlvKC7/8BXaQABGBhZV3vlX8WfwGA9k0j4vW2QwA8DgUgAIspM+rJNKqhxV8AYCEMI+L1rOZx4/u/23YWgEeiAARgIdXjSdSjtbZjAAD8uFfLvBpV9W7bOQAeiQIQgIVTjdaiHk8s/gIAi+ZMZBwKryhAxygAAVgoVX8QzXQaafEXAFg8J6LE8ShtxwB4NE5XACyMbJqoZ7PIumk7CgDAJxlHxNm2QwA8KicsoEvuR8S/jwiTsMuoqqKZzKLq9dtOAgDwWZ5tOwDAo1IAAl3ybyLiRtsh2B9ZVZGDQdsxAAA+S0bEH7QdAgAAAAAAAAAAAAAAAAAAAAAAAAAAAAAAAAAAAAAAAAAAAAAAAAAAAAAAAAAAAAAAAAAAAAAAAAAAAAAAAAAAAAAAAAAAAAAAAAAAAAAAAAAAAAAAAAAAAAAAAAAAAAAAAAAAAAAAAAAAAAAAAAAAAAAAAAAAAAAAAAAAAAAAAAAAAAAAAAAAAAAAAAAAAAAAAAAAAAAAAAAAAAAAAAAAAAAAAAAAAAAAAAAAAAAAAAAAAAAAAAAAAAAAAAAAAAAAAAAAAAAAAAAAAAAAAAAAAAAAAAAAAAAAAAAAAAAAAAAAAAAAAAAAAAAAAAAAAAAAAAAAAAAAAAAAAAAAAAAAAAAAAAAAAAAAAAAAAAAAAAAAAAAAAAAAAAAAAAAAAAAAAAAAAAAAAAAAAAAAAAAAAAAAAAAAAAAAAAAAAAAAAAAAAAAAAAAAAAAAAAAAAAAAAAAAAAAAAAAAAAAAAAAAAAAAAAAAAAAAAAAAAAAAAAAAAAAAAAAAAAAAAAAAAAAAAAAAAAAAAAAAAAAAAAAAAAAAAAAAAAAAAAAAAAAAAAAAAAAAAAAAAAAAAAAAAAAAAAAAAAAAAAAAAAAAAAAAAAAAAAAAAAAAAAAAAAAAAAAAAAAAAAAAAAAAAAAAAAAAAAAAAAAAAAAAAAAAAAAAAAAAAAAAAAAAAAAAAAAAAAAAAAAAAAAAAAAAAAAAAAAAAAAAAAAAAAAAAAAAAAAAAAAAAAAAAAAAAAAAAAAAAAAAAAAAAAAAAAAAAAAAAAAAAAAAAAAAAAAAAAAAAAAAAAAAAAAAAAAAAAAAAAAAAAAAAAAAAAAAAAAAAAAAAAAAAAAAAAAAAAAAAAAAAAAAAAAAAAAAAAAAAAAAAAAAAAAAAAAAAAAAAAAAAAAAAAAAAAAAAAAAAAAAAAAAAAAAAAAAAAAAAAAAAAAAAAAAAAAAAAAAAAAAAAAAAAAAAAAAAAAAAAAAAAAAAAAAAAAAAAAAAAAAAAAAAAAAAAAAAAAAAAAAAAAAAAAAAAAAAAAAAAAAAAAAAAAAAAAAAAAAAAAAAAAAAAAAAAAAAAAAAAAAAAAAAAAAAAAAAAAAAAAAAAAAAAAAAAAAAAAAAAAAAAAAAAAAAAAAAAAAAAAAAAAAAAAAAAAAAAAAAAAAAAAAAAAAAAAAAAAAAAAAAAAAAAAAAAAAAAAAAAAAAAAAAAAAAAAAAAAAAAAAAAAAAAAAAAAAAAAAAAAAAAAAAAAAAAAAAAAAAAAAAAAAAAAAAAAAAAAAAAAAAAAAAAAAAAAAAAAAAAAAAAAAAAAAAAAAAAAAAAAAAAAAAAAAAAA+w/8P+WvsrTybHgYAAAAldEVYdGRhdGU6Y3JlYXRlADIwMjAtMDMtMTNUMTk6MjI6NDErMDA6MDBlmhjGAAAAJXRFWHRkYXRlOm1vZGlmeQAyMDE5LTA4LTA3VDEyOjEyOjIxKzAwOjAwjW0XSgAAAE10RVh0c29mdHdhcmUASW1hZ2VNYWdpY2sgNi44LjktOSBRMTYgeDg2XzY0IDIwMTktMTEtMTIgaHR0cDovL3d3dy5pbWFnZW1hZ2ljay5vcmdkVP6gAAAAGHRFWHRUaHVtYjo6RG9jdW1lbnQ6OlBhZ2VzADGn/7svAAAAGXRFWHRUaHVtYjo6SW1hZ2U6OkhlaWdodAAyNDAwx8F5FAAAABh0RVh0VGh1bWI6OkltYWdlOjpXaWR0aAAyNDAw0oilDQAAABl0RVh0VGh1bWI6Ok1pbWV0eXBlAGltYWdlL3BuZz+yVk4AAAAXdEVYdFRodW1iOjpNVGltZQAxNTY1MTc5OTQxtxvrpAAAABN0RVh0VGh1bWI6OlNpemUANjcuMktCQuDGDAQAAAApdEVYdFRodW1iOjpVUkkAZmlsZTovL2VsYXN0aWMta2liYW5hLWxvZ28ucG5nTB7oEAAAAABJRU5ErkJggg==;" vertex="1" parent="1">
          <mxGeometry x="698" y="130.05" width="120" height="120" as="geometry" />
        </mxCell>
        <mxCell id="kVjLwYkVu-goS-ta3FMh-6" value="&lt;b&gt;&lt;font style=&quot;font-size: 11px;&quot;&gt;Datastore,search engine&lt;/font&gt;&lt;/b&gt;" style="text;html=1;strokeColor=none;fillColor=none;align=center;verticalAlign=middle;whiteSpace=wrap;rounded=0;" vertex="1" parent="1">
          <mxGeometry x="461" y="100.05" width="60" height="30" as="geometry" />
        </mxCell>
        <mxCell id="kVjLwYkVu-goS-ta3FMh-7" value="&lt;b&gt;&lt;font style=&quot;font-size: 11px;&quot;&gt;Elasticsearch&lt;/font&gt;&lt;/b&gt;" style="text;html=1;strokeColor=none;fillColor=none;align=center;verticalAlign=middle;whiteSpace=wrap;rounded=0;" vertex="1" parent="1">
          <mxGeometry x="461" y="240" width="60" height="30" as="geometry" />
        </mxCell>
        <mxCell id="kVjLwYkVu-goS-ta3FMh-8" value="&lt;b&gt;&lt;font style=&quot;font-size: 11px;&quot;&gt;Kibana&lt;/font&gt;&lt;/b&gt;" style="text;html=1;strokeColor=none;fillColor=none;align=center;verticalAlign=middle;whiteSpace=wrap;rounded=0;" vertex="1" parent="1">
          <mxGeometry x="728" y="230" width="60" height="30" as="geometry" />
        </mxCell>
        <mxCell id="kVjLwYkVu-goS-ta3FMh-9" value="&lt;b&gt;&lt;font style=&quot;font-size: 11px;&quot;&gt;Filebeat&lt;/font&gt;&lt;/b&gt;" style="text;html=1;strokeColor=none;fillColor=none;align=center;verticalAlign=middle;whiteSpace=wrap;rounded=0;" vertex="1" parent="1">
          <mxGeometry x="128" y="110" width="60" height="30" as="geometry" />
        </mxCell>
        <mxCell id="kVjLwYkVu-goS-ta3FMh-10" value="&lt;b&gt;&lt;font style=&quot;font-size: 11px;&quot;&gt;Metricbeat&lt;/font&gt;&lt;/b&gt;" style="text;html=1;strokeColor=none;fillColor=none;align=center;verticalAlign=middle;whiteSpace=wrap;rounded=0;" vertex="1" parent="1">
          <mxGeometry x="132.41999999999996" y="320" width="60" height="30" as="geometry" />
        </mxCell>
        <mxCell id="kVjLwYkVu-goS-ta3FMh-11" value="" style="shape=flexArrow;endArrow=classic;html=1;rounded=0;exitX=1;exitY=0.5;exitDx=0;exitDy=0;entryX=0;entryY=0.75;entryDx=0;entryDy=0;" edge="1" parent="1" source="kVjLwYkVu-goS-ta3FMh-1" target="kVjLwYkVu-goS-ta3FMh-4">
          <mxGeometry width="50" height="50" relative="1" as="geometry">
            <mxPoint x="218" y="300" as="sourcePoint" />
            <mxPoint x="268" y="250" as="targetPoint" />
          </mxGeometry>
        </mxCell>
        <mxCell id="kVjLwYkVu-goS-ta3FMh-12" value="" style="shape=flexArrow;endArrow=classic;html=1;rounded=0;exitX=1;exitY=0.5;exitDx=0;exitDy=0;entryX=0;entryY=0.25;entryDx=0;entryDy=0;" edge="1" parent="1" source="kVjLwYkVu-goS-ta3FMh-2" target="kVjLwYkVu-goS-ta3FMh-4">
          <mxGeometry width="50" height="50" relative="1" as="geometry">
            <mxPoint x="248" y="180" as="sourcePoint" />
            <mxPoint x="298" y="130" as="targetPoint" />
          </mxGeometry>
        </mxCell>
        <mxCell id="kVjLwYkVu-goS-ta3FMh-13" value="Ship data" style="text;html=1;strokeColor=none;fillColor=none;align=center;verticalAlign=middle;whiteSpace=wrap;rounded=0;rotation=22;" vertex="1" parent="1">
          <mxGeometry x="268" y="82.05" width="60" height="30" as="geometry" />
        </mxCell>
        <mxCell id="kVjLwYkVu-goS-ta3FMh-14" value="Ship data" style="text;html=1;strokeColor=none;fillColor=none;align=center;verticalAlign=middle;whiteSpace=wrap;rounded=0;rotation=-15;" vertex="1" parent="1">
          <mxGeometry x="268" y="260" width="60" height="30" as="geometry" />
        </mxCell>
        <mxCell id="kVjLwYkVu-goS-ta3FMh-16" value="" style="shape=ext;double=1;rounded=0;whiteSpace=wrap;html=1;fillColor=#dae8fc;strokeColor=#6c8ebf;" vertex="1" parent="1">
          <mxGeometry x="32" y="45.000000000000014" width="80" height="60" as="geometry" />
        </mxCell>
        <mxCell id="kVjLwYkVu-goS-ta3FMh-17" value="" style="shape=ext;double=1;rounded=0;whiteSpace=wrap;html=1;fillColor=#dae8fc;strokeColor=#6c8ebf;" vertex="1" parent="1">
          <mxGeometry x="32" y="259.65000000000003" width="80" height="60" as="geometry" />
        </mxCell>
        <mxCell id="kVjLwYkVu-goS-ta3FMh-18" value="&lt;b style=&quot;font-size: 10px;&quot;&gt;Log&lt;br&gt;Files&lt;/b&gt;" style="shape=ext;double=1;rounded=0;whiteSpace=wrap;html=1;" vertex="1" parent="1">
          <mxGeometry x="48" y="55.030000000000015" width="48" height="39.95" as="geometry" />
        </mxCell>
        <mxCell id="kVjLwYkVu-goS-ta3FMh-19" value="&lt;b style=&quot;font-size: 10px;&quot;&gt;&lt;span style=&quot;&quot;&gt;System&lt;br&gt;&lt;/span&gt;Metrics&lt;/b&gt;" style="shape=ext;double=1;rounded=0;whiteSpace=wrap;html=1;" vertex="1" parent="1">
          <mxGeometry x="48" y="270" width="48" height="39.95" as="geometry" />
        </mxCell>
        <mxCell id="kVjLwYkVu-goS-ta3FMh-20" value="" style="shape=flexArrow;endArrow=classic;html=1;rounded=0;entryX=0;entryY=0.5;entryDx=0;entryDy=0;" edge="1" parent="1" source="kVjLwYkVu-goS-ta3FMh-4" target="kVjLwYkVu-goS-ta3FMh-5">
          <mxGeometry width="50" height="50" relative="1" as="geometry">
            <mxPoint x="517" y="336" as="sourcePoint" />
            <mxPoint x="728" y="270" as="targetPoint" />
          </mxGeometry>
        </mxCell>
        <mxCell id="kVjLwYkVu-goS-ta3FMh-21" value="Visualize data" style="text;html=1;strokeColor=none;fillColor=none;align=center;verticalAlign=middle;whiteSpace=wrap;rounded=0;rotation=0;" vertex="1" parent="1">
          <mxGeometry x="590" y="160" width="80" height="30" as="geometry" />
        </mxCell>
      </root>
    </mxGraphModel>
  </diagram>
</mxfile>
